<?xml version="1.0" standalone="no"?>
<!DOCTYPE svg PUBLIC "-//W3C//DTD SVG 1.1//EN" "http://www.w3.org/Graphics/SVG/1.1/DTD/svg11.dtd">
<svg width="146" height="16" version="1.1" xmlns="http://www.w3.org/2000/svg">
 <desc>Zint Generated Symbol</desc>
 <g id="barcode" fill="#000000">
  <rect x="0" y="0" width="146" height="16" fill="#FFFFFF"/>
  <path d="M0 0h2v10h-2ZM20 0h2v10h-2ZM28 0h2v16h-2ZM36 0h2v16h-2ZM40 0h2v16h-2ZM44 0h2v10h-2ZM56 0h2v10h-2ZM60 0h2v10h-2ZM64 0h2v16h-2ZM72 0h2v16h-2ZM76 0h2v16h-2ZM84 0h2v16h-2ZM92 0h2v16h-2ZM104 0h2v16h-2ZM120 0h2v16h-2ZM132 0h2v16h-2ZM140 0h2v10h-2ZM4 6h2v4h-2ZM8 6h2v10h-2ZM12 6h2v10h-2ZM16 6h2v10h-2ZM24 6h2v4h-2ZM32 6h2v10h-2ZM48 6h2v10h-2ZM52 6h2v10h-2ZM68 6h2v10h-2ZM80 6h2v4h-2ZM88 6h2v4h-2ZM96 6h2v4h-2ZM100 6h2v4h-2ZM108 6h2v10h-2ZM112 6h2v4h-2ZM116 6h2v4h-2ZM124 6h2v4h-2ZM128 6h2v10h-2ZM136 6h2v10h-2ZM144 6h2v4h-2Z"/>
 </g>
</svg>
