<?xml version="1.0" standalone="no"?>
<!DOCTYPE svg PUBLIC "-//W3C//DTD SVG 1.1//EN" "http://www.w3.org/Graphics/SVG/1.1/DTD/svg11.dtd">
<svg width="22" height="22" version="1.1" xmlns="http://www.w3.org/2000/svg">
 <desc>Zint Generated Symbol</desc>
 <g id="barcode" fill="#000000">
  <rect x="0" y="0" width="22" height="22" fill="#FFFFFF"/>
  <path d="M0 0h8v2h-8ZM10 0h2v2h-2ZM20 0h2v2h-2ZM0 2h22v2h-22ZM0 4h4v2h-4ZM18 4h4v2h-4ZM2 6h2v2h-2ZM6 6h10v2h-10ZM18 6h2v2h-2ZM0 8h4v2h-4ZM6 8h2v6h-2ZM14 8h2v6h-2ZM18 8h4v4h-4ZM2 10h2v8h-2ZM10 10h2v2h-2ZM18 12h2v6h-2ZM6 14h10v2h-10ZM2 18h20v2h-20ZM16 20h2v2h-2Z"/>
 </g>
</svg>
