<?xml version="1.0" standalone="no"?>
<!DOCTYPE svg PUBLIC "-//W3C//DTD SVG 1.1//EN" "http://www.w3.org/Graphics/SVG/1.1/DTD/svg11.dtd">
<svg width="30" height="30" version="1.1" xmlns="http://www.w3.org/2000/svg">
 <desc>Zint Generated Symbol</desc>
 <g id="barcode" fill="#000000">
  <rect x="0" y="0" width="30" height="30" fill="#FFFFFF"/>
  <path d="M6 0h2v2h-2ZM10 0h4v2h-4ZM20 0h8v2h-8ZM0 2h4v2h-4ZM10 2h6v2h-6ZM18 2h10v2h-10ZM0 4h8v2h-8ZM16 4h2v2h-2ZM24 4h2v2h-2ZM28 4h2v2h-2ZM4 6h24v2h-24ZM2 8h2v2h-2ZM6 8h2v6h-2ZM22 8h2v4h-2ZM26 8h4v4h-4ZM10 10h10v2h-10ZM2 12h2v2h-2ZM10 12h2v6h-2ZM18 12h2v6h-2ZM22 12h4v4h-4ZM0 14h2v4h-2ZM4 14h4v6h-4ZM14 14h2v2h-2ZM28 14h2v2h-2ZM22 16h8v2h-8ZM10 18h10v2h-10ZM22 18h2v2h-2ZM26 18h2v2h-2ZM0 20h2v4h-2ZM6 20h2v2h-2ZM22 20h4v2h-4ZM6 22h24v2h-24ZM0 24h4v2h-4ZM10 24h2v2h-2ZM14 24h2v2h-2ZM20 24h2v2h-2ZM26 24h2v4h-2ZM2 26h4v4h-4ZM8 26h2v2h-2ZM12 26h8v2h-8ZM22 26h2v2h-2ZM12 28h2v2h-2ZM20 28h2v2h-2ZM24 28h2v2h-2ZM28 28h2v2h-2Z"/>
 </g>
</svg>
