<?xml version="1.0" standalone="no"?>
<!DOCTYPE svg PUBLIC "-//W3C//DTD SVG 1.1//EN" "http://www.w3.org/Graphics/SVG/1.1/DTD/svg11.dtd">
<svg width="324" height="50" version="1.1" xmlns="http://www.w3.org/2000/svg">
 <desc>Zint Generated Symbol</desc>
 <g id="barcode" fill="#000000">
  <rect x="0" y="0" width="324" height="50" fill="#FFFFFF"/>
  <path d="M0 0h2v33.33h-2ZM6 0h2v33.33h-2ZM10 0h2v33.33h-2ZM14 0h2v33.33h-2ZM18 0h2v33.33h-2ZM30 0h2v33.33h-2ZM34 0h2v33.33h-2ZM38 0h2v33.33h-2ZM48 0h2v33.33h-2ZM54 0h2v33.33h-2ZM58 0h2v33.33h-2ZM62 0h2v33.33h-2ZM68 0h2v33.33h-2ZM78 0h2v33.33h-2ZM82 0h2v33.33h-2ZM86 0h2v33.33h-2ZM94 0h2v33.33h-2ZM102 0h2v33.33h-2ZM106 0h2v33.33h-2ZM110 0h2v33.33h-2ZM120 0h2v33.33h-2ZM126 0h2v33.33h-2ZM130 0h2v33.33h-2ZM134 0h2v33.33h-2ZM146 0h2v33.33h-2ZM150 0h2v33.33h-2ZM154 0h2v33.33h-2ZM160 0h2v33.33h-2ZM164 0h2v33.33h-2ZM174 0h2v33.33h-2ZM178 0h2v33.33h-2ZM184 0h2v33.33h-2ZM190 0h2v33.33h-2ZM198 0h2v33.33h-2ZM202 0h2v33.33h-2ZM208 0h2v33.33h-2ZM216 0h2v33.33h-2ZM222 0h2v33.33h-2ZM226 0h2v33.33h-2ZM232 0h2v33.33h-2ZM242 0h2v33.33h-2ZM246 0h2v33.33h-2ZM250 0h2v33.33h-2ZM258 0h2v33.33h-2ZM262 0h2v33.33h-2ZM270 0h2v33.33h-2ZM274 0h2v33.33h-2ZM278 0h2v33.33h-2ZM284 0h2v33.33h-2ZM294 0h2v33.33h-2ZM298 0h2v33.33h-2ZM302 0h2v33.33h-2ZM310 0h2v33.33h-2ZM318 0h2v33.33h-2ZM322 0h2v33.33h-2Z"/>
  <text x="162" y="46.68" text-anchor="middle" font-family="Arimo, Arial, sans-serif" font-size="14">
   0312345678912
  </text>
 </g>
</svg>
