<?xml version="1.0" standalone="no"?>
<!DOCTYPE svg PUBLIC "-//W3C//DTD SVG 1.1//EN" "http://www.w3.org/Graphics/SVG/1.1/DTD/svg11.dtd">
<svg width="374" height="117" version="1.1" xmlns="http://www.w3.org/2000/svg">
 <desc>Zint Generated Symbol</desc>
 <g id="barcode" fill="#000000">
  <rect x="0" y="0" width="374" height="117" fill="#FFFFFF"/>
  <path d="M0 0h6v100h-6ZM8 0h6v100h-6ZM16 0h2v100h-2ZM20 0h2v100h-2ZM24 0h2v100h-2ZM28 0h6v100h-6ZM36 0h6v100h-6ZM44 0h2v100h-2ZM48 0h6v100h-6ZM56 0h2v100h-2ZM60 0h2v100h-2ZM64 0h2v100h-2ZM68 0h6v100h-6ZM76 0h2v100h-2ZM80 0h6v100h-6ZM88 0h2v100h-2ZM92 0h2v100h-2ZM96 0h6v100h-6ZM104 0h6v100h-6ZM112 0h6v100h-6ZM120 0h2v100h-2ZM124 0h2v100h-2ZM128 0h2v100h-2ZM132 0h2v100h-2ZM136 0h2v100h-2ZM140 0h6v100h-6ZM148 0h2v100h-2ZM152 0h6v100h-6ZM160 0h6v100h-6ZM168 0h2v100h-2ZM172 0h6v100h-6ZM180 0h2v100h-2ZM184 0h2v100h-2ZM188 0h2v100h-2ZM192 0h6v100h-6ZM200 0h6v100h-6ZM208 0h2v100h-2ZM212 0h2v100h-2ZM216 0h2v100h-2ZM220 0h2v100h-2ZM224 0h2v100h-2ZM228 0h6v100h-6ZM236 0h6v100h-6ZM244 0h6v100h-6ZM252 0h2v100h-2ZM256 0h2v100h-2ZM260 0h6v100h-6ZM268 0h2v100h-2ZM272 0h2v100h-2ZM276 0h6v100h-6ZM284 0h2v100h-2ZM288 0h6v100h-6ZM296 0h2v100h-2ZM300 0h6v100h-6ZM308 0h2v100h-2ZM312 0h2v100h-2ZM316 0h2v100h-2ZM320 0h6v100h-6ZM328 0h2v100h-2ZM332 0h6v100h-6ZM340 0h2v100h-2ZM344 0h2v100h-2ZM348 0h6v100h-6ZM356 0h6v100h-6ZM364 0h2v100h-2ZM368 0h6v100h-6Z"/>
  <text x="187" y="113.34" text-anchor="middle" font-family="Arimo, Arial, sans-serif" font-size="14">
   012345678912
  </text>
 </g>
</svg>
