<?xml version="1.0" standalone="no"?>
<!DOCTYPE svg PUBLIC "-//W3C//DTD SVG 1.1//EN" "http://www.w3.org/Graphics/SVG/1.1/DTD/svg11.dtd">
<svg width="258" height="117" version="1.1" xmlns="http://www.w3.org/2000/svg">
 <desc>Zint Generated Symbol</desc>
 <g id="barcode" fill="#000000">
  <rect x="0" y="0" width="258" height="117" fill="#FFFFFF"/>
  <path d="M0 0h2v100h-2ZM4 0h2v100h-2ZM8 0h2v100h-2ZM12 0h6v100h-6ZM24 0h2v100h-2ZM28 0h6v100h-6ZM36 0h2v100h-2ZM40 0h6v100h-6ZM48 0h2v100h-2ZM56 0h2v100h-2ZM60 0h6v100h-6ZM68 0h6v100h-6ZM80 0h2v100h-2ZM84 0h2v100h-2ZM88 0h2v100h-2ZM92 0h6v100h-6ZM100 0h6v100h-6ZM108 0h6v100h-6ZM116 0h6v100h-6ZM124 0h2v100h-2ZM128 0h2v100h-2ZM136 0h6v100h-6ZM144 0h2v100h-2ZM148 0h2v100h-2ZM152 0h2v100h-2ZM160 0h6v100h-6ZM168 0h6v100h-6ZM176 0h2v100h-2ZM184 0h2v100h-2ZM188 0h2v100h-2ZM196 0h2v100h-2ZM204 0h2v100h-2ZM208 0h6v100h-6ZM216 0h2v100h-2ZM220 0h6v100h-6ZM228 0h2v100h-2ZM236 0h2v100h-2ZM240 0h6v100h-6ZM248 0h6v100h-6ZM256 0h2v100h-2Z"/>
  <text x="129" y="113.34" text-anchor="middle" font-family="Arimo, Arial, sans-serif" font-size="14">
   012345678912
  </text>
 </g>
</svg>
