<?xml version="1.0" standalone="no"?>
<!DOCTYPE svg PUBLIC "-//W3C//DTD SVG 1.1//EN"
   "http://www.w3.org/Graphics/SVG/1.1/DTD/svg11.dtd">
<svg width="258" height="119" version="1.1"
   xmlns="http://www.w3.org/2000/svg">
   <desc>Zint Generated Symbol
   </desc>

   <g id="barcode" fill="#000000">
      <rect x="0" y="0" width="258" height="119" fill="#FFFFFF" />
      <rect x="0.00" y="0.00" width="2.00" height="100.00" />
      <rect x="4.00" y="0.00" width="2.00" height="100.00" />
      <rect x="8.00" y="0.00" width="2.00" height="100.00" />
      <rect x="12.00" y="0.00" width="6.00" height="100.00" />
      <rect x="24.00" y="0.00" width="2.00" height="100.00" />
      <rect x="28.00" y="0.00" width="6.00" height="100.00" />
      <rect x="36.00" y="0.00" width="2.00" height="100.00" />
      <rect x="40.00" y="0.00" width="6.00" height="100.00" />
      <rect x="48.00" y="0.00" width="2.00" height="100.00" />
      <rect x="56.00" y="0.00" width="2.00" height="100.00" />
      <rect x="60.00" y="0.00" width="6.00" height="100.00" />
      <rect x="68.00" y="0.00" width="6.00" height="100.00" />
      <rect x="80.00" y="0.00" width="2.00" height="100.00" />
      <rect x="84.00" y="0.00" width="2.00" height="100.00" />
      <rect x="88.00" y="0.00" width="2.00" height="100.00" />
      <rect x="92.00" y="0.00" width="6.00" height="100.00" />
      <rect x="100.00" y="0.00" width="6.00" height="100.00" />
      <rect x="108.00" y="0.00" width="6.00" height="100.00" />
      <rect x="116.00" y="0.00" width="6.00" height="100.00" />
      <rect x="124.00" y="0.00" width="2.00" height="100.00" />
      <rect x="128.00" y="0.00" width="2.00" height="100.00" />
      <rect x="136.00" y="0.00" width="6.00" height="100.00" />
      <rect x="144.00" y="0.00" width="2.00" height="100.00" />
      <rect x="148.00" y="0.00" width="2.00" height="100.00" />
      <rect x="152.00" y="0.00" width="2.00" height="100.00" />
      <rect x="160.00" y="0.00" width="6.00" height="100.00" />
      <rect x="168.00" y="0.00" width="6.00" height="100.00" />
      <rect x="176.00" y="0.00" width="2.00" height="100.00" />
      <rect x="184.00" y="0.00" width="2.00" height="100.00" />
      <rect x="188.00" y="0.00" width="2.00" height="100.00" />
      <rect x="196.00" y="0.00" width="2.00" height="100.00" />
      <rect x="204.00" y="0.00" width="2.00" height="100.00" />
      <rect x="208.00" y="0.00" width="6.00" height="100.00" />
      <rect x="216.00" y="0.00" width="2.00" height="100.00" />
      <rect x="220.00" y="0.00" width="6.00" height="100.00" />
      <rect x="228.00" y="0.00" width="2.00" height="100.00" />
      <rect x="236.00" y="0.00" width="2.00" height="100.00" />
      <rect x="240.00" y="0.00" width="6.00" height="100.00" />
      <rect x="248.00" y="0.00" width="6.00" height="100.00" />
      <rect x="256.00" y="0.00" width="2.00" height="100.00" />
      <text x="129.00" y="115.40" text-anchor="middle"
         font-family="Helvetica, sans-serif" font-size="14.0" >
         012345678912
      </text>
   </g>
</svg>
