<?xml version="1.0" standalone="no"?>
<!DOCTYPE svg PUBLIC "-//W3C//DTD SVG 1.1//EN" "http://www.w3.org/Graphics/SVG/1.1/DTD/svg11.dtd">
<svg width="274" height="117" version="1.1" xmlns="http://www.w3.org/2000/svg">
 <desc>Zint Generated Symbol</desc>
 <g id="barcode" fill="#000000">
  <rect x="0" y="0" width="274" height="117" fill="#FFFFFF"/>
  <path d="M0 0h8v100h-8ZM10 0h2v100h-2ZM14 0h2v100h-2ZM18 0h2v100h-2ZM22 0h6v100h-6ZM34 0h2v100h-2ZM38 0h6v100h-6ZM46 0h2v100h-2ZM50 0h6v100h-6ZM58 0h2v100h-2ZM66 0h2v100h-2ZM70 0h6v100h-6ZM78 0h6v100h-6ZM90 0h2v100h-2ZM94 0h2v100h-2ZM98 0h2v100h-2ZM102 0h6v100h-6ZM110 0h6v100h-6ZM118 0h6v100h-6ZM126 0h6v100h-6ZM134 0h2v100h-2ZM138 0h2v100h-2ZM146 0h6v100h-6ZM154 0h2v100h-2ZM158 0h2v100h-2ZM162 0h2v100h-2ZM170 0h6v100h-6ZM178 0h6v100h-6ZM186 0h2v100h-2ZM194 0h2v100h-2ZM198 0h2v100h-2ZM206 0h2v100h-2ZM214 0h2v100h-2ZM218 0h6v100h-6ZM226 0h2v100h-2ZM230 0h6v100h-6ZM238 0h2v100h-2ZM246 0h2v100h-2ZM250 0h6v100h-6ZM258 0h8v100h-8ZM268 0h2v100h-2ZM272 0h2v100h-2Z"/>
  <text x="137" y="113.34" text-anchor="middle" font-family="Arimo, Arial, sans-serif" font-size="14">
   012345678912
  </text>
 </g>
</svg>
