<?xml version="1.0" standalone="no"?>
<!DOCTYPE svg PUBLIC "-//W3C//DTD SVG 1.1//EN" "http://www.w3.org/Graphics/SVG/1.1/DTD/svg11.dtd">
<svg width="266" height="11" version="1.1" xmlns="http://www.w3.org/2000/svg">
 <desc>Zint Generated Symbol</desc>
 <g id="barcode" fill="#000000">
  <rect x="0" y="0" width="266" height="11" fill="#FFFFFF"/>
  <path d="M0 0h2v10.75h-2ZM4 0h2v10.75h-2ZM8 0h2v10.75h-2ZM36 0h2v10.75h-2ZM40 0h2v10.75h-2ZM52 0h2v10.75h-2ZM60 0h2v10.75h-2ZM72 0h2v10.75h-2ZM76 0h2v10.75h-2ZM88 0h2v10.75h-2ZM100 0h2v10.75h-2ZM108 0h2v10.75h-2ZM116 0h2v10.75h-2ZM128 0h2v10.75h-2ZM132 0h2v10.75h-2ZM144 0h2v10.75h-2ZM160 0h2v10.75h-2ZM164 0h2v10.75h-2ZM176 0h2v10.75h-2ZM184 0h2v10.75h-2ZM192 0h2v10.75h-2ZM216 0h2v10.75h-2ZM220 0h2v10.75h-2ZM232 0h2v10.75h-2ZM240 0h2v10.75h-2ZM252 0h2v10.75h-2ZM260 0h2v10.75h-2ZM264 0h2v10.75h-2ZM12 6.45h2v4.3h-2ZM16 6.45h2v4.3h-2ZM20 6.45h2v4.3h-2ZM24 6.45h2v4.3h-2ZM28 6.45h2v4.3h-2ZM32 6.45h2v4.3h-2ZM44 6.45h2v4.3h-2ZM48 6.45h2v4.3h-2ZM56 6.45h2v4.3h-2ZM64 6.45h2v4.3h-2ZM68 6.45h2v4.3h-2ZM80 6.45h2v4.3h-2ZM84 6.45h2v4.3h-2ZM92 6.45h2v4.3h-2ZM96 6.45h2v4.3h-2ZM104 6.45h2v4.3h-2ZM112 6.45h2v4.3h-2ZM120 6.45h2v4.3h-2ZM124 6.45h2v4.3h-2ZM136 6.45h2v4.3h-2ZM140 6.45h2v4.3h-2ZM148 6.45h2v4.3h-2ZM152 6.45h2v4.3h-2ZM156 6.45h2v4.3h-2ZM168 6.45h2v4.3h-2ZM172 6.45h2v4.3h-2ZM180 6.45h2v4.3h-2ZM188 6.45h2v4.3h-2ZM196 6.45h2v4.3h-2ZM200 6.45h2v4.3h-2ZM204 6.45h2v4.3h-2ZM208 6.45h2v4.3h-2ZM212 6.45h2v4.3h-2ZM224 6.45h2v4.3h-2ZM228 6.45h2v4.3h-2ZM236 6.45h2v4.3h-2ZM244 6.45h2v4.3h-2ZM248 6.45h2v4.3h-2ZM256 6.45h2v4.3h-2Z"/>
 </g>
</svg>
