<?xml version="1.0" standalone="no"?>
<!DOCTYPE svg PUBLIC "-//W3C//DTD SVG 1.1//EN"
   "http://www.w3.org/Graphics/SVG/1.1/DTD/svg11.dtd">
<svg width="264" height="144" version="1.1"
   xmlns="http://www.w3.org/2000/svg">
   <desc>Zint Generated Symbol
   </desc>

   <g id="barcode" fill="#000000">
      <rect x="0" y="0" width="264" height="144" fill="#FFFFFF" />
      <rect x="20.00" y="2.00" width="4.00" height="140.00" />
      <rect x="26.00" y="2.00" width="2.00" height="140.00" />
      <rect x="36.00" y="2.00" width="2.00" height="140.00" />
      <rect x="42.00" y="2.00" width="2.00" height="140.00" />
      <rect x="46.00" y="2.00" width="8.00" height="140.00" />
      <rect x="56.00" y="2.00" width="6.00" height="140.00" />
      <rect x="64.00" y="2.00" width="2.00" height="10.00" />
      <rect x="68.00" y="2.00" width="4.00" height="10.00" />
      <rect x="76.00" y="2.00" width="2.00" height="10.00" />
      <rect x="86.00" y="2.00" width="4.00" height="10.00" />
      <rect x="92.00" y="2.00" width="6.00" height="10.00" />
      <rect x="104.00" y="2.00" width="2.00" height="10.00" />
      <rect x="108.00" y="2.00" width="2.00" height="40.00" />
      <rect x="114.00" y="2.00" width="4.00" height="10.00" />
      <rect x="126.00" y="2.00" width="2.00" height="10.00" />
      <rect x="130.00" y="2.00" width="2.00" height="10.00" />
      <rect x="140.00" y="2.00" width="4.00" height="10.00" />
      <rect x="146.00" y="2.00" width="2.00" height="10.00" />
      <rect x="152.00" y="2.00" width="2.00" height="30.00" />
      <rect x="156.00" y="2.00" width="8.00" height="10.00" />
      <rect x="168.00" y="2.00" width="2.00" height="10.00" />
      <rect x="174.00" y="2.00" width="4.00" height="20.00" />
      <rect x="180.00" y="2.00" width="4.00" height="20.00" />
      <rect x="188.00" y="2.00" width="4.00" height="20.00" />
      <rect x="196.00" y="2.00" width="4.00" height="10.00" />
      <rect x="202.00" y="2.00" width="4.00" height="10.00" />
      <rect x="210.00" y="2.00" width="4.00" height="10.00" />
      <rect x="218.00" y="2.00" width="4.00" height="140.00" />
      <rect x="228.00" y="2.00" width="6.00" height="140.00" />
      <rect x="236.00" y="2.00" width="2.00" height="140.00" />
      <rect x="240.00" y="2.00" width="4.00" height="140.00" />
      <rect x="64.00" y="12.00" width="4.00" height="10.00" />
      <rect x="74.00" y="12.00" width="2.00" height="10.00" />
      <rect x="80.00" y="12.00" width="2.00" height="10.00" />
      <rect x="86.00" y="12.00" width="2.00" height="20.00" />
      <rect x="96.00" y="12.00" width="4.00" height="10.00" />
      <rect x="102.00" y="12.00" width="2.00" height="10.00" />
      <rect x="112.00" y="12.00" width="8.00" height="10.00" />
      <rect x="124.00" y="12.00" width="2.00" height="10.00" />
      <rect x="130.00" y="12.00" width="4.00" height="10.00" />
      <rect x="136.00" y="12.00" width="4.00" height="10.00" />
      <rect x="144.00" y="12.00" width="4.00" height="10.00" />
      <rect x="158.00" y="12.00" width="2.00" height="20.00" />
      <rect x="162.00" y="12.00" width="4.00" height="20.00" />
      <rect x="196.00" y="12.00" width="2.00" height="10.00" />
      <rect x="200.00" y="12.00" width="2.00" height="10.00" />
      <rect x="208.00" y="12.00" width="4.00" height="10.00" />
      <rect x="64.00" y="22.00" width="2.00" height="40.00" />
      <rect x="68.00" y="22.00" width="4.00" height="10.00" />
      <rect x="76.00" y="22.00" width="6.00" height="20.00" />
      <rect x="94.00" y="22.00" width="2.00" height="20.00" />
      <rect x="102.00" y="22.00" width="4.00" height="10.00" />
      <rect x="116.00" y="22.00" width="8.00" height="20.00" />
      <rect x="126.00" y="22.00" width="2.00" height="20.00" />
      <rect x="130.00" y="22.00" width="2.00" height="60.00" />
      <rect x="140.00" y="22.00" width="2.00" height="20.00" />
      <rect x="146.00" y="22.00" width="4.00" height="10.00" />
      <rect x="174.00" y="22.00" width="2.00" height="10.00" />
      <rect x="180.00" y="22.00" width="2.00" height="10.00" />
      <rect x="190.00" y="22.00" width="4.00" height="10.00" />
      <rect x="196.00" y="22.00" width="4.00" height="10.00" />
      <rect x="202.00" y="22.00" width="4.00" height="20.00" />
      <rect x="208.00" y="22.00" width="8.00" height="10.00" />
      <rect x="70.00" y="32.00" width="4.00" height="20.00" />
      <rect x="86.00" y="32.00" width="4.00" height="10.00" />
      <rect x="98.00" y="32.00" width="2.00" height="10.00" />
      <rect x="144.00" y="32.00" width="4.00" height="10.00" />
      <rect x="152.00" y="32.00" width="4.00" height="20.00" />
      <rect x="164.00" y="32.00" width="2.00" height="10.00" />
      <rect x="170.00" y="32.00" width="2.00" height="10.00" />
      <rect x="174.00" y="32.00" width="4.00" height="30.00" />
      <rect x="180.00" y="32.00" width="4.00" height="20.00" />
      <rect x="188.00" y="32.00" width="4.00" height="20.00" />
      <rect x="196.00" y="32.00" width="2.00" height="10.00" />
      <rect x="208.00" y="32.00" width="6.00" height="10.00" />
      <rect x="78.00" y="42.00" width="6.00" height="10.00" />
      <rect x="86.00" y="42.00" width="2.00" height="10.00" />
      <rect x="94.00" y="42.00" width="4.00" height="10.00" />
      <rect x="104.00" y="42.00" width="2.00" height="40.00" />
      <rect x="108.00" y="42.00" width="4.00" height="10.00" />
      <rect x="114.00" y="42.00" width="4.00" height="10.00" />
      <rect x="122.00" y="42.00" width="4.00" height="10.00" />
      <rect x="136.00" y="42.00" width="2.00" height="10.00" />
      <rect x="146.00" y="42.00" width="4.00" height="20.00" />
      <rect x="158.00" y="42.00" width="4.00" height="20.00" />
      <rect x="164.00" y="42.00" width="8.00" height="10.00" />
      <rect x="196.00" y="42.00" width="4.00" height="10.00" />
      <rect x="204.00" y="42.00" width="2.00" height="10.00" />
      <rect x="208.00" y="42.00" width="2.00" height="10.00" />
      <rect x="68.00" y="52.00" width="6.00" height="10.00" />
      <rect x="78.00" y="52.00" width="4.00" height="10.00" />
      <rect x="86.00" y="52.00" width="4.00" height="30.00" />
      <rect x="92.00" y="52.00" width="6.00" height="30.00" />
      <rect x="108.00" y="52.00" width="2.00" height="60.00" />
      <rect x="116.00" y="52.00" width="4.00" height="10.00" />
      <rect x="122.00" y="52.00" width="2.00" height="10.00" />
      <rect x="138.00" y="52.00" width="2.00" height="10.00" />
      <rect x="152.00" y="52.00" width="2.00" height="50.00" />
      <rect x="164.00" y="52.00" width="6.00" height="10.00" />
      <rect x="184.00" y="52.00" width="2.00" height="10.00" />
      <rect x="192.00" y="52.00" width="2.00" height="10.00" />
      <rect x="196.00" y="52.00" width="2.00" height="10.00" />
      <rect x="204.00" y="52.00" width="6.00" height="10.00" />
      <rect x="212.00" y="52.00" width="4.00" height="10.00" />
      <rect x="64.00" y="62.00" width="6.00" height="10.00" />
      <rect x="74.00" y="62.00" width="2.00" height="10.00" />
      <rect x="80.00" y="62.00" width="4.00" height="10.00" />
      <rect x="112.00" y="62.00" width="6.00" height="10.00" />
      <rect x="120.00" y="62.00" width="8.00" height="10.00" />
      <rect x="134.00" y="62.00" width="8.00" height="10.00" />
      <rect x="144.00" y="62.00" width="6.00" height="10.00" />
      <rect x="162.00" y="62.00" width="2.00" height="10.00" />
      <rect x="168.00" y="62.00" width="4.00" height="10.00" />
      <rect x="174.00" y="62.00" width="2.00" height="10.00" />
      <rect x="178.00" y="62.00" width="4.00" height="10.00" />
      <rect x="188.00" y="62.00" width="2.00" height="10.00" />
      <rect x="196.00" y="62.00" width="4.00" height="20.00" />
      <rect x="204.00" y="62.00" width="2.00" height="10.00" />
      <rect x="212.00" y="62.00" width="2.00" height="10.00" />
      <rect x="64.00" y="72.00" width="2.00" height="10.00" />
      <rect x="68.00" y="72.00" width="4.00" height="10.00" />
      <rect x="76.00" y="72.00" width="2.00" height="10.00" />
      <rect x="114.00" y="72.00" width="4.00" height="10.00" />
      <rect x="126.00" y="72.00" width="2.00" height="10.00" />
      <rect x="140.00" y="72.00" width="4.00" height="10.00" />
      <rect x="146.00" y="72.00" width="2.00" height="10.00" />
      <rect x="156.00" y="72.00" width="8.00" height="10.00" />
      <rect x="168.00" y="72.00" width="2.00" height="10.00" />
      <rect x="174.00" y="72.00" width="4.00" height="20.00" />
      <rect x="180.00" y="72.00" width="4.00" height="20.00" />
      <rect x="188.00" y="72.00" width="4.00" height="20.00" />
      <rect x="202.00" y="72.00" width="4.00" height="10.00" />
      <rect x="210.00" y="72.00" width="4.00" height="10.00" />
      <rect x="64.00" y="82.00" width="4.00" height="10.00" />
      <rect x="74.00" y="82.00" width="2.00" height="10.00" />
      <rect x="80.00" y="82.00" width="2.00" height="10.00" />
      <rect x="86.00" y="82.00" width="2.00" height="20.00" />
      <rect x="96.00" y="82.00" width="4.00" height="10.00" />
      <rect x="102.00" y="82.00" width="2.00" height="10.00" />
      <rect x="112.00" y="82.00" width="8.00" height="10.00" />
      <rect x="124.00" y="82.00" width="2.00" height="10.00" />
      <rect x="130.00" y="82.00" width="4.00" height="10.00" />
      <rect x="136.00" y="82.00" width="4.00" height="10.00" />
      <rect x="144.00" y="82.00" width="4.00" height="10.00" />
      <rect x="158.00" y="82.00" width="2.00" height="20.00" />
      <rect x="162.00" y="82.00" width="4.00" height="20.00" />
      <rect x="196.00" y="82.00" width="2.00" height="10.00" />
      <rect x="200.00" y="82.00" width="2.00" height="10.00" />
      <rect x="208.00" y="82.00" width="4.00" height="10.00" />
      <rect x="64.00" y="92.00" width="2.00" height="40.00" />
      <rect x="68.00" y="92.00" width="4.00" height="10.00" />
      <rect x="76.00" y="92.00" width="6.00" height="20.00" />
      <rect x="94.00" y="92.00" width="2.00" height="20.00" />
      <rect x="102.00" y="92.00" width="4.00" height="10.00" />
      <rect x="116.00" y="92.00" width="8.00" height="20.00" />
      <rect x="126.00" y="92.00" width="2.00" height="20.00" />
      <rect x="130.00" y="92.00" width="2.00" height="50.00" />
      <rect x="140.00" y="92.00" width="2.00" height="20.00" />
      <rect x="146.00" y="92.00" width="4.00" height="10.00" />
      <rect x="174.00" y="92.00" width="2.00" height="10.00" />
      <rect x="180.00" y="92.00" width="2.00" height="10.00" />
      <rect x="190.00" y="92.00" width="4.00" height="10.00" />
      <rect x="196.00" y="92.00" width="4.00" height="10.00" />
      <rect x="202.00" y="92.00" width="4.00" height="20.00" />
      <rect x="208.00" y="92.00" width="8.00" height="10.00" />
      <rect x="70.00" y="102.00" width="4.00" height="20.00" />
      <rect x="86.00" y="102.00" width="4.00" height="10.00" />
      <rect x="98.00" y="102.00" width="2.00" height="10.00" />
      <rect x="144.00" y="102.00" width="4.00" height="10.00" />
      <rect x="152.00" y="102.00" width="4.00" height="20.00" />
      <rect x="164.00" y="102.00" width="2.00" height="10.00" />
      <rect x="170.00" y="102.00" width="2.00" height="10.00" />
      <rect x="174.00" y="102.00" width="4.00" height="30.00" />
      <rect x="180.00" y="102.00" width="4.00" height="20.00" />
      <rect x="188.00" y="102.00" width="4.00" height="20.00" />
      <rect x="196.00" y="102.00" width="2.00" height="10.00" />
      <rect x="208.00" y="102.00" width="6.00" height="10.00" />
      <rect x="78.00" y="112.00" width="6.00" height="10.00" />
      <rect x="86.00" y="112.00" width="2.00" height="10.00" />
      <rect x="94.00" y="112.00" width="4.00" height="10.00" />
      <rect x="104.00" y="112.00" width="2.00" height="30.00" />
      <rect x="108.00" y="112.00" width="4.00" height="10.00" />
      <rect x="114.00" y="112.00" width="4.00" height="10.00" />
      <rect x="122.00" y="112.00" width="4.00" height="10.00" />
      <rect x="136.00" y="112.00" width="2.00" height="10.00" />
      <rect x="146.00" y="112.00" width="4.00" height="20.00" />
      <rect x="158.00" y="112.00" width="4.00" height="20.00" />
      <rect x="164.00" y="112.00" width="8.00" height="10.00" />
      <rect x="196.00" y="112.00" width="4.00" height="10.00" />
      <rect x="204.00" y="112.00" width="2.00" height="10.00" />
      <rect x="208.00" y="112.00" width="2.00" height="10.00" />
      <rect x="68.00" y="122.00" width="6.00" height="10.00" />
      <rect x="78.00" y="122.00" width="4.00" height="10.00" />
      <rect x="86.00" y="122.00" width="4.00" height="20.00" />
      <rect x="92.00" y="122.00" width="6.00" height="20.00" />
      <rect x="108.00" y="122.00" width="2.00" height="20.00" />
      <rect x="116.00" y="122.00" width="4.00" height="10.00" />
      <rect x="122.00" y="122.00" width="2.00" height="10.00" />
      <rect x="138.00" y="122.00" width="2.00" height="10.00" />
      <rect x="152.00" y="122.00" width="2.00" height="20.00" />
      <rect x="164.00" y="122.00" width="6.00" height="10.00" />
      <rect x="184.00" y="122.00" width="2.00" height="10.00" />
      <rect x="192.00" y="122.00" width="2.00" height="10.00" />
      <rect x="196.00" y="122.00" width="2.00" height="10.00" />
      <rect x="204.00" y="122.00" width="6.00" height="10.00" />
      <rect x="212.00" y="122.00" width="4.00" height="10.00" />
      <rect x="64.00" y="132.00" width="6.00" height="10.00" />
      <rect x="74.00" y="132.00" width="2.00" height="10.00" />
      <rect x="80.00" y="132.00" width="4.00" height="10.00" />
      <rect x="112.00" y="132.00" width="6.00" height="10.00" />
      <rect x="120.00" y="132.00" width="8.00" height="10.00" />
      <rect x="134.00" y="132.00" width="8.00" height="10.00" />
      <rect x="144.00" y="132.00" width="6.00" height="10.00" />
      <rect x="162.00" y="132.00" width="2.00" height="10.00" />
      <rect x="168.00" y="132.00" width="4.00" height="10.00" />
      <rect x="174.00" y="132.00" width="2.00" height="10.00" />
      <rect x="178.00" y="132.00" width="4.00" height="10.00" />
      <rect x="188.00" y="132.00" width="2.00" height="10.00" />
      <rect x="196.00" y="132.00" width="4.00" height="10.00" />
      <rect x="204.00" y="132.00" width="2.00" height="10.00" />
      <rect x="212.00" y="132.00" width="2.00" height="10.00" />
      <rect x="42.00" y="11.00" width="176.00" height="2.00" />
      <rect x="42.00" y="21.00" width="176.00" height="2.00" />
      <rect x="42.00" y="31.00" width="176.00" height="2.00" />
      <rect x="42.00" y="41.00" width="176.00" height="2.00" />
      <rect x="42.00" y="51.00" width="176.00" height="2.00" />
      <rect x="42.00" y="61.00" width="176.00" height="2.00" />
      <rect x="42.00" y="71.00" width="176.00" height="2.00" />
      <rect x="42.00" y="81.00" width="176.00" height="2.00" />
      <rect x="42.00" y="91.00" width="176.00" height="2.00" />
      <rect x="42.00" y="101.00" width="176.00" height="2.00" />
      <rect x="42.00" y="111.00" width="176.00" height="2.00" />
      <rect x="42.00" y="121.00" width="176.00" height="2.00" />
      <rect x="42.00" y="131.00" width="176.00" height="2.00" />
      <rect x="20.00" y="0.00" width="224.00" height="2.00" />
      <rect x="20.00" y="142.00" width="224.00" height="2.00" />
   </g>
</svg>
