<?xml version="1.0" standalone="no"?>
<!DOCTYPE svg PUBLIC "-//W3C//DTD SVG 1.1//EN"
   "http://www.w3.org/Graphics/SVG/1.1/DTD/svg11.dtd">
<svg width="144" height="119" version="1.1"
   xmlns="http://www.w3.org/2000/svg">
   <desc>Zint Generated Symbol
   </desc>

   <g id="barcode" fill="#000000">
      <rect x="0" y="0" width="144" height="119" fill="#FFFFFF" />
      <rect x="0.00" y="0.00" width="2.00" height="100.00" />
      <rect x="4.00" y="0.00" width="4.00" height="100.00" />
      <rect x="12.00" y="0.00" width="2.00" height="100.00" />
      <rect x="18.00" y="0.00" width="2.00" height="100.00" />
      <rect x="22.00" y="0.00" width="4.00" height="100.00" />
      <rect x="30.00" y="0.00" width="2.00" height="100.00" />
      <rect x="34.00" y="0.00" width="2.00" height="100.00" />
      <rect x="38.00" y="0.00" width="2.00" height="100.00" />
      <rect x="42.00" y="0.00" width="2.00" height="100.00" />
      <rect x="48.00" y="0.00" width="2.00" height="100.00" />
      <rect x="52.00" y="0.00" width="4.00" height="100.00" />
      <rect x="58.00" y="0.00" width="2.00" height="100.00" />
      <rect x="62.00" y="0.00" width="2.00" height="100.00" />
      <rect x="68.00" y="0.00" width="4.00" height="100.00" />
      <rect x="74.00" y="0.00" width="2.00" height="100.00" />
      <rect x="78.00" y="0.00" width="2.00" height="100.00" />
      <rect x="82.00" y="0.00" width="4.00" height="100.00" />
      <rect x="88.00" y="0.00" width="2.00" height="100.00" />
      <rect x="92.00" y="0.00" width="2.00" height="100.00" />
      <rect x="98.00" y="0.00" width="2.00" height="100.00" />
      <rect x="102.00" y="0.00" width="4.00" height="100.00" />
      <rect x="108.00" y="0.00" width="2.00" height="100.00" />
      <rect x="114.00" y="0.00" width="2.00" height="100.00" />
      <rect x="118.00" y="0.00" width="2.00" height="100.00" />
      <rect x="122.00" y="0.00" width="2.00" height="100.00" />
      <rect x="128.00" y="0.00" width="2.00" height="100.00" />
      <rect x="134.00" y="0.00" width="2.00" height="100.00" />
      <rect x="138.00" y="0.00" width="4.00" height="100.00" />
      <text x="72.00" y="115.40" text-anchor="middle"
         font-family="Helvetica, sans-serif" font-size="14.0" >
         A37859B
      </text>
   </g>
</svg>
