<?xml version="1.0" standalone="no"?>
<!DOCTYPE svg PUBLIC "-//W3C//DTD SVG 1.1//EN" "http://www.w3.org/Graphics/SVG/1.1/DTD/svg11.dtd">
<svg width="202" height="117" version="1.1" xmlns="http://www.w3.org/2000/svg">
 <desc>Zint Generated Symbol</desc>
 <g id="barcode" fill="#000000">
  <rect x="0" y="0" width="202" height="117" fill="#FFFFFF"/>
  <path d="M0 0h4v100h-4ZM6 0h2v100h-2ZM12 0h6v100h-6ZM22 0h4v100h-4ZM30 0h4v100h-4ZM36 0h4v100h-4ZM44 0h6v100h-6ZM52 0h4v100h-4ZM58 0h6v100h-6ZM66 0h2v100h-2ZM70 0h6v100h-6ZM78 0h4v100h-4ZM88 0h2v100h-2ZM98 0h2v100h-2ZM102 0h4v100h-4ZM110 0h4v100h-4ZM116 0h4v100h-4ZM122 0h8v100h-8ZM132 0h2v100h-2ZM136 0h4v100h-4ZM144 0h6v100h-6ZM154 0h2v100h-2ZM158 0h4v100h-4ZM164 0h6v100h-6ZM176 0h4v100h-4ZM186 0h6v100h-6ZM194 0h2v100h-2ZM198 0h4v100h-4Z"/>
  <text x="101" y="113.34" text-anchor="middle" font-family="Arimo, Arial, sans-serif" font-size="14">
   012345678912
  </text>
 </g>
</svg>
