<?xml version="1.0" standalone="no"?>
<!DOCTYPE svg PUBLIC "-//W3C//DTD SVG 1.1//EN"
   "http://www.w3.org/Graphics/SVG/1.1/DTD/svg11.dtd">
<svg width="334" height="119" version="1.1"
   xmlns="http://www.w3.org/2000/svg">
   <desc>Zint Generated Symbol
   </desc>

   <g id="barcode" fill="#000000">
      <rect x="0" y="0" width="334" height="119" fill="#FFFFFF" />
      <rect x="0.00" y="0.00" width="4.00" height="100.00" />
      <rect x="6.00" y="0.00" width="2.00" height="100.00" />
      <rect x="12.00" y="0.00" width="2.00" height="100.00" />
      <rect x="22.00" y="0.00" width="2.00" height="100.00" />
      <rect x="28.00" y="0.00" width="6.00" height="100.00" />
      <rect x="36.00" y="0.00" width="4.00" height="100.00" />
      <rect x="44.00" y="0.00" width="2.00" height="100.00" />
      <rect x="50.00" y="0.00" width="6.00" height="100.00" />
      <rect x="60.00" y="0.00" width="4.00" height="100.00" />
      <rect x="66.00" y="0.00" width="4.00" height="100.00" />
      <rect x="74.00" y="0.00" width="6.00" height="100.00" />
      <rect x="84.00" y="0.00" width="2.00" height="100.00" />
      <rect x="88.00" y="0.00" width="4.00" height="100.00" />
      <rect x="96.00" y="0.00" width="2.00" height="100.00" />
      <rect x="100.00" y="0.00" width="6.00" height="100.00" />
      <rect x="110.00" y="0.00" width="4.00" height="100.00" />
      <rect x="118.00" y="0.00" width="2.00" height="100.00" />
      <rect x="124.00" y="0.00" width="6.00" height="100.00" />
      <rect x="132.00" y="0.00" width="4.00" height="100.00" />
      <rect x="138.00" y="0.00" width="6.00" height="100.00" />
      <rect x="148.00" y="0.00" width="2.00" height="100.00" />
      <rect x="154.00" y="0.00" width="4.00" height="100.00" />
      <rect x="162.00" y="0.00" width="6.00" height="100.00" />
      <rect x="170.00" y="0.00" width="2.00" height="100.00" />
      <rect x="176.00" y="0.00" width="6.00" height="100.00" />
      <rect x="184.00" y="0.00" width="4.00" height="100.00" />
      <rect x="190.00" y="0.00" width="6.00" height="100.00" />
      <rect x="198.00" y="0.00" width="6.00" height="100.00" />
      <rect x="206.00" y="0.00" width="2.00" height="100.00" />
      <rect x="212.00" y="0.00" width="4.00" height="100.00" />
      <rect x="220.00" y="0.00" width="6.00" height="100.00" />
      <rect x="230.00" y="0.00" width="2.00" height="100.00" />
      <rect x="234.00" y="0.00" width="4.00" height="100.00" />
      <rect x="242.00" y="0.00" width="2.00" height="100.00" />
      <rect x="248.00" y="0.00" width="6.00" height="100.00" />
      <rect x="258.00" y="0.00" width="4.00" height="100.00" />
      <rect x="264.00" y="0.00" width="4.00" height="100.00" />
      <rect x="272.00" y="0.00" width="6.00" height="100.00" />
      <rect x="282.00" y="0.00" width="2.00" height="100.00" />
      <rect x="286.00" y="0.00" width="2.00" height="100.00" />
      <rect x="290.00" y="0.00" width="4.00" height="100.00" />
      <rect x="298.00" y="0.00" width="2.00" height="100.00" />
      <rect x="308.00" y="0.00" width="4.00" height="100.00" />
      <rect x="318.00" y="0.00" width="6.00" height="100.00" />
      <rect x="326.00" y="0.00" width="2.00" height="100.00" />
      <rect x="330.00" y="0.00" width="4.00" height="100.00" />
      <text x="167.00" y="115.40" text-anchor="middle"
         font-family="Helvetica, sans-serif" font-size="14.0" >
         012345678912
      </text>
   </g>
</svg>
