<?xml version="1.0" standalone="no"?>
<!DOCTYPE svg PUBLIC "-//W3C//DTD SVG 1.1//EN" "http://www.w3.org/Graphics/SVG/1.1/DTD/svg11.dtd">
<svg width="162" height="44" version="1.1" xmlns="http://www.w3.org/2000/svg">
 <desc>Zint Generated Symbol</desc>
 <g id="barcode" fill="#000000">
  <rect x="0" y="0" width="162" height="44" fill="#FFFFFF"/>
  <path d="M20 2h6v19h-6ZM30 2h2v19h-2ZM34 2h2v19h-2ZM40 2h4v19h-4ZM48 2h4v19h-4ZM56 2h2v19h-2ZM62 2h4v19h-4ZM70 2h2v19h-2ZM76 2h4v19h-4ZM86 2h2v19h-2ZM92 2h2v19h-2ZM100 2h2v19h-2ZM104 2h2v19h-2ZM112 2h2v19h-2ZM118 2h6v19h-6ZM126 2h8v19h-8ZM136 2h2v19h-2ZM142 2h4v19h-4ZM152 2h4v19h-4ZM158 2h2v19h-2ZM20 23h4v19h-4ZM28 23h4v19h-4ZM34 23h2v19h-2ZM40 23h2v19h-2ZM46 23h2v19h-2ZM56 23h2v19h-2ZM60 23h2v19h-2ZM66 23h4v19h-4ZM76 23h4v19h-4ZM84 23h2v19h-2ZM88 23h8v19h-8ZM98 23h4v19h-4ZM106 23h4v19h-4ZM116 23h4v19h-4ZM122 23h2v19h-2ZM128 23h2v19h-2ZM136 23h6v19h-6ZM144 23h2v19h-2ZM150 23h4v19h-4ZM158 23h2v19h-2ZM20 21h140v2h-140ZM0 0h162v2h-162ZM0 42h162v2h-162Z"/>
 </g>
</svg>
