<?xml version="1.0" standalone="no"?>
<!DOCTYPE svg PUBLIC "-//W3C//DTD SVG 1.1//EN"
   "http://www.w3.org/Graphics/SVG/1.1/DTD/svg11.dtd">
<svg width="206" height="119" version="1.1"
   xmlns="http://www.w3.org/2000/svg">
   <desc>Zint Generated Symbol
   </desc>

   <g id="barcode" fill="#000000">
      <rect x="0" y="0" width="206" height="119" fill="#FFFFFF" />
      <rect x="0.00" y="0.00" width="2.00" height="100.00" />
      <rect x="6.00" y="0.00" width="2.00" height="100.00" />
      <rect x="10.00" y="0.00" width="4.00" height="100.00" />
      <rect x="16.00" y="0.00" width="4.00" height="100.00" />
      <rect x="22.00" y="0.00" width="2.00" height="100.00" />
      <rect x="26.00" y="0.00" width="2.00" height="100.00" />
      <rect x="30.00" y="0.00" width="2.00" height="100.00" />
      <rect x="36.00" y="0.00" width="4.00" height="100.00" />
      <rect x="42.00" y="0.00" width="4.00" height="100.00" />
      <rect x="48.00" y="0.00" width="2.00" height="100.00" />
      <rect x="52.00" y="0.00" width="4.00" height="100.00" />
      <rect x="58.00" y="0.00" width="4.00" height="100.00" />
      <rect x="64.00" y="0.00" width="2.00" height="100.00" />
      <rect x="70.00" y="0.00" width="2.00" height="100.00" />
      <rect x="74.00" y="0.00" width="2.00" height="100.00" />
      <rect x="78.00" y="0.00" width="2.00" height="100.00" />
      <rect x="82.00" y="0.00" width="4.00" height="100.00" />
      <rect x="88.00" y="0.00" width="2.00" height="100.00" />
      <rect x="92.00" y="0.00" width="4.00" height="100.00" />
      <rect x="100.00" y="0.00" width="2.00" height="100.00" />
      <rect x="104.00" y="0.00" width="2.00" height="100.00" />
      <rect x="108.00" y="0.00" width="4.00" height="100.00" />
      <rect x="114.00" y="0.00" width="2.00" height="100.00" />
      <rect x="118.00" y="0.00" width="4.00" height="100.00" />
      <rect x="126.00" y="0.00" width="2.00" height="100.00" />
      <rect x="130.00" y="0.00" width="2.00" height="100.00" />
      <rect x="134.00" y="0.00" width="4.00" height="100.00" />
      <rect x="140.00" y="0.00" width="2.00" height="100.00" />
      <rect x="146.00" y="0.00" width="2.00" height="100.00" />
      <rect x="150.00" y="0.00" width="4.00" height="100.00" />
      <rect x="156.00" y="0.00" width="2.00" height="100.00" />
      <rect x="160.00" y="0.00" width="2.00" height="100.00" />
      <rect x="164.00" y="0.00" width="4.00" height="100.00" />
      <rect x="172.00" y="0.00" width="2.00" height="100.00" />
      <rect x="176.00" y="0.00" width="4.00" height="100.00" />
      <rect x="182.00" y="0.00" width="2.00" height="100.00" />
      <rect x="188.00" y="0.00" width="2.00" height="100.00" />
      <rect x="192.00" y="0.00" width="4.00" height="100.00" />
      <rect x="198.00" y="0.00" width="4.00" height="100.00" />
      <rect x="204.00" y="0.00" width="2.00" height="100.00" />
      <text x="103.00" y="115.40" text-anchor="middle"
         font-family="Helvetica, sans-serif" font-size="14.0" >
         A012345676
      </text>
   </g>
</svg>
