<?xml version="1.0" standalone="no"?>
<!DOCTYPE svg PUBLIC "-//W3C//DTD SVG 1.1//EN" "http://www.w3.org/Graphics/SVG/1.1/DTD/svg11.dtd">
<svg width="250" height="117" version="1.1" xmlns="http://www.w3.org/2000/svg">
 <desc>Zint Generated Symbol</desc>
 <g id="barcode" fill="#000000">
  <rect x="0" y="0" width="250" height="117" fill="#FFFFFF"/>
  <path d="M0 0h2v100h-2ZM4 0h4v100h-4ZM12 0h2v100h-2ZM16 0h2v100h-2ZM20 0h2v100h-2ZM24 0h4v100h-4ZM30 0h4v100h-4ZM36 0h2v100h-2ZM40 0h4v100h-4ZM46 0h2v100h-2ZM52 0h2v100h-2ZM56 0h4v100h-4ZM62 0h4v100h-4ZM70 0h2v100h-2ZM74 0h2v100h-2ZM78 0h2v100h-2ZM82 0h4v100h-4ZM88 0h4v100h-4ZM94 0h4v100h-4ZM100 0h4v100h-4ZM106 0h2v100h-2ZM110 0h2v100h-2ZM116 0h4v100h-4ZM122 0h2v100h-2ZM126 0h2v100h-2ZM130 0h2v100h-2ZM136 0h4v100h-4ZM142 0h4v100h-4ZM148 0h2v100h-2ZM154 0h2v100h-2ZM158 0h4v100h-4ZM164 0h2v100h-2ZM168 0h2v100h-2ZM172 0h4v100h-4ZM178 0h2v100h-2ZM182 0h4v100h-4ZM188 0h2v100h-2ZM194 0h2v100h-2ZM198 0h4v100h-4ZM204 0h2v100h-2ZM208 0h2v100h-2ZM214 0h4v100h-4ZM220 0h2v100h-2ZM224 0h2v100h-2ZM230 0h4v100h-4ZM236 0h2v100h-2ZM240 0h4v100h-4ZM248 0h2v100h-2Z"/>
  <text x="125" y="113.34" text-anchor="middle" font-family="Arimo, Arial, sans-serif" font-size="14">
   01234567891277
  </text>
 </g>
</svg>
