<?xml version="1.0" standalone="no"?>
<!DOCTYPE svg PUBLIC "-//W3C//DTD SVG 1.1//EN"
   "http://www.w3.org/Graphics/SVG/1.1/DTD/svg11.dtd">
<svg width="162" height="44" version="1.1"
   xmlns="http://www.w3.org/2000/svg">
   <desc>Zint Generated Symbol
   </desc>

   <g id="barcode" fill="#000000">
      <rect x="0" y="0" width="162" height="44" fill="#FFFFFF" />
      <rect x="20.00" y="2.00" width="2.00" height="19.00" />
      <rect x="24.00" y="2.00" width="2.00" height="19.00" />
      <rect x="32.00" y="2.00" width="4.00" height="19.00" />
      <rect x="40.00" y="2.00" width="2.00" height="19.00" />
      <rect x="44.00" y="2.00" width="2.00" height="19.00" />
      <rect x="56.00" y="2.00" width="10.00" height="19.00" />
      <rect x="68.00" y="2.00" width="4.00" height="19.00" />
      <rect x="74.00" y="2.00" width="4.00" height="19.00" />
      <rect x="82.00" y="2.00" width="2.00" height="19.00" />
      <rect x="88.00" y="2.00" width="2.00" height="19.00" />
      <rect x="94.00" y="2.00" width="6.00" height="19.00" />
      <rect x="102.00" y="2.00" width="8.00" height="19.00" />
      <rect x="112.00" y="2.00" width="4.00" height="19.00" />
      <rect x="120.00" y="2.00" width="2.00" height="19.00" />
      <rect x="124.00" y="2.00" width="4.00" height="19.00" />
      <rect x="132.00" y="2.00" width="10.00" height="19.00" />
      <rect x="146.00" y="2.00" width="2.00" height="19.00" />
      <rect x="152.00" y="2.00" width="8.00" height="19.00" />
      <rect x="20.00" y="23.00" width="2.00" height="19.00" />
      <rect x="24.00" y="23.00" width="10.00" height="19.00" />
      <rect x="36.00" y="23.00" width="2.00" height="19.00" />
      <rect x="40.00" y="23.00" width="6.00" height="19.00" />
      <rect x="48.00" y="23.00" width="6.00" height="19.00" />
      <rect x="56.00" y="23.00" width="2.00" height="19.00" />
      <rect x="62.00" y="23.00" width="2.00" height="19.00" />
      <rect x="72.00" y="23.00" width="4.00" height="19.00" />
      <rect x="78.00" y="23.00" width="8.00" height="19.00" />
      <rect x="88.00" y="23.00" width="2.00" height="19.00" />
      <rect x="92.00" y="23.00" width="4.00" height="19.00" />
      <rect x="98.00" y="23.00" width="4.00" height="19.00" />
      <rect x="108.00" y="23.00" width="6.00" height="19.00" />
      <rect x="120.00" y="23.00" width="2.00" height="19.00" />
      <rect x="124.00" y="23.00" width="6.00" height="19.00" />
      <rect x="132.00" y="23.00" width="6.00" height="19.00" />
      <rect x="140.00" y="23.00" width="6.00" height="19.00" />
      <rect x="152.00" y="23.00" width="8.00" height="19.00" />
      <rect x="20.00" y="21.00" width="140.00" height="2.00" />
      <rect x="0.00" y="0.00" width="162.00" height="2.00" />
      <rect x="0.00" y="42.00" width="162.00" height="2.00" />
   </g>
</svg>
