<?xml version="1.0" standalone="no"?>
<!DOCTYPE svg PUBLIC "-//W3C//DTD SVG 1.1//EN"
   "http://www.w3.org/Graphics/SVG/1.1/DTD/svg11.dtd">
<svg width="250" height="119" version="1.1"
   xmlns="http://www.w3.org/2000/svg">
   <desc>Zint Generated Symbol
   </desc>

   <g id="barcode" fill="#000000">
      <rect x="0" y="0" width="250" height="119" fill="#FFFFFF" />
      <rect x="0.00" y="0.00" width="2.00" height="100.00" />
      <rect x="4.00" y="0.00" width="4.00" height="100.00" />
      <rect x="12.00" y="0.00" width="2.00" height="100.00" />
      <rect x="16.00" y="0.00" width="2.00" height="100.00" />
      <rect x="20.00" y="0.00" width="2.00" height="100.00" />
      <rect x="24.00" y="0.00" width="4.00" height="100.00" />
      <rect x="30.00" y="0.00" width="4.00" height="100.00" />
      <rect x="36.00" y="0.00" width="2.00" height="100.00" />
      <rect x="40.00" y="0.00" width="4.00" height="100.00" />
      <rect x="46.00" y="0.00" width="2.00" height="100.00" />
      <rect x="52.00" y="0.00" width="2.00" height="100.00" />
      <rect x="56.00" y="0.00" width="4.00" height="100.00" />
      <rect x="62.00" y="0.00" width="4.00" height="100.00" />
      <rect x="70.00" y="0.00" width="2.00" height="100.00" />
      <rect x="74.00" y="0.00" width="2.00" height="100.00" />
      <rect x="78.00" y="0.00" width="2.00" height="100.00" />
      <rect x="82.00" y="0.00" width="4.00" height="100.00" />
      <rect x="88.00" y="0.00" width="4.00" height="100.00" />
      <rect x="94.00" y="0.00" width="4.00" height="100.00" />
      <rect x="100.00" y="0.00" width="4.00" height="100.00" />
      <rect x="106.00" y="0.00" width="2.00" height="100.00" />
      <rect x="110.00" y="0.00" width="2.00" height="100.00" />
      <rect x="116.00" y="0.00" width="4.00" height="100.00" />
      <rect x="122.00" y="0.00" width="2.00" height="100.00" />
      <rect x="126.00" y="0.00" width="2.00" height="100.00" />
      <rect x="130.00" y="0.00" width="2.00" height="100.00" />
      <rect x="136.00" y="0.00" width="4.00" height="100.00" />
      <rect x="142.00" y="0.00" width="4.00" height="100.00" />
      <rect x="148.00" y="0.00" width="2.00" height="100.00" />
      <rect x="154.00" y="0.00" width="2.00" height="100.00" />
      <rect x="158.00" y="0.00" width="4.00" height="100.00" />
      <rect x="164.00" y="0.00" width="2.00" height="100.00" />
      <rect x="168.00" y="0.00" width="2.00" height="100.00" />
      <rect x="172.00" y="0.00" width="4.00" height="100.00" />
      <rect x="178.00" y="0.00" width="2.00" height="100.00" />
      <rect x="182.00" y="0.00" width="4.00" height="100.00" />
      <rect x="188.00" y="0.00" width="2.00" height="100.00" />
      <rect x="194.00" y="0.00" width="2.00" height="100.00" />
      <rect x="198.00" y="0.00" width="4.00" height="100.00" />
      <rect x="204.00" y="0.00" width="2.00" height="100.00" />
      <rect x="208.00" y="0.00" width="2.00" height="100.00" />
      <rect x="214.00" y="0.00" width="4.00" height="100.00" />
      <rect x="220.00" y="0.00" width="2.00" height="100.00" />
      <rect x="224.00" y="0.00" width="2.00" height="100.00" />
      <rect x="230.00" y="0.00" width="4.00" height="100.00" />
      <rect x="236.00" y="0.00" width="2.00" height="100.00" />
      <rect x="240.00" y="0.00" width="4.00" height="100.00" />
      <rect x="248.00" y="0.00" width="2.00" height="100.00" />
      <text x="125.00" y="115.40" text-anchor="middle"
         font-family="Helvetica, sans-serif" font-size="14.0" >
         01234567891277
      </text>
   </g>
</svg>
