<?xml version="1.0" standalone="no"?>
<!DOCTYPE svg PUBLIC "-//W3C//DTD SVG 1.1//EN" "http://www.w3.org/Graphics/SVG/1.1/DTD/svg11.dtd">
<svg width="162" height="44" version="1.1" xmlns="http://www.w3.org/2000/svg">
 <desc>Zint Generated Symbol</desc>
 <g id="barcode" fill="#000000">
  <rect x="0" y="0" width="162" height="44" fill="#FFFFFF"/>
  <path d="M20 2h2v19h-2ZM24 2h2v19h-2ZM32 2h4v19h-4ZM40 2h2v19h-2ZM44 2h2v19h-2ZM56 2h10v19h-10ZM68 2h4v19h-4ZM74 2h4v19h-4ZM82 2h2v19h-2ZM88 2h2v19h-2ZM94 2h6v19h-6ZM102 2h8v19h-8ZM112 2h4v19h-4ZM120 2h2v19h-2ZM124 2h4v19h-4ZM132 2h10v19h-10ZM146 2h2v19h-2ZM152 2h8v19h-8ZM20 23h2v19h-2ZM24 23h10v19h-10ZM36 23h2v19h-2ZM40 23h6v19h-6ZM48 23h6v19h-6ZM56 23h2v19h-2ZM62 23h2v19h-2ZM72 23h4v19h-4ZM78 23h8v19h-8ZM88 23h2v19h-2ZM92 23h4v19h-4ZM98 23h4v19h-4ZM108 23h6v19h-6ZM120 23h2v19h-2ZM124 23h6v19h-6ZM132 23h6v19h-6ZM140 23h6v19h-6ZM152 23h8v19h-8ZM20 21h140v2h-140ZM0 0h162v2h-162ZM0 42h162v2h-162Z"/>
 </g>
</svg>
