<?xml version="1.0" standalone="no"?>
<!DOCTYPE svg PUBLIC "-//W3C//DTD SVG 1.1//EN" "http://www.w3.org/Graphics/SVG/1.1/DTD/svg11.dtd">
<svg width="334" height="117" version="1.1" xmlns="http://www.w3.org/2000/svg">
 <desc>Zint Generated Symbol</desc>
 <g id="barcode" fill="#000000">
  <rect x="0" y="0" width="334" height="117" fill="#FFFFFF"/>
  <path d="M0 0h4v100h-4ZM6 0h2v100h-2ZM12 0h2v100h-2ZM22 0h2v100h-2ZM28 0h6v100h-6ZM36 0h4v100h-4ZM44 0h2v100h-2ZM50 0h6v100h-6ZM60 0h4v100h-4ZM66 0h4v100h-4ZM74 0h6v100h-6ZM84 0h2v100h-2ZM88 0h4v100h-4ZM96 0h2v100h-2ZM100 0h6v100h-6ZM110 0h4v100h-4ZM118 0h2v100h-2ZM124 0h6v100h-6ZM132 0h4v100h-4ZM138 0h6v100h-6ZM148 0h2v100h-2ZM154 0h4v100h-4ZM162 0h6v100h-6ZM170 0h2v100h-2ZM176 0h6v100h-6ZM184 0h4v100h-4ZM190 0h6v100h-6ZM198 0h6v100h-6ZM206 0h2v100h-2ZM212 0h4v100h-4ZM220 0h6v100h-6ZM230 0h2v100h-2ZM234 0h4v100h-4ZM242 0h2v100h-2ZM248 0h6v100h-6ZM258 0h4v100h-4ZM264 0h4v100h-4ZM272 0h6v100h-6ZM282 0h2v100h-2ZM286 0h2v100h-2ZM290 0h4v100h-4ZM298 0h2v100h-2ZM308 0h4v100h-4ZM318 0h6v100h-6ZM326 0h2v100h-2ZM330 0h4v100h-4Z"/>
  <text x="167" y="113.34" text-anchor="middle" font-family="Arimo, Arial, sans-serif" font-size="14">
   012345678912
  </text>
 </g>
</svg>
