<?xml version="1.0" standalone="no"?>
<!DOCTYPE svg PUBLIC "-//W3C//DTD SVG 1.1//EN"
   "http://www.w3.org/Graphics/SVG/1.1/DTD/svg11.dtd">
<svg width="290" height="119" version="1.1"
   xmlns="http://www.w3.org/2000/svg">
   <desc>Zint Generated Symbol
   </desc>

   <g id="barcode" fill="#000000">
      <rect x="0" y="0" width="290" height="119" fill="#FFFFFF" />
      <rect x="0.00" y="0.00" width="2.00" height="100.00" />
      <rect x="4.00" y="0.00" width="2.00" height="100.00" />
      <rect x="8.00" y="0.00" width="8.00" height="100.00" />
      <rect x="18.00" y="0.00" width="2.00" height="100.00" />
      <rect x="26.00" y="0.00" width="2.00" height="100.00" />
      <rect x="30.00" y="0.00" width="2.00" height="100.00" />
      <rect x="36.00" y="0.00" width="2.00" height="100.00" />
      <rect x="40.00" y="0.00" width="2.00" height="100.00" />
      <rect x="46.00" y="0.00" width="2.00" height="100.00" />
      <rect x="54.00" y="0.00" width="2.00" height="100.00" />
      <rect x="58.00" y="0.00" width="2.00" height="100.00" />
      <rect x="66.00" y="0.00" width="2.00" height="100.00" />
      <rect x="72.00" y="0.00" width="2.00" height="100.00" />
      <rect x="76.00" y="0.00" width="2.00" height="100.00" />
      <rect x="86.00" y="0.00" width="2.00" height="100.00" />
      <rect x="90.00" y="0.00" width="2.00" height="100.00" />
      <rect x="96.00" y="0.00" width="2.00" height="100.00" />
      <rect x="100.00" y="0.00" width="2.00" height="100.00" />
      <rect x="108.00" y="0.00" width="2.00" height="100.00" />
      <rect x="114.00" y="0.00" width="2.00" height="100.00" />
      <rect x="120.00" y="0.00" width="2.00" height="100.00" />
      <rect x="126.00" y="0.00" width="2.00" height="100.00" />
      <rect x="132.00" y="0.00" width="2.00" height="100.00" />
      <rect x="140.00" y="0.00" width="2.00" height="100.00" />
      <rect x="144.00" y="0.00" width="2.00" height="100.00" />
      <rect x="148.00" y="0.00" width="2.00" height="100.00" />
      <rect x="152.00" y="0.00" width="2.00" height="100.00" />
      <rect x="162.00" y="0.00" width="2.00" height="100.00" />
      <rect x="170.00" y="0.00" width="2.00" height="100.00" />
      <rect x="176.00" y="0.00" width="2.00" height="100.00" />
      <rect x="180.00" y="0.00" width="2.00" height="100.00" />
      <rect x="190.00" y="0.00" width="2.00" height="100.00" />
      <rect x="194.00" y="0.00" width="2.00" height="100.00" />
      <rect x="198.00" y="0.00" width="2.00" height="100.00" />
      <rect x="202.00" y="0.00" width="2.00" height="100.00" />
      <rect x="208.00" y="0.00" width="2.00" height="100.00" />
      <rect x="216.00" y="0.00" width="2.00" height="100.00" />
      <rect x="220.00" y="0.00" width="2.00" height="100.00" />
      <rect x="228.00" y="0.00" width="2.00" height="100.00" />
      <rect x="234.00" y="0.00" width="2.00" height="100.00" />
      <rect x="240.00" y="0.00" width="2.00" height="100.00" />
      <rect x="244.00" y="0.00" width="4.00" height="100.00" />
      <rect x="252.00" y="0.00" width="2.00" height="100.00" />
      <rect x="256.00" y="0.00" width="2.00" height="100.00" />
      <rect x="264.00" y="0.00" width="2.00" height="100.00" />
      <rect x="270.00" y="0.00" width="2.00" height="100.00" />
      <rect x="274.00" y="0.00" width="2.00" height="100.00" />
      <rect x="278.00" y="0.00" width="8.00" height="100.00" />
      <rect x="288.00" y="0.00" width="2.00" height="100.00" />
      <text x="145.00" y="115.40" text-anchor="middle"
         font-family="Helvetica, sans-serif" font-size="14.0" >
         012345678912O2
      </text>
   </g>
</svg>
