<?xml version="1.0" standalone="no"?>
<!DOCTYPE svg PUBLIC "-//W3C//DTD SVG 1.1//EN" "http://www.w3.org/Graphics/SVG/1.1/DTD/svg11.dtd">
<svg width="290" height="117" version="1.1" xmlns="http://www.w3.org/2000/svg">
 <desc>Zint Generated Symbol</desc>
 <g id="barcode" fill="#000000">
  <rect x="0" y="0" width="290" height="117" fill="#FFFFFF"/>
  <path d="M0 0h2v100h-2ZM4 0h2v100h-2ZM8 0h8v100h-8ZM18 0h2v100h-2ZM26 0h2v100h-2ZM30 0h2v100h-2ZM36 0h2v100h-2ZM40 0h2v100h-2ZM46 0h2v100h-2ZM54 0h2v100h-2ZM58 0h2v100h-2ZM66 0h2v100h-2ZM72 0h2v100h-2ZM76 0h2v100h-2ZM86 0h2v100h-2ZM90 0h2v100h-2ZM96 0h2v100h-2ZM100 0h2v100h-2ZM108 0h2v100h-2ZM114 0h2v100h-2ZM120 0h2v100h-2ZM126 0h2v100h-2ZM132 0h2v100h-2ZM140 0h2v100h-2ZM144 0h2v100h-2ZM148 0h2v100h-2ZM152 0h2v100h-2ZM162 0h2v100h-2ZM170 0h2v100h-2ZM176 0h2v100h-2ZM180 0h2v100h-2ZM190 0h2v100h-2ZM194 0h2v100h-2ZM198 0h2v100h-2ZM202 0h2v100h-2ZM208 0h2v100h-2ZM216 0h2v100h-2ZM220 0h2v100h-2ZM228 0h2v100h-2ZM234 0h2v100h-2ZM240 0h2v100h-2ZM244 0h4v100h-4ZM252 0h2v100h-2ZM256 0h2v100h-2ZM264 0h2v100h-2ZM270 0h2v100h-2ZM274 0h2v100h-2ZM278 0h8v100h-8ZM288 0h2v100h-2Z"/>
  <text x="145" y="113.34" text-anchor="middle" font-family="Arimo, Arial, sans-serif" font-size="14">
   012345678912
  </text>
 </g>
</svg>
