<?xml version="1.0" standalone="no"?>
<!DOCTYPE svg PUBLIC "-//W3C//DTD SVG 1.1//EN" "http://www.w3.org/Graphics/SVG/1.1/DTD/svg11.dtd">
<svg width="36" height="36" version="1.1" xmlns="http://www.w3.org/2000/svg">
 <desc>Zint Generated Symbol</desc>
 <g id="barcode" fill="#000000">
  <rect x="0" y="0" width="36" height="36" fill="#FFFFFF"/>
  <path d="M0 0h2v16h-2ZM4 0h2v2h-2ZM8 0h2v2h-2ZM12 0h2v2h-2ZM16 0h2v2h-2ZM20 0h2v2h-2ZM24 0h2v2h-2ZM28 0h2v2h-2ZM32 0h2v2h-2ZM4 2h4v2h-4ZM16 2h4v2h-4ZM22 2h4v4h-4ZM30 2h2v2h-2ZM34 2h2v2h-2ZM10 4h6v2h-6ZM28 4h2v4h-2ZM32 4h2v2h-2ZM4 6h2v2h-2ZM10 6h2v2h-2ZM14 6h2v2h-2ZM20 6h4v2h-4ZM34 6h2v2h-2ZM6 8h2v2h-2ZM10 8h4v2h-4ZM16 8h2v2h-2ZM20 8h2v4h-2ZM26 8h2v2h-2ZM30 8h4v2h-4ZM8 10h2v2h-2ZM12 10h6v2h-6ZM26 10h4v2h-4ZM34 10h2v2h-2ZM4 12h6v2h-6ZM12 12h2v2h-2ZM16 12h2v2h-2ZM22 12h6v2h-6ZM30 12h4v2h-4ZM4 14h2v2h-2ZM10 14h6v2h-6ZM24 14h8v2h-8ZM34 14h2v2h-2ZM0 16h4v4h-4ZM6 16h4v2h-4ZM20 16h4v2h-4ZM32 16h2v2h-2ZM12 18h2v4h-2ZM16 18h20v2h-20ZM0 20h10v2h-10ZM16 20h2v2h-2ZM24 20h4v2h-4ZM32 20h2v2h-2ZM0 22h2v6h-2ZM4 22h2v4h-2ZM8 22h12v2h-12ZM22 22h4v2h-4ZM28 22h4v2h-4ZM34 22h2v2h-2ZM8 24h4v2h-4ZM14 24h2v2h-2ZM26 24h6v2h-6ZM8 26h6v2h-6ZM20 26h6v2h-6ZM30 26h2v2h-2ZM34 26h2v2h-2ZM0 28h8v2h-8ZM12 28h4v2h-4ZM20 28h4v2h-4ZM30 28h4v2h-4ZM0 30h4v2h-4ZM8 30h2v2h-2ZM16 30h2v2h-2ZM22 30h2v2h-2ZM26 30h2v2h-2ZM30 30h6v2h-6ZM0 32h6v2h-6ZM14 32h6v2h-6ZM26 32h4v2h-4ZM32 32h2v2h-2ZM0 34h36v2h-36Z"/>
 </g>
</svg>
