<?xml version="1.0" standalone="no"?>
<!DOCTYPE svg PUBLIC "-//W3C//DTD SVG 1.1//EN" "http://www.w3.org/Graphics/SVG/1.1/DTD/svg11.dtd">
<svg width="52" height="52" version="1.1" xmlns="http://www.w3.org/2000/svg">
 <desc>Zint Generated Symbol</desc>
 <g id="barcode" fill="#000000">
  <rect x="0" y="0" width="52" height="52" fill="#FFFFFF"/>
  <path d="M0 0h2v6h-2ZM4 0h2v4h-2ZM8 0h2v4h-2ZM12 0h2v2h-2ZM16 0h2v2h-2ZM20 0h2v2h-2ZM24 0h2v2h-2ZM28 0h2v2h-2ZM32 0h2v4h-2ZM36 0h2v4h-2ZM40 0h2v2h-2ZM44 0h2v2h-2ZM48 0h2v2h-2ZM14 2h2v2h-2ZM18 2h2v2h-2ZM22 2h2v2h-2ZM48 2h4v2h-4ZM14 4h4v2h-4ZM20 4h6v2h-6ZM28 4h2v2h-2ZM36 4h4v2h-4ZM0 6h6v2h-6ZM8 6h4v2h-4ZM16 6h2v2h-2ZM22 6h6v2h-6ZM30 6h4v2h-4ZM36 6h2v4h-2ZM42 6h4v2h-4ZM48 6h4v2h-4ZM0 8h2v2h-2ZM8 8h2v2h-2ZM14 8h2v4h-2ZM20 8h8v2h-8ZM40 8h6v2h-6ZM0 10h4v2h-4ZM20 10h2v2h-2ZM24 10h2v2h-2ZM32 10h8v2h-8ZM42 10h2v2h-2ZM46 10h2v2h-2ZM50 10h2v2h-2ZM0 12h2v14h-2ZM6 12h2v2h-2ZM12 12h6v2h-6ZM20 12h8v2h-8ZM30 12h2v4h-2ZM34 12h4v2h-4ZM40 12h2v2h-2ZM4 14h4v6h-4ZM22 14h2v2h-2ZM26 14h2v2h-2ZM36 14h4v2h-4ZM42 14h10v2h-10ZM16 16h4v2h-4ZM24 16h2v2h-2ZM28 16h6v2h-6ZM38 16h2v2h-2ZM42 16h2v2h-2ZM48 16h2v2h-2ZM14 18h6v2h-6ZM22 18h4v2h-4ZM28 18h2v2h-2ZM36 18h6v2h-6ZM48 18h4v2h-4ZM4 20h2v4h-2ZM8 20h2v2h-2ZM14 20h4v2h-4ZM26 20h2v2h-2ZM30 20h2v2h-2ZM34 20h4v2h-4ZM40 20h2v2h-2ZM44 20h4v2h-4ZM8 22h4v2h-4ZM22 22h10v2h-10ZM36 22h2v2h-2ZM42 22h2v2h-2ZM46 22h6v2h-6ZM6 24h2v2h-2ZM14 24h2v2h-2ZM28 24h4v2h-4ZM36 24h4v2h-4ZM42 24h6v2h-6ZM0 26h4v2h-4ZM18 26h2v2h-2ZM22 26h2v2h-2ZM26 26h4v2h-4ZM32 26h4v2h-4ZM40 26h4v2h-4ZM46 26h6v2h-6ZM0 28h12v2h-12ZM16 28h2v2h-2ZM24 28h2v2h-2ZM28 28h2v2h-2ZM32 28h10v2h-10ZM44 28h2v2h-2ZM48 28h2v2h-2ZM0 30h6v2h-6ZM14 30h4v2h-4ZM36 30h4v2h-4ZM46 30h2v2h-2ZM50 30h2v2h-2ZM0 32h2v2h-2ZM4 32h2v2h-2ZM16 32h6v2h-6ZM24 32h4v2h-4ZM32 32h4v4h-4ZM48 32h2v2h-2ZM0 34h4v8h-4ZM10 34h10v2h-10ZM24 34h2v2h-2ZM38 34h10v2h-10ZM50 34h2v2h-2ZM6 36h10v2h-10ZM18 36h6v2h-6ZM26 36h4v2h-4ZM32 36h2v2h-2ZM36 36h4v2h-4ZM42 36h2v2h-2ZM48 36h2v2h-2ZM10 38h2v2h-2ZM14 38h4v2h-4ZM20 38h10v2h-10ZM32 38h16v2h-16ZM50 38h2v2h-2ZM6 40h4v2h-4ZM14 40h2v2h-2ZM20 40h2v2h-2ZM24 40h4v2h-4ZM32 40h4v2h-4ZM38 40h4v2h-4ZM0 42h2v2h-2ZM4 42h2v2h-2ZM8 42h2v2h-2ZM12 42h6v2h-6ZM22 42h4v2h-4ZM30 42h2v2h-2ZM40 42h2v2h-2ZM44 42h2v2h-2ZM48 42h4v2h-4ZM0 44h4v2h-4ZM6 44h6v2h-6ZM16 44h6v2h-6ZM24 44h2v2h-2ZM40 44h4v2h-4ZM46 44h4v2h-4ZM0 46h6v2h-6ZM8 46h2v2h-2ZM16 46h2v4h-2ZM20 46h4v2h-4ZM26 46h2v2h-2ZM30 46h4v2h-4ZM38 46h6v2h-6ZM48 46h4v2h-4ZM0 48h4v2h-4ZM20 48h2v2h-2ZM36 48h6v2h-6ZM44 48h2v2h-2ZM0 50h52v2h-52Z"/>
 </g>
</svg>
