<?xml version="1.0" standalone="no"?>
<!DOCTYPE svg PUBLIC "-//W3C//DTD SVG 1.1//EN"
   "http://www.w3.org/Graphics/SVG/1.1/DTD/svg11.dtd">
<svg width="100" height="138" version="1.1"
   xmlns="http://www.w3.org/2000/svg">
   <desc>Zint Generated Symbol
   </desc>

   <g id="barcode" fill="#000000">
      <rect x="0" y="0" width="100" height="138" fill="#FFFFFF" />
      <rect x="2.00" y="0.00" width="2.00" height="31.50" />
      <rect x="14.00" y="0.00" width="2.00" height="31.50" />
      <rect x="18.00" y="0.00" width="2.00" height="31.50" />
      <rect x="30.00" y="0.00" width="2.00" height="31.50" />
      <rect x="34.00" y="0.00" width="2.00" height="31.50" />
      <rect x="42.00" y="0.00" width="10.00" height="31.50" />
      <rect x="62.00" y="0.00" width="2.00" height="31.50" />
      <rect x="66.00" y="0.00" width="8.00" height="31.50" />
      <rect x="76.00" y="0.00" width="4.00" height="31.50" />
      <rect x="82.00" y="0.00" width="2.00" height="31.50" />
      <rect x="86.00" y="0.00" width="6.00" height="31.50" />
      <rect x="96.00" y="0.00" width="2.00" height="31.50" />
      <rect x="8.00" y="31.50" width="6.00" height="2.00" />
      <rect x="16.00" y="31.50" width="2.00" height="2.00" />
      <rect x="20.00" y="31.50" width="10.00" height="2.00" />
      <rect x="32.00" y="31.50" width="2.00" height="2.00" />
      <rect x="36.00" y="31.50" width="2.00" height="2.00" />
      <rect x="40.00" y="31.50" width="2.00" height="2.00" />
      <rect x="52.00" y="31.50" width="2.00" height="2.00" />
      <rect x="56.00" y="31.50" width="2.00" height="2.00" />
      <rect x="60.00" y="31.50" width="2.00" height="2.00" />
      <rect x="64.00" y="31.50" width="2.00" height="2.00" />
      <rect x="74.00" y="31.50" width="2.00" height="6.00" />
      <rect x="80.00" y="31.50" width="2.00" height="2.00" />
      <rect x="84.00" y="31.50" width="2.00" height="2.00" />
      <rect x="10.00" y="33.50" width="2.00" height="2.00" />
      <rect x="14.00" y="33.50" width="2.00" height="2.00" />
      <rect x="18.00" y="33.50" width="2.00" height="2.00" />
      <rect x="22.00" y="33.50" width="2.00" height="2.00" />
      <rect x="26.00" y="33.50" width="2.00" height="2.00" />
      <rect x="30.00" y="33.50" width="2.00" height="2.00" />
      <rect x="34.00" y="33.50" width="2.00" height="2.00" />
      <rect x="38.00" y="33.50" width="2.00" height="2.00" />
      <rect x="42.00" y="33.50" width="2.00" height="4.00" />
      <rect x="46.00" y="33.50" width="2.00" height="4.00" />
      <rect x="50.00" y="33.50" width="2.00" height="4.00" />
      <rect x="54.00" y="33.50" width="2.00" height="4.00" />
      <rect x="58.00" y="33.50" width="2.00" height="2.00" />
      <rect x="62.00" y="33.50" width="2.00" height="2.00" />
      <rect x="66.00" y="33.50" width="2.00" height="2.00" />
      <rect x="70.00" y="33.50" width="2.00" height="2.00" />
      <rect x="78.00" y="33.50" width="2.00" height="2.00" />
      <rect x="82.00" y="33.50" width="2.00" height="2.00" />
      <rect x="86.00" y="33.50" width="2.00" height="2.00" />
      <rect x="90.00" y="33.50" width="2.00" height="2.00" />
      <rect x="8.00" y="35.50" width="4.00" height="2.00" />
      <rect x="16.00" y="35.50" width="2.00" height="2.00" />
      <rect x="24.00" y="35.50" width="2.00" height="2.00" />
      <rect x="28.00" y="35.50" width="6.00" height="2.00" />
      <rect x="36.00" y="35.50" width="2.00" height="2.00" />
      <rect x="64.00" y="35.50" width="4.00" height="2.00" />
      <rect x="80.00" y="35.50" width="2.00" height="2.00" />
      <rect x="88.00" y="35.50" width="4.00" height="2.00" />
      <rect x="0.00" y="37.50" width="2.00" height="31.50" />
      <rect x="4.00" y="37.50" width="2.00" height="31.50" />
      <rect x="12.00" y="37.50" width="4.00" height="31.50" />
      <rect x="18.00" y="37.50" width="6.00" height="31.50" />
      <rect x="26.00" y="37.50" width="2.00" height="31.50" />
      <rect x="34.00" y="37.50" width="2.00" height="63.00" />
      <rect x="38.00" y="37.50" width="4.00" height="31.50" />
      <rect x="58.00" y="37.50" width="6.00" height="31.50" />
      <rect x="68.00" y="37.50" width="6.00" height="31.50" />
      <rect x="76.00" y="37.50" width="4.00" height="63.00" />
      <rect x="82.00" y="37.50" width="6.00" height="31.50" />
      <rect x="92.00" y="37.50" width="4.00" height="31.50" />
      <rect x="98.00" y="37.50" width="2.00" height="31.50" />
      <rect x="2.00" y="69.00" width="2.00" height="31.50" />
      <rect x="14.00" y="69.00" width="2.00" height="31.50" />
      <rect x="18.00" y="69.00" width="2.00" height="31.50" />
      <rect x="30.00" y="69.00" width="2.00" height="31.50" />
      <rect x="42.00" y="69.00" width="10.00" height="31.50" />
      <rect x="62.00" y="69.00" width="2.00" height="31.50" />
      <rect x="66.00" y="69.00" width="8.00" height="31.50" />
      <rect x="82.00" y="69.00" width="2.00" height="31.50" />
      <rect x="86.00" y="69.00" width="6.00" height="31.50" />
      <rect x="96.00" y="69.00" width="2.00" height="31.50" />
      <rect x="8.00" y="100.50" width="6.00" height="2.00" />
      <rect x="16.00" y="100.50" width="2.00" height="2.00" />
      <rect x="20.00" y="100.50" width="10.00" height="2.00" />
      <rect x="32.00" y="100.50" width="2.00" height="2.00" />
      <rect x="36.00" y="100.50" width="2.00" height="2.00" />
      <rect x="40.00" y="100.50" width="2.00" height="2.00" />
      <rect x="52.00" y="100.50" width="2.00" height="2.00" />
      <rect x="56.00" y="100.50" width="2.00" height="2.00" />
      <rect x="60.00" y="100.50" width="2.00" height="2.00" />
      <rect x="64.00" y="100.50" width="2.00" height="2.00" />
      <rect x="74.00" y="100.50" width="2.00" height="6.00" />
      <rect x="80.00" y="100.50" width="2.00" height="2.00" />
      <rect x="84.00" y="100.50" width="2.00" height="2.00" />
      <rect x="10.00" y="102.50" width="2.00" height="2.00" />
      <rect x="14.00" y="102.50" width="2.00" height="2.00" />
      <rect x="18.00" y="102.50" width="2.00" height="2.00" />
      <rect x="22.00" y="102.50" width="2.00" height="2.00" />
      <rect x="26.00" y="102.50" width="2.00" height="2.00" />
      <rect x="30.00" y="102.50" width="2.00" height="2.00" />
      <rect x="34.00" y="102.50" width="2.00" height="2.00" />
      <rect x="38.00" y="102.50" width="2.00" height="2.00" />
      <rect x="42.00" y="102.50" width="2.00" height="4.00" />
      <rect x="46.00" y="102.50" width="2.00" height="4.00" />
      <rect x="50.00" y="102.50" width="2.00" height="4.00" />
      <rect x="54.00" y="102.50" width="2.00" height="4.00" />
      <rect x="58.00" y="102.50" width="2.00" height="2.00" />
      <rect x="62.00" y="102.50" width="2.00" height="2.00" />
      <rect x="66.00" y="102.50" width="2.00" height="2.00" />
      <rect x="70.00" y="102.50" width="2.00" height="2.00" />
      <rect x="78.00" y="102.50" width="2.00" height="2.00" />
      <rect x="82.00" y="102.50" width="2.00" height="2.00" />
      <rect x="86.00" y="102.50" width="2.00" height="2.00" />
      <rect x="90.00" y="102.50" width="2.00" height="2.00" />
      <rect x="8.00" y="104.50" width="4.00" height="2.00" />
      <rect x="16.00" y="104.50" width="2.00" height="2.00" />
      <rect x="24.00" y="104.50" width="2.00" height="2.00" />
      <rect x="28.00" y="104.50" width="6.00" height="2.00" />
      <rect x="36.00" y="104.50" width="2.00" height="2.00" />
      <rect x="64.00" y="104.50" width="4.00" height="2.00" />
      <rect x="80.00" y="104.50" width="2.00" height="2.00" />
      <rect x="88.00" y="104.50" width="4.00" height="2.00" />
      <rect x="0.00" y="106.50" width="2.00" height="31.50" />
      <rect x="4.00" y="106.50" width="2.00" height="31.50" />
      <rect x="12.00" y="106.50" width="4.00" height="31.50" />
      <rect x="18.00" y="106.50" width="6.00" height="31.50" />
      <rect x="26.00" y="106.50" width="2.00" height="31.50" />
      <rect x="34.00" y="106.50" width="2.00" height="31.50" />
      <rect x="38.00" y="106.50" width="4.00" height="31.50" />
      <rect x="58.00" y="106.50" width="6.00" height="31.50" />
      <rect x="68.00" y="106.50" width="6.00" height="31.50" />
      <rect x="76.00" y="106.50" width="4.00" height="31.50" />
      <rect x="82.00" y="106.50" width="6.00" height="31.50" />
      <rect x="92.00" y="106.50" width="4.00" height="31.50" />
      <rect x="98.00" y="106.50" width="2.00" height="31.50" />
   </g>
</svg>
