<?xml version="1.0" standalone="no"?>
<!DOCTYPE svg PUBLIC "-//W3C//DTD SVG 1.1//EN"
   "http://www.w3.org/Graphics/SVG/1.1/DTD/svg11.dtd">
<svg width="400" height="87" version="1.1"
   xmlns="http://www.w3.org/2000/svg">
   <desc>Zint Generated Symbol
   </desc>

   <g id="barcode" fill="#000000">
      <rect x="0" y="0" width="400" height="87" fill="#FFFFFF" />
      <rect x="2.00" y="0.00" width="2.00" height="68.00" />
      <rect x="8.00" y="0.00" width="2.00" height="68.00" />
      <rect x="18.00" y="0.00" width="4.00" height="68.00" />
      <rect x="28.00" y="0.00" width="4.00" height="68.00" />
      <rect x="34.00" y="0.00" width="4.00" height="68.00" />
      <rect x="40.00" y="0.00" width="16.00" height="68.00" />
      <rect x="64.00" y="0.00" width="2.00" height="68.00" />
      <rect x="68.00" y="0.00" width="6.00" height="68.00" />
      <rect x="82.00" y="0.00" width="4.00" height="68.00" />
      <rect x="90.00" y="0.00" width="2.00" height="68.00" />
      <rect x="94.00" y="0.00" width="2.00" height="68.00" />
      <rect x="102.00" y="0.00" width="4.00" height="68.00" />
      <rect x="108.00" y="0.00" width="2.00" height="68.00" />
      <rect x="122.00" y="0.00" width="4.00" height="68.00" />
      <rect x="132.00" y="0.00" width="2.00" height="68.00" />
      <rect x="136.00" y="0.00" width="2.00" height="68.00" />
      <rect x="140.00" y="0.00" width="12.00" height="68.00" />
      <rect x="160.00" y="0.00" width="6.00" height="68.00" />
      <rect x="168.00" y="0.00" width="2.00" height="68.00" />
      <rect x="174.00" y="0.00" width="6.00" height="68.00" />
      <rect x="192.00" y="0.00" width="2.00" height="68.00" />
      <rect x="198.00" y="0.00" width="2.00" height="68.00" />
      <rect x="202.00" y="0.00" width="2.00" height="68.00" />
      <rect x="208.00" y="0.00" width="10.00" height="68.00" />
      <rect x="220.00" y="0.00" width="6.00" height="68.00" />
      <rect x="230.00" y="0.00" width="4.00" height="68.00" />
      <rect x="240.00" y="0.00" width="12.00" height="68.00" />
      <rect x="260.00" y="0.00" width="2.00" height="68.00" />
      <rect x="264.00" y="0.00" width="6.00" height="68.00" />
      <rect x="272.00" y="0.00" width="4.00" height="68.00" />
      <rect x="286.00" y="0.00" width="2.00" height="68.00" />
      <rect x="292.00" y="0.00" width="2.00" height="68.00" />
      <rect x="298.00" y="0.00" width="2.00" height="68.00" />
      <rect x="306.00" y="0.00" width="8.00" height="68.00" />
      <rect x="318.00" y="0.00" width="2.00" height="68.00" />
      <rect x="322.00" y="0.00" width="4.00" height="68.00" />
      <rect x="332.00" y="0.00" width="2.00" height="68.00" />
      <rect x="336.00" y="0.00" width="16.00" height="68.00" />
      <rect x="356.00" y="0.00" width="6.00" height="68.00" />
      <rect x="368.00" y="0.00" width="4.00" height="68.00" />
      <rect x="374.00" y="0.00" width="8.00" height="68.00" />
      <rect x="384.00" y="0.00" width="2.00" height="68.00" />
      <rect x="394.00" y="0.00" width="2.00" height="68.00" />
      <rect x="398.00" y="0.00" width="2.00" height="68.00" />
      <text x="200.00" y="83.40" text-anchor="middle"
         font-family="Helvetica, sans-serif" font-size="14.0" >
         (01)98898765432106(3202)012345(15)991231
      </text>
   </g>
</svg>
