<?xml version="1.0" standalone="no"?>
<!DOCTYPE svg PUBLIC "-//W3C//DTD SVG 1.1//EN"
   "http://www.w3.org/Graphics/SVG/1.1/DTD/svg11.dtd">
<svg width="204" height="68" version="1.1"
   xmlns="http://www.w3.org/2000/svg">
   <desc>Zint Generated Symbol
   </desc>

   <g id="barcode" fill="#000000">
      <rect x="0" y="0" width="204" height="68" fill="#FFFFFF" />
      <rect x="2.00" y="0.00" width="2.00" height="68.00" />
      <rect x="8.00" y="0.00" width="2.00" height="68.00" />
      <rect x="20.00" y="0.00" width="2.00" height="68.00" />
      <rect x="30.00" y="0.00" width="2.00" height="68.00" />
      <rect x="34.00" y="0.00" width="4.00" height="68.00" />
      <rect x="40.00" y="0.00" width="16.00" height="68.00" />
      <rect x="64.00" y="0.00" width="2.00" height="68.00" />
      <rect x="68.00" y="0.00" width="2.00" height="68.00" />
      <rect x="80.00" y="0.00" width="2.00" height="68.00" />
      <rect x="90.00" y="0.00" width="4.00" height="68.00" />
      <rect x="98.00" y="0.00" width="2.00" height="68.00" />
      <rect x="102.00" y="0.00" width="2.00" height="68.00" />
      <rect x="106.00" y="0.00" width="10.00" height="68.00" />
      <rect x="120.00" y="0.00" width="2.00" height="68.00" />
      <rect x="124.00" y="0.00" width="6.00" height="68.00" />
      <rect x="136.00" y="0.00" width="2.00" height="68.00" />
      <rect x="140.00" y="0.00" width="8.00" height="68.00" />
      <rect x="164.00" y="0.00" width="2.00" height="68.00" />
      <rect x="168.00" y="0.00" width="2.00" height="68.00" />
      <rect x="172.00" y="0.00" width="10.00" height="68.00" />
      <rect x="190.00" y="0.00" width="2.00" height="68.00" />
      <rect x="194.00" y="0.00" width="6.00" height="68.00" />
      <rect x="202.00" y="0.00" width="2.00" height="68.00" />
   </g>
</svg>
