<?xml version="1.0" standalone="no"?>
<!DOCTYPE svg PUBLIC "-//W3C//DTD SVG 1.1//EN"
   "http://www.w3.org/Graphics/SVG/1.1/DTD/svg11.dtd">
<svg width="192" height="119" version="1.1"
   xmlns="http://www.w3.org/2000/svg">
   <desc>Zint Generated Symbol
   </desc>

   <g id="barcode" fill="#000000">
      <rect x="0" y="0" width="192" height="119" fill="#FFFFFF" />
      <rect x="2.00" y="0.00" width="2.00" height="100.00" />
      <rect x="14.00" y="0.00" width="2.00" height="100.00" />
      <rect x="18.00" y="0.00" width="2.00" height="100.00" />
      <rect x="30.00" y="0.00" width="2.00" height="100.00" />
      <rect x="34.00" y="0.00" width="2.00" height="100.00" />
      <rect x="42.00" y="0.00" width="10.00" height="100.00" />
      <rect x="62.00" y="0.00" width="2.00" height="100.00" />
      <rect x="66.00" y="0.00" width="8.00" height="100.00" />
      <rect x="76.00" y="0.00" width="4.00" height="100.00" />
      <rect x="82.00" y="0.00" width="2.00" height="100.00" />
      <rect x="86.00" y="0.00" width="6.00" height="100.00" />
      <rect x="96.00" y="0.00" width="2.00" height="100.00" />
      <rect x="104.00" y="0.00" width="4.00" height="100.00" />
      <rect x="110.00" y="0.00" width="6.00" height="100.00" />
      <rect x="118.00" y="0.00" width="2.00" height="100.00" />
      <rect x="126.00" y="0.00" width="2.00" height="100.00" />
      <rect x="130.00" y="0.00" width="4.00" height="100.00" />
      <rect x="150.00" y="0.00" width="6.00" height="100.00" />
      <rect x="160.00" y="0.00" width="6.00" height="100.00" />
      <rect x="168.00" y="0.00" width="4.00" height="100.00" />
      <rect x="174.00" y="0.00" width="6.00" height="100.00" />
      <rect x="184.00" y="0.00" width="4.00" height="100.00" />
      <rect x="190.00" y="0.00" width="2.00" height="100.00" />
      <text x="96.00" y="115.40" text-anchor="middle"
         font-family="Helvetica, sans-serif" font-size="14.0" >
         (01)09501101530010
      </text>
   </g>
</svg>
