<?xml version="1.0" standalone="no"?>
<!DOCTYPE svg PUBLIC "-//W3C//DTD SVG 1.1//EN" "http://www.w3.org/Graphics/SVG/1.1/DTD/svg11.dtd">
<svg width="204" height="68" version="1.1" xmlns="http://www.w3.org/2000/svg">
 <desc>Zint Generated Symbol</desc>
 <g id="barcode" fill="#000000">
  <rect x="0" y="0" width="204" height="68" fill="#FFFFFF"/>
  <path d="M2 0h2v68h-2ZM8 0h2v68h-2ZM20 0h2v68h-2ZM30 0h2v68h-2ZM34 0h4v68h-4ZM40 0h16v68h-16ZM64 0h2v68h-2ZM68 0h2v68h-2ZM80 0h2v68h-2ZM90 0h4v68h-4ZM98 0h2v68h-2ZM102 0h2v68h-2ZM106 0h10v68h-10ZM120 0h2v68h-2ZM124 0h6v68h-6ZM136 0h2v68h-2ZM140 0h8v68h-8ZM164 0h2v68h-2ZM168 0h2v68h-2ZM172 0h10v68h-10ZM190 0h2v68h-2ZM194 0h6v68h-6ZM202 0h2v68h-2Z"/>
 </g>
</svg>
