<?xml version="1.0" standalone="no"?>
<!DOCTYPE svg PUBLIC "-//W3C//DTD SVG 1.1//EN"
   "http://www.w3.org/Graphics/SVG/1.1/DTD/svg11.dtd">
<svg width="100" height="31" version="1.1"
   xmlns="http://www.w3.org/2000/svg">
   <desc>Zint Generated Symbol
   </desc>

   <g id="barcode" fill="#000000">
      <rect x="0" y="0" width="100" height="31" fill="#FFFFFF" />
      <rect x="2.00" y="0.00" width="2.00" height="1.00" />
      <rect x="14.00" y="0.00" width="2.00" height="1.00" />
      <rect x="18.00" y="0.00" width="2.00" height="1.00" />
      <rect x="30.00" y="0.00" width="2.00" height="1.00" />
      <rect x="34.00" y="0.00" width="2.00" height="1.00" />
      <rect x="42.00" y="0.00" width="10.00" height="1.00" />
      <rect x="62.00" y="0.00" width="2.00" height="1.00" />
      <rect x="66.00" y="0.00" width="8.00" height="1.00" />
      <rect x="76.00" y="0.00" width="4.00" height="1.00" />
      <rect x="82.00" y="0.00" width="2.00" height="1.00" />
      <rect x="86.00" y="0.00" width="6.00" height="1.00" />
      <rect x="96.00" y="0.00" width="2.00" height="1.00" />
      <rect x="8.00" y="1.00" width="4.00" height="2.00" />
      <rect x="16.00" y="1.00" width="2.00" height="2.00" />
      <rect x="20.00" y="1.00" width="2.00" height="2.00" />
      <rect x="24.00" y="1.00" width="2.00" height="2.00" />
      <rect x="28.00" y="1.00" width="2.00" height="2.00" />
      <rect x="32.00" y="1.00" width="2.00" height="2.00" />
      <rect x="36.00" y="1.00" width="2.00" height="2.00" />
      <rect x="40.00" y="1.00" width="2.00" height="2.00" />
      <rect x="44.00" y="1.00" width="2.00" height="2.00" />
      <rect x="48.00" y="1.00" width="2.00" height="2.00" />
      <rect x="52.00" y="1.00" width="6.00" height="2.00" />
      <rect x="60.00" y="1.00" width="2.00" height="2.00" />
      <rect x="64.00" y="1.00" width="2.00" height="2.00" />
      <rect x="74.00" y="1.00" width="2.00" height="2.00" />
      <rect x="80.00" y="1.00" width="2.00" height="2.00" />
      <rect x="84.00" y="1.00" width="2.00" height="2.00" />
      <rect x="88.00" y="1.00" width="2.00" height="2.00" />
      <rect x="0.00" y="3.00" width="2.00" height="1.40" />
      <rect x="4.00" y="3.00" width="2.00" height="1.40" />
      <rect x="12.00" y="3.00" width="4.00" height="1.40" />
      <rect x="18.00" y="3.00" width="6.00" height="1.40" />
      <rect x="26.00" y="3.00" width="2.00" height="1.40" />
      <rect x="34.00" y="3.00" width="2.00" height="11.40" />
      <rect x="38.00" y="3.00" width="4.00" height="1.40" />
      <rect x="58.00" y="3.00" width="6.00" height="1.40" />
      <rect x="68.00" y="3.00" width="6.00" height="1.40" />
      <rect x="76.00" y="3.00" width="4.00" height="11.40" />
      <rect x="82.00" y="3.00" width="6.00" height="1.40" />
      <rect x="92.00" y="3.00" width="4.00" height="1.40" />
      <rect x="98.00" y="3.00" width="2.00" height="1.40" />
      <rect x="2.00" y="4.40" width="2.00" height="10.00" />
      <rect x="14.00" y="4.40" width="2.00" height="10.00" />
      <rect x="18.00" y="4.40" width="2.00" height="10.00" />
      <rect x="30.00" y="4.40" width="2.00" height="10.00" />
      <rect x="42.00" y="4.40" width="10.00" height="10.00" />
      <rect x="62.00" y="4.40" width="2.00" height="10.00" />
      <rect x="66.00" y="4.40" width="8.00" height="10.00" />
      <rect x="82.00" y="4.40" width="2.00" height="10.00" />
      <rect x="86.00" y="4.40" width="6.00" height="10.00" />
      <rect x="96.00" y="4.40" width="2.00" height="10.00" />
      <rect x="8.00" y="14.40" width="4.00" height="2.00" />
      <rect x="16.00" y="14.40" width="2.00" height="2.00" />
      <rect x="20.00" y="14.40" width="2.00" height="2.00" />
      <rect x="24.00" y="14.40" width="2.00" height="2.00" />
      <rect x="28.00" y="14.40" width="2.00" height="2.00" />
      <rect x="32.00" y="14.40" width="2.00" height="2.00" />
      <rect x="36.00" y="14.40" width="2.00" height="2.00" />
      <rect x="40.00" y="14.40" width="2.00" height="2.00" />
      <rect x="44.00" y="14.40" width="2.00" height="2.00" />
      <rect x="48.00" y="14.40" width="2.00" height="2.00" />
      <rect x="52.00" y="14.40" width="6.00" height="2.00" />
      <rect x="60.00" y="14.40" width="2.00" height="2.00" />
      <rect x="64.00" y="14.40" width="2.00" height="2.00" />
      <rect x="74.00" y="14.40" width="2.00" height="2.00" />
      <rect x="80.00" y="14.40" width="2.00" height="2.00" />
      <rect x="84.00" y="14.40" width="2.00" height="2.00" />
      <rect x="88.00" y="14.40" width="2.00" height="2.00" />
      <rect x="0.00" y="16.40" width="2.00" height="14.00" />
      <rect x="4.00" y="16.40" width="2.00" height="14.00" />
      <rect x="12.00" y="16.40" width="4.00" height="14.00" />
      <rect x="18.00" y="16.40" width="6.00" height="14.00" />
      <rect x="26.00" y="16.40" width="2.00" height="14.00" />
      <rect x="34.00" y="16.40" width="2.00" height="14.00" />
      <rect x="38.00" y="16.40" width="4.00" height="14.00" />
      <rect x="58.00" y="16.40" width="6.00" height="14.00" />
      <rect x="68.00" y="16.40" width="6.00" height="14.00" />
      <rect x="76.00" y="16.40" width="4.00" height="14.00" />
      <rect x="82.00" y="16.40" width="6.00" height="14.00" />
      <rect x="92.00" y="16.40" width="4.00" height="14.00" />
      <rect x="98.00" y="16.40" width="2.00" height="14.00" />
   </g>
</svg>
