<?xml version="1.0" standalone="no"?>
<!DOCTYPE svg PUBLIC "-//W3C//DTD SVG 1.1//EN" "http://www.w3.org/Graphics/SVG/1.1/DTD/svg11.dtd">
<svg width="38" height="24" version="1.1" xmlns="http://www.w3.org/2000/svg">
 <desc>Zint Generated Symbol</desc>
 <g id="barcode" fill="#000000">
  <rect x="0" y="0" width="38" height="24" fill="#FFFFFF"/>
  <circle cx="1" cy="1" r="0.8"/>
  <circle cx="9" cy="1" r="0.8"/>
  <circle cx="13" cy="1" r="0.8"/>
  <circle cx="21" cy="1" r="0.8"/>
  <circle cx="29" cy="1" r="0.8"/>
  <circle cx="37" cy="1" r="0.8"/>
  <circle cx="3" cy="3" r="0.8"/>
  <circle cx="15" cy="3" r="0.8"/>
  <circle cx="19" cy="3" r="0.8"/>
  <circle cx="23" cy="3" r="0.8"/>
  <circle cx="31" cy="3" r="0.8"/>
  <circle cx="35" cy="3" r="0.8"/>
  <circle cx="9" cy="5" r="0.8"/>
  <circle cx="17" cy="5" r="0.8"/>
  <circle cx="25" cy="5" r="0.8"/>
  <circle cx="37" cy="5" r="0.8"/>
  <circle cx="3" cy="7" r="0.8"/>
  <circle cx="7" cy="7" r="0.8"/>
  <circle cx="11" cy="7" r="0.8"/>
  <circle cx="15" cy="7" r="0.8"/>
  <circle cx="19" cy="7" r="0.8"/>
  <circle cx="23" cy="7" r="0.8"/>
  <circle cx="27" cy="7" r="0.8"/>
  <circle cx="1" cy="9" r="0.8"/>
  <circle cx="5" cy="9" r="0.8"/>
  <circle cx="13" cy="9" r="0.8"/>
  <circle cx="17" cy="9" r="0.8"/>
  <circle cx="29" cy="9" r="0.8"/>
  <circle cx="3" cy="11" r="0.8"/>
  <circle cx="19" cy="11" r="0.8"/>
  <circle cx="27" cy="11" r="0.8"/>
  <circle cx="35" cy="11" r="0.8"/>
  <circle cx="1" cy="13" r="0.8"/>
  <circle cx="13" cy="13" r="0.8"/>
  <circle cx="21" cy="13" r="0.8"/>
  <circle cx="33" cy="13" r="0.8"/>
  <circle cx="37" cy="13" r="0.8"/>
  <circle cx="3" cy="15" r="0.8"/>
  <circle cx="7" cy="15" r="0.8"/>
  <circle cx="19" cy="15" r="0.8"/>
  <circle cx="23" cy="15" r="0.8"/>
  <circle cx="27" cy="15" r="0.8"/>
  <circle cx="31" cy="15" r="0.8"/>
  <circle cx="9" cy="17" r="0.8"/>
  <circle cx="21" cy="17" r="0.8"/>
  <circle cx="25" cy="17" r="0.8"/>
  <circle cx="29" cy="17" r="0.8"/>
  <circle cx="33" cy="17" r="0.8"/>
  <circle cx="37" cy="17" r="0.8"/>
  <circle cx="7" cy="19" r="0.8"/>
  <circle cx="11" cy="19" r="0.8"/>
  <circle cx="23" cy="19" r="0.8"/>
  <circle cx="27" cy="19" r="0.8"/>
  <circle cx="31" cy="19" r="0.8"/>
  <circle cx="1" cy="21" r="0.8"/>
  <circle cx="5" cy="21" r="0.8"/>
  <circle cx="9" cy="21" r="0.8"/>
  <circle cx="13" cy="21" r="0.8"/>
  <circle cx="33" cy="21" r="0.8"/>
  <circle cx="3" cy="23" r="0.8"/>
  <circle cx="11" cy="23" r="0.8"/>
  <circle cx="15" cy="23" r="0.8"/>
  <circle cx="23" cy="23" r="0.8"/>
  <circle cx="31" cy="23" r="0.8"/>
  <circle cx="35" cy="23" r="0.8"/>
 </g>
</svg>
