<?xml version="1.0" standalone="no"?>
<!DOCTYPE svg PUBLIC "-//W3C//DTD SVG 1.1//EN" "http://www.w3.org/Graphics/SVG/1.1/DTD/svg11.dtd">
<svg width="422" height="123" version="1.1" xmlns="http://www.w3.org/2000/svg">
 <desc>Zint Generated Symbol</desc>
 <g id="barcode" fill="#000000">
  <rect x="0" y="0" width="422" height="123" fill="#FFFFFF"/>
  <path d="M0 6h4v100h-4ZM6 6h2v100h-2ZM12 6h2v100h-2ZM22 6h2v100h-2ZM30 6h2v100h-2ZM36 6h4v100h-4ZM44 6h2v100h-2ZM50 6h6v100h-6ZM58 6h4v100h-4ZM66 6h2v100h-2ZM70 6h6v100h-6ZM78 6h8v100h-8ZM88 6h4v100h-4ZM94 6h4v100h-4ZM102 6h4v100h-4ZM110 6h4v100h-4ZM116 6h2v100h-2ZM124 6h2v100h-2ZM132 6h4v100h-4ZM142 6h4v100h-4ZM148 6h4v100h-4ZM154 6h2v100h-2ZM160 6h4v100h-4ZM168 6h2v100h-2ZM176 6h4v100h-4ZM182 6h6v100h-6ZM192 6h2v100h-2ZM198 6h2v100h-2ZM202 6h6v100h-6ZM210 6h8v100h-8ZM220 6h2v100h-2ZM224 6h4v100h-4ZM232 6h6v100h-6ZM242 6h2v100h-2ZM250 6h2v100h-2ZM254 6h4v100h-4ZM264 6h6v100h-6ZM276 6h2v100h-2ZM280 6h4v100h-4ZM286 6h4v100h-4ZM298 6h2v100h-2ZM302 6h2v100h-2ZM308 6h4v100h-4ZM316 6h2v100h-2ZM324 6h2v100h-2ZM330 6h4v100h-4ZM338 6h2v100h-2ZM346 6h2v100h-2ZM352 6h4v100h-4ZM362 6h2v100h-2ZM366 6h2v100h-2ZM374 6h2v100h-2ZM378 6h2v100h-2ZM382 6h8v100h-8ZM396 6h4v100h-4ZM406 6h6v100h-6ZM414 6h2v100h-2ZM418 6h4v100h-4ZM0 0h422v6h-422Z"/>
  <text x="211" y="119.34" text-anchor="middle" font-family="Arimo, Arial, sans-serif" font-size="14">
   0003 932 0621 9912 3456 78 101 040 9
  </text>
 </g>
</svg>
