<?xml version="1.0" standalone="no"?>
<!DOCTYPE svg PUBLIC "-//W3C//DTD SVG 1.1//EN" "http://www.w3.org/Graphics/SVG/1.1/DTD/svg11.dtd">
<svg width="234" height="161" version="1.1" xmlns="http://www.w3.org/2000/svg">
 <desc>Zint Generated Symbol</desc>
 <g id="barcode" fill="#000000">
  <rect x="0" y="0" width="234" height="161" fill="#FFFFFF"/>
  <path d="M0 0h2v144h-2ZM4 0h2v144h-2ZM8 0h2v144h-2ZM16 0h2v144h-2ZM20 0h6v144h-6ZM28 0h6v144h-6ZM36 0h2v144h-2ZM44 0h2v144h-2ZM52 0h6v144h-6ZM64 0h2v144h-2ZM68 0h2v144h-2ZM72 0h6v144h-6ZM80 0h2v144h-2ZM88 0h2v144h-2ZM92 0h6v144h-6ZM104 0h2v144h-2ZM108 0h6v144h-6ZM116 0h2v144h-2ZM120 0h6v144h-6ZM128 0h6v144h-6ZM136 0h2v144h-2ZM144 0h2v144h-2ZM152 0h6v144h-6ZM160 0h2v144h-2ZM168 0h2v144h-2ZM172 0h6v144h-6ZM184 0h2v144h-2ZM188 0h6v144h-6ZM200 0h2v144h-2ZM204 0h2v144h-2ZM208 0h2v144h-2ZM212 0h6v144h-6ZM224 0h6v144h-6ZM232 0h2v144h-2Z"/>
  <text x="117" y="157.34" text-anchor="middle" font-family="Arimo, Arial, sans-serif" font-size="14">
   01.23 4.567.891 1
  </text>
 </g>
</svg>
