<?xml version="1.0" standalone="no"?>
<!DOCTYPE svg PUBLIC "-//W3C//DTD SVG 1.1//EN" "http://www.w3.org/Graphics/SVG/1.1/DTD/svg11.dtd">
<svg width="46" height="12" version="1.1" xmlns="http://www.w3.org/2000/svg">
 <desc>Zint Generated Symbol</desc>
 <g id="barcode" fill="#000000">
  <rect x="0" y="0" width="46" height="12" fill="#FFFFFF"/>
  <path d="M0 0h10v6h-10ZM12 0h2v12h-2ZM16 0h2v6h-2ZM20 0h2v6h-2ZM24 0h2v12h-2ZM28 0h2v6h-2ZM32 0h2v12h-2ZM36 0h2v12h-2ZM40 0h6v6h-6ZM0 6h2v6h-2ZM4 6h2v6h-2ZM8 6h2v6h-2ZM18 6h4v6h-4ZM40 6h2v6h-2ZM44 6h2v6h-2Z"/>
 </g>
</svg>
