<?xml version="1.0" standalone="no"?>
<!DOCTYPE svg PUBLIC "-//W3C//DTD SVG 1.1//EN" "http://www.w3.org/Graphics/SVG/1.1/DTD/svg11.dtd">
<svg width="226" height="118" version="1.1" xmlns="http://www.w3.org/2000/svg">
 <desc>Zint Generated Symbol</desc>
 <g id="barcode" fill="#000000">
  <rect x="0" y="0" width="226" height="118" fill="#FFFFFF"/>
  <path d="M22 0h2v110h-2ZM26 0h2v110h-2ZM32 0h4v100h-4ZM40 0h2v100h-2ZM46 0h2v100h-2ZM52 0h4v100h-4ZM58 0h8v100h-8ZM68 0h2v100h-2ZM72 0h2v100h-2ZM80 0h4v100h-4ZM86 0h4v100h-4ZM96 0h2v100h-2ZM100 0h2v100h-2ZM104 0h8v100h-8ZM114 0h2v110h-2ZM118 0h2v110h-2ZM122 0h2v100h-2ZM130 0h2v100h-2ZM136 0h2v100h-2ZM142 0h2v100h-2ZM150 0h6v100h-6ZM158 0h2v100h-2ZM164 0h4v100h-4ZM172 0h4v100h-4ZM178 0h4v100h-4ZM184 0h4v100h-4ZM192 0h2v100h-2ZM198 0h2v100h-2ZM206 0h2v110h-2ZM210 0h2v110h-2Z"/>
  <text x="12.2" y="117.2" text-anchor="end" font-family="OCRB, monospace" font-size="20">
   0
  </text>
  <text x="71" y="117.2" text-anchor="middle" font-family="OCRB, monospace" font-size="20">
   123456
  </text>
  <text x="163" y="117.2" text-anchor="middle" font-family="OCRB, monospace" font-size="20">
   789128
  </text>
 </g>
</svg>
