<?xml version="1.0" standalone="no"?>
<!DOCTYPE svg PUBLIC "-//W3C//DTD SVG 1.1//EN" "http://www.w3.org/Graphics/SVG/1.1/DTD/svg11.dtd">
<svg width="362" height="117" version="1.1" xmlns="http://www.w3.org/2000/svg">
 <desc>Zint Generated Symbol</desc>
 <g id="barcode" fill="#000000">
  <rect x="0" y="0" width="362" height="117" fill="#FFFFFF"/>
  <path d="M0 0h2v100h-2ZM6 0h2v100h-2ZM10 0h4v100h-4ZM16 0h4v100h-4ZM22 0h2v100h-2ZM26 0h2v100h-2ZM30 0h2v100h-2ZM36 0h4v100h-4ZM42 0h4v100h-4ZM48 0h2v100h-2ZM52 0h4v100h-4ZM58 0h2v100h-2ZM64 0h2v100h-2ZM68 0h2v100h-2ZM72 0h4v100h-4ZM78 0h2v100h-2ZM82 0h4v100h-4ZM90 0h2v100h-2ZM94 0h2v100h-2ZM98 0h4v100h-4ZM104 0h4v100h-4ZM110 0h4v100h-4ZM118 0h2v100h-2ZM122 0h2v100h-2ZM126 0h2v100h-2ZM130 0h2v100h-2ZM134 0h2v100h-2ZM140 0h4v100h-4ZM146 0h2v100h-2ZM150 0h4v100h-4ZM156 0h4v100h-4ZM162 0h2v100h-2ZM168 0h4v100h-4ZM174 0h2v100h-2ZM178 0h2v100h-2ZM182 0h2v100h-2ZM186 0h4v100h-4ZM194 0h4v100h-4ZM200 0h2v100h-2ZM204 0h2v100h-2ZM208 0h2v100h-2ZM212 0h2v100h-2ZM218 0h2v100h-2ZM222 0h4v100h-4ZM228 0h4v100h-4ZM234 0h4v100h-4ZM240 0h2v100h-2ZM246 0h2v100h-2ZM250 0h4v100h-4ZM256 0h2v100h-2ZM260 0h2v100h-2ZM264 0h4v100h-4ZM272 0h2v100h-2ZM276 0h4v100h-4ZM282 0h2v100h-2ZM286 0h4v100h-4ZM292 0h2v100h-2ZM298 0h2v100h-2ZM302 0h2v100h-2ZM306 0h4v100h-4ZM312 0h2v100h-2ZM316 0h4v100h-4ZM324 0h2v100h-2ZM328 0h2v100h-2ZM332 0h4v100h-4ZM338 0h2v100h-2ZM344 0h2v100h-2ZM348 0h4v100h-4ZM354 0h4v100h-4ZM360 0h2v100h-2Z"/>
  <text x="181" y="113.34" text-anchor="middle" font-family="Arimo, Arial, sans-serif" font-size="14">
   012345678912
  </text>
 </g>
</svg>
