<?xml version="1.0" standalone="no"?>
<!DOCTYPE svg PUBLIC "-//W3C//DTD SVG 1.1//EN" "http://www.w3.org/Graphics/SVG/1.1/DTD/svg11.dtd">
<svg width="36" height="36" version="1.1" xmlns="http://www.w3.org/2000/svg">
 <desc>Zint Generated Symbol</desc>
 <g id="barcode" fill="#000000">
  <rect x="0" y="0" width="36" height="36" fill="#FFFFFF"/>
  <path d="M0 0h12v2h-12ZM24 0h12v2h-12ZM0 2h2v8h-2ZM4 2h8v2h-8ZM16 2h6v2h-6ZM24 2h2v2h-2ZM28 2h2v2h-2ZM32 2h4v2h-4ZM4 4h4v2h-4ZM10 4h2v6h-2ZM18 4h4v2h-4ZM24 4h6v4h-6ZM34 4h2v2h-2ZM32 6h4v2h-4ZM4 8h4v2h-4ZM14 8h2v2h-2ZM18 8h2v2h-2ZM24 8h2v2h-2ZM30 8h6v2h-6ZM0 10h12v2h-12ZM24 10h12v2h-12ZM12 12h12v2h-12ZM4 14h2v2h-2ZM12 14h2v4h-2ZM22 14h2v2h-2ZM28 14h6v2h-6ZM2 16h8v2h-8ZM20 16h4v4h-4ZM26 16h4v2h-4ZM32 16h2v2h-2ZM2 18h4v2h-4ZM8 18h2v2h-2ZM12 18h4v2h-4ZM6 20h4v2h-4ZM12 20h2v2h-2ZM22 20h2v2h-2ZM28 20h6v2h-6ZM12 22h12v2h-12ZM0 24h12v2h-12ZM24 24h12v2h-12ZM0 26h2v2h-2ZM4 26h4v2h-4ZM10 26h2v8h-2ZM16 26h2v2h-2ZM20 26h2v2h-2ZM24 26h2v8h-2ZM28 26h2v2h-2ZM32 26h4v2h-4ZM0 28h4v2h-4ZM6 28h2v2h-2ZM14 28h8v2h-8ZM30 28h6v2h-6ZM0 30h2v4h-2ZM14 30h2v2h-2ZM18 30h4v2h-4ZM34 30h2v4h-2ZM6 32h2v2h-2ZM14 32h4v2h-4ZM0 34h12v2h-12ZM24 34h12v2h-12Z"/>
 </g>
</svg>
