<?xml version="1.0" standalone="no"?>
<!DOCTYPE svg PUBLIC "-//W3C//DTD SVG 1.1//EN" "http://www.w3.org/Graphics/SVG/1.1/DTD/svg11.dtd">
<svg width="46" height="46" version="1.1" xmlns="http://www.w3.org/2000/svg">
 <desc>Zint Generated Symbol</desc>
 <g id="barcode" fill="#000000">
  <rect x="0" y="0" width="46" height="46" fill="#FFFFFF"/>
  <path d="M0 0h14v2h-14ZM16 0h2v2h-2ZM20 0h2v2h-2ZM28 0h2v2h-2ZM32 0h14v2h-14ZM0 2h2v12h-2ZM18 2h2v2h-2ZM22 2h6v4h-6ZM44 2h2v12h-2ZM4 4h10v2h-10ZM16 4h4v2h-4ZM32 4h10v2h-10ZM4 6h2v8h-2ZM16 6h2v2h-2ZM22 6h4v2h-4ZM40 6h2v8h-2ZM8 8h6v6h-6ZM20 8h2v2h-2ZM28 8h2v4h-2ZM32 8h6v6h-6ZM16 10h2v2h-2ZM22 10h4v2h-4ZM18 12h2v2h-2ZM16 14h2v2h-2ZM20 14h4v2h-4ZM28 14h2v2h-2ZM6 16h2v2h-2ZM10 16h2v2h-2ZM14 16h4v2h-4ZM26 16h2v4h-2ZM32 16h2v2h-2ZM2 18h2v2h-2ZM18 18h4v2h-4ZM30 18h2v2h-2ZM44 18h2v4h-2ZM4 20h4v2h-4ZM12 20h4v2h-4ZM20 20h2v2h-2ZM24 20h2v2h-2ZM28 20h2v2h-2ZM34 20h2v2h-2ZM38 20h4v2h-4ZM0 22h2v4h-2ZM6 22h4v2h-4ZM12 22h2v4h-2ZM16 22h2v2h-2ZM20 22h4v2h-4ZM26 22h4v2h-4ZM32 22h4v2h-4ZM38 22h2v2h-2ZM42 22h2v2h-2ZM4 24h2v2h-2ZM8 24h2v2h-2ZM18 24h4v2h-4ZM24 24h6v2h-6ZM32 24h2v2h-2ZM36 24h2v2h-2ZM40 24h2v2h-2ZM44 24h2v2h-2ZM0 26h6v2h-6ZM10 26h2v2h-2ZM14 26h2v2h-2ZM22 26h2v2h-2ZM34 26h2v4h-2ZM38 26h4v2h-4ZM12 28h2v2h-2ZM18 28h2v2h-2ZM24 28h8v2h-8ZM38 28h2v2h-2ZM16 30h10v2h-10ZM28 30h2v2h-2ZM0 32h14v2h-14ZM32 32h6v6h-6ZM40 32h2v8h-2ZM44 32h2v12h-2ZM12 34h2v12h-2ZM16 34h6v2h-6ZM24 34h2v2h-2ZM28 34h2v2h-2ZM0 36h10v2h-10ZM16 36h4v2h-4ZM22 36h6v2h-6ZM8 38h2v8h-2ZM22 38h2v2h-2ZM26 38h4v4h-4ZM0 40h6v6h-6ZM20 40h4v2h-4ZM32 40h10v2h-10ZM24 42h4v2h-4ZM16 44h2v2h-2ZM20 44h2v2h-2ZM24 44h2v2h-2ZM28 44h2v2h-2ZM32 44h14v2h-14Z"/>
 </g>
</svg>
