<?xml version="1.0" standalone="no"?>
<!DOCTYPE svg PUBLIC "-//W3C//DTD SVG 1.1//EN" "http://www.w3.org/Graphics/SVG/1.1/DTD/svg11.dtd">
<svg width="268" height="117" version="1.1" xmlns="http://www.w3.org/2000/svg">
 <desc>Zint Generated Symbol</desc>
 <g id="barcode" fill="#000000">
  <rect x="0" y="0" width="268" height="117" fill="#FFFFFF"/>
  <path d="M0 0h4v100h-4ZM6 0h2v100h-2ZM12 0h2v100h-2ZM22 0h4v100h-4ZM32 0h2v100h-2ZM38 0h2v100h-2ZM44 0h2v100h-2ZM50 0h6v100h-6ZM58 0h4v100h-4ZM66 0h2v100h-2ZM70 0h6v100h-6ZM78 0h8v100h-8ZM88 0h2v100h-2ZM92 0h4v100h-4ZM100 0h6v100h-6ZM110 0h2v100h-2ZM118 0h2v100h-2ZM122 0h4v100h-4ZM132 0h6v100h-6ZM144 0h2v100h-2ZM148 0h4v100h-4ZM154 0h4v100h-4ZM166 0h2v100h-2ZM170 0h2v100h-2ZM176 0h8v100h-8ZM186 0h4v100h-4ZM192 0h4v100h-4ZM198 0h6v100h-6ZM206 0h4v100h-4ZM212 0h6v100h-6ZM220 0h2v100h-2ZM226 0h4v100h-4ZM236 0h2v100h-2ZM242 0h4v100h-4ZM252 0h6v100h-6ZM260 0h2v100h-2ZM264 0h4v100h-4Z"/>
  <text x="134" y="113.34" text-anchor="middle" font-family="Arimo, Arial, sans-serif" font-size="14">
   *+0123456789123*
  </text>
 </g>
</svg>
