<?xml version="1.0" standalone="no"?>
<!DOCTYPE svg PUBLIC "-//W3C//DTD SVG 1.1//EN" "http://www.w3.org/Graphics/SVG/1.1/DTD/svg11.dtd">
<svg width="510" height="117" version="1.1" xmlns="http://www.w3.org/2000/svg">
 <desc>Zint Generated Symbol</desc>
 <g id="barcode" fill="#000000">
  <rect x="0" y="0" width="510" height="117" fill="#FFFFFF"/>
  <path d="M0 0h2v100h-2ZM8 0h2v100h-2ZM12 0h6v100h-6ZM20 0h6v100h-6ZM28 0h2v100h-2ZM32 0h2v100h-2ZM40 0h2v100h-2ZM44 0h2v100h-2ZM52 0h2v100h-2ZM60 0h2v100h-2ZM64 0h2v100h-2ZM68 0h2v100h-2ZM76 0h6v100h-6ZM84 0h6v100h-6ZM92 0h2v100h-2ZM96 0h6v100h-6ZM104 0h2v100h-2ZM112 0h2v100h-2ZM116 0h2v100h-2ZM120 0h6v100h-6ZM128 0h2v100h-2ZM132 0h6v100h-6ZM144 0h2v100h-2ZM148 0h2v100h-2ZM152 0h6v100h-6ZM160 0h6v100h-6ZM168 0h6v100h-6ZM180 0h2v100h-2ZM184 0h2v100h-2ZM188 0h2v100h-2ZM192 0h2v100h-2ZM196 0h2v100h-2ZM204 0h6v100h-6ZM212 0h2v100h-2ZM216 0h6v100h-6ZM224 0h6v100h-6ZM232 0h2v100h-2ZM240 0h6v100h-6ZM248 0h2v100h-2ZM252 0h2v100h-2ZM256 0h2v100h-2ZM260 0h6v100h-6ZM272 0h6v100h-6ZM280 0h2v100h-2ZM284 0h2v100h-2ZM288 0h2v100h-2ZM292 0h2v100h-2ZM300 0h2v100h-2ZM304 0h6v100h-6ZM312 0h6v100h-6ZM320 0h6v100h-6ZM328 0h2v100h-2ZM336 0h2v100h-2ZM340 0h6v100h-6ZM348 0h2v100h-2ZM352 0h2v100h-2ZM356 0h6v100h-6ZM368 0h2v100h-2ZM372 0h6v100h-6ZM380 0h2v100h-2ZM384 0h6v100h-6ZM392 0h2v100h-2ZM400 0h2v100h-2ZM404 0h2v100h-2ZM408 0h6v100h-6ZM416 0h2v100h-2ZM420 0h6v100h-6ZM432 0h2v100h-2ZM436 0h2v100h-2ZM440 0h6v100h-6ZM448 0h6v100h-6ZM456 0h6v100h-6ZM468 0h2v100h-2ZM472 0h2v100h-2ZM476 0h2v100h-2ZM480 0h2v100h-2ZM488 0h2v100h-2ZM492 0h6v100h-6ZM500 0h6v100h-6ZM508 0h2v100h-2Z"/>
  <text x="255" y="113.34" text-anchor="middle" font-family="Arimo, Arial, sans-serif" font-size="14">
   *+0123456789123*
  </text>
 </g>
</svg>
