<?xml version="1.0" standalone="no"?>
<!DOCTYPE svg PUBLIC "-//W3C//DTD SVG 1.1//EN" "http://www.w3.org/Graphics/SVG/1.1/DTD/svg11.dtd">
<svg width="42" height="42" version="1.1" xmlns="http://www.w3.org/2000/svg">
 <desc>Zint Generated Symbol</desc>
 <g id="barcode" fill="#000000">
  <rect x="0" y="0" width="42" height="42" fill="#FFFFFF"/>
  <path d="M0 0h14v2h-14ZM16 0h6v2h-6ZM24 0h2v2h-2ZM28 0h14v2h-14ZM0 2h2v10h-2ZM12 2h2v10h-2ZM18 2h2v2h-2ZM22 2h2v2h-2ZM28 2h2v10h-2ZM40 2h2v10h-2ZM4 4h6v6h-6ZM16 4h2v2h-2ZM20 4h2v2h-2ZM24 4h2v2h-2ZM32 4h6v6h-6ZM16 6h4v2h-4ZM22 6h4v2h-4ZM24 8h2v6h-2ZM16 10h2v4h-2ZM20 10h2v4h-2ZM0 12h14v2h-14ZM28 12h14v2h-14ZM16 14h10v2h-10ZM2 16h2v2h-2ZM6 16h2v2h-2ZM10 16h8v2h-8ZM20 16h2v2h-2ZM24 16h8v2h-8ZM34 16h4v2h-4ZM40 16h2v2h-2ZM16 18h2v2h-2ZM24 18h4v2h-4ZM30 18h2v2h-2ZM34 18h2v2h-2ZM38 18h4v2h-4ZM0 20h2v2h-2ZM6 20h2v2h-2ZM10 20h6v2h-6ZM20 20h6v2h-6ZM28 20h2v2h-2ZM32 20h2v2h-2ZM36 20h6v2h-6ZM0 22h6v4h-6ZM8 22h2v2h-2ZM14 22h4v2h-4ZM22 22h2v2h-2ZM26 22h2v2h-2ZM30 22h2v2h-2ZM34 22h2v2h-2ZM38 22h4v2h-4ZM10 24h4v2h-4ZM16 24h6v2h-6ZM28 24h4v2h-4ZM40 24h2v2h-2ZM16 26h2v2h-2ZM20 26h2v2h-2ZM32 26h8v2h-8ZM0 28h14v2h-14ZM16 28h10v2h-10ZM30 28h2v4h-2ZM34 28h8v2h-8ZM0 30h2v10h-2ZM12 30h2v10h-2ZM16 30h2v2h-2ZM26 30h2v2h-2ZM34 30h2v2h-2ZM38 30h2v2h-2ZM4 32h6v6h-6ZM24 32h8v2h-8ZM34 32h8v2h-8ZM16 34h8v2h-8ZM36 34h6v2h-6ZM18 36h2v2h-2ZM24 36h2v2h-2ZM30 36h2v2h-2ZM36 36h2v2h-2ZM40 36h2v4h-2ZM16 38h2v2h-2ZM20 38h2v2h-2ZM26 38h12v2h-12ZM0 40h14v2h-14ZM20 40h6v2h-6ZM30 40h2v2h-2ZM34 40h2v2h-2Z"/>
 </g>
</svg>
