<?xml version="1.0" standalone="no"?>
<!DOCTYPE svg PUBLIC "-//W3C//DTD SVG 1.1//EN" "http://www.w3.org/Graphics/SVG/1.1/DTD/svg11.dtd">
<svg width="38" height="38" version="1.1" xmlns="http://www.w3.org/2000/svg">
 <desc>Zint Generated Symbol</desc>
 <g id="barcode" fill="#000000">
  <rect x="0" y="0" width="38" height="38" fill="#FFFFFF"/>
  <path d="M4 0h4v2h-4ZM14 0h8v2h-8ZM24 0h4v2h-4ZM30 0h2v2h-2ZM34 0h2v2h-2ZM10 2h6v2h-6ZM28 2h10v2h-10ZM2 4h2v2h-2ZM6 4h2v2h-2ZM10 4h2v2h-2ZM16 4h2v2h-2ZM22 4h12v2h-12ZM0 6h2v2h-2ZM10 6h4v2h-4ZM18 6h4v2h-4ZM24 6h2v4h-2ZM28 6h8v4h-8ZM4 8h8v2h-8ZM14 8h2v2h-2ZM20 8h2v2h-2ZM2 10h28v2h-28ZM32 10h2v2h-2ZM0 12h4v2h-4ZM6 12h6v2h-6ZM26 12h12v2h-12ZM0 14h2v2h-2ZM10 14h2v8h-2ZM14 14h10v2h-10ZM26 14h6v2h-6ZM34 14h4v2h-4ZM6 16h2v2h-2ZM14 16h2v6h-2ZM22 16h2v6h-2ZM26 16h2v6h-2ZM34 16h2v2h-2ZM0 18h2v2h-2ZM18 18h2v2h-2ZM30 18h2v2h-2ZM34 18h4v2h-4ZM4 20h2v2h-2ZM32 20h2v2h-2ZM0 22h4v2h-4ZM6 22h6v4h-6ZM14 22h10v2h-10ZM26 22h10v2h-10ZM2 24h2v2h-2ZM26 24h12v2h-12ZM6 26h2v2h-2ZM10 26h24v2h-24ZM36 26h2v2h-2ZM2 28h6v6h-6ZM16 28h10v2h-10ZM30 28h2v2h-2ZM34 28h4v2h-4ZM10 30h2v4h-2ZM16 30h12v2h-12ZM34 30h2v2h-2ZM14 32h6v2h-6ZM28 32h4v2h-4ZM34 32h4v2h-4ZM2 34h4v2h-4ZM12 34h2v2h-2ZM20 34h2v2h-2ZM24 34h4v2h-4ZM30 34h8v2h-8ZM0 36h2v2h-2ZM4 36h4v2h-4ZM10 36h2v2h-2ZM14 36h8v2h-8ZM24 36h2v2h-2ZM34 36h4v2h-4Z"/>
 </g>
</svg>
