<?xml version="1.0" standalone="no"?>
<!DOCTYPE svg PUBLIC "-//W3C//DTD SVG 1.1//EN" "http://www.w3.org/Graphics/SVG/1.1/DTD/svg11.dtd">
<svg width="28" height="28" version="1.1" xmlns="http://www.w3.org/2000/svg">
 <desc>Zint Generated Symbol</desc>
 <g id="barcode" fill="#000000">
  <rect x="0" y="0" width="28" height="28" fill="#FFFFFF"/>
  <path d="M0 0h2v2h-2ZM4 0h2v2h-2ZM8 0h2v2h-2ZM12 0h2v2h-2ZM16 0h2v2h-2ZM20 0h2v2h-2ZM24 0h2v2h-2ZM0 2h4v2h-4ZM10 2h4v2h-4ZM16 2h4v2h-4ZM22 2h2v2h-2ZM26 2h2v2h-2ZM0 4h2v4h-2ZM8 4h12v2h-12ZM22 4h4v2h-4ZM4 6h4v2h-4ZM14 6h2v2h-2ZM20 6h4v2h-4ZM26 6h2v2h-2ZM0 8h10v2h-10ZM12 8h2v4h-2ZM18 8h6v2h-6ZM0 10h2v6h-2ZM6 10h4v2h-4ZM16 10h4v2h-4ZM24 10h4v2h-4ZM6 12h18v2h-18ZM4 14h2v2h-2ZM8 14h2v2h-2ZM16 14h2v2h-2ZM26 14h2v2h-2ZM0 16h4v4h-4ZM6 16h4v2h-4ZM12 16h4v2h-4ZM22 16h2v2h-2ZM6 18h2v2h-2ZM16 18h8v2h-8ZM26 18h2v2h-2ZM0 20h8v2h-8ZM10 20h2v2h-2ZM14 20h4v2h-4ZM20 20h2v2h-2ZM24 20h2v2h-2ZM0 22h4v2h-4ZM6 22h2v2h-2ZM14 22h2v2h-2ZM18 22h2v2h-2ZM22 22h2v2h-2ZM26 22h2v2h-2ZM0 24h2v2h-2ZM6 24h4v2h-4ZM16 24h6v2h-6ZM24 24h2v2h-2ZM0 26h28v2h-28Z"/>
 </g>
</svg>
