<?xml version="1.0" standalone="no"?>
<!DOCTYPE svg PUBLIC "-//W3C//DTD SVG 1.1//EN" "http://www.w3.org/Graphics/SVG/1.1/DTD/svg11.dtd">
<svg width="110" height="32" version="1.1" xmlns="http://www.w3.org/2000/svg">
 <desc>Zint Generated Symbol</desc>
 <g id="barcode" fill="#000000">
  <rect x="0" y="0" width="110" height="32" fill="#FFFFFF"/>
  <path d="M0 0h4v4h-4ZM8 0h2v8h-2ZM16 0h2v32h-2ZM20 0h2v12h-2ZM30 0h4v4h-4ZM40 0h4v4h-4ZM48 0h2v4h-2ZM54 0h2v4h-2ZM66 0h2v4h-2ZM74 0h2v4h-2ZM80 0h2v4h-2ZM88 0h4v4h-4ZM96 0h2v8h-2ZM104 0h2v32h-2ZM108 0h2v32h-2ZM0 4h6v8h-6ZM24 4h12v4h-12ZM38 4h2v4h-2ZM44 4h4v4h-4ZM54 4h12v4h-12ZM68 4h2v4h-2ZM72 4h4v4h-4ZM78 4h8v4h-8ZM88 4h6v8h-6ZM8 8h4v8h-4ZM28 8h2v4h-2ZM36 8h2v4h-2ZM44 8h8v4h-8ZM54 8h6v4h-6ZM64 8h8v4h-8ZM76 8h2v4h-2ZM80 8h6v4h-6ZM96 8h4v8h-4ZM0 12h4v16h-4ZM20 12h4v4h-4ZM30 12h4v4h-4ZM40 12h2v4h-2ZM44 12h2v4h-2ZM54 12h2v4h-2ZM60 12h2v4h-2ZM66 12h6v4h-6ZM76 12h6v4h-6ZM88 12h4v16h-4ZM6 16h6v4h-6ZM20 16h6v4h-6ZM28 16h2v4h-2ZM32 16h8v4h-8ZM46 16h6v4h-6ZM54 16h6v4h-6ZM62 16h4v4h-4ZM70 16h6v4h-6ZM82 16h2v4h-2ZM94 16h6v4h-6ZM6 20h8v4h-8ZM20 20h8v4h-8ZM32 20h2v4h-2ZM38 20h8v4h-8ZM48 20h2v4h-2ZM54 20h4v8h-4ZM62 20h2v4h-2ZM72 20h2v4h-2ZM76 20h10v4h-10ZM94 20h8v4h-8ZM8 24h6v8h-6ZM20 24h4v4h-4ZM26 24h2v4h-2ZM32 24h6v4h-6ZM42 24h8v4h-8ZM60 24h4v4h-4ZM66 24h2v4h-2ZM78 24h2v4h-2ZM96 24h6v8h-6ZM0 28h6v4h-6ZM20 28h10v4h-10ZM32 28h2v4h-2ZM38 28h2v4h-2ZM48 28h4v4h-4ZM54 28h6v4h-6ZM68 28h2v4h-2ZM78 28h4v4h-4ZM84 28h2v4h-2ZM88 28h6v4h-6Z"/>
 </g>
</svg>
