<?xml version="1.0" standalone="no"?>
<!DOCTYPE svg PUBLIC "-//W3C//DTD SVG 1.1//EN"
   "http://www.w3.org/Graphics/SVG/1.1/DTD/svg11.dtd">
<svg width="110" height="32" version="1.1"
   xmlns="http://www.w3.org/2000/svg">
   <desc>Zint Generated Symbol
   </desc>

   <g id="barcode" fill="#000000">
      <rect x="0" y="0" width="110" height="32" fill="#FFFFFF" />
      <rect x="0.00" y="0.00" width="4.00" height="4.00" />
      <rect x="8.00" y="0.00" width="2.00" height="8.00" />
      <rect x="16.00" y="0.00" width="2.00" height="32.00" />
      <rect x="20.00" y="0.00" width="2.00" height="12.00" />
      <rect x="30.00" y="0.00" width="4.00" height="4.00" />
      <rect x="40.00" y="0.00" width="4.00" height="4.00" />
      <rect x="48.00" y="0.00" width="2.00" height="4.00" />
      <rect x="54.00" y="0.00" width="2.00" height="4.00" />
      <rect x="66.00" y="0.00" width="2.00" height="4.00" />
      <rect x="74.00" y="0.00" width="2.00" height="4.00" />
      <rect x="80.00" y="0.00" width="2.00" height="4.00" />
      <rect x="88.00" y="0.00" width="4.00" height="4.00" />
      <rect x="96.00" y="0.00" width="2.00" height="8.00" />
      <rect x="104.00" y="0.00" width="2.00" height="32.00" />
      <rect x="108.00" y="0.00" width="2.00" height="32.00" />
      <rect x="0.00" y="4.00" width="6.00" height="8.00" />
      <rect x="24.00" y="4.00" width="12.00" height="4.00" />
      <rect x="38.00" y="4.00" width="2.00" height="4.00" />
      <rect x="44.00" y="4.00" width="4.00" height="4.00" />
      <rect x="54.00" y="4.00" width="12.00" height="4.00" />
      <rect x="68.00" y="4.00" width="2.00" height="4.00" />
      <rect x="72.00" y="4.00" width="4.00" height="4.00" />
      <rect x="78.00" y="4.00" width="8.00" height="4.00" />
      <rect x="88.00" y="4.00" width="6.00" height="8.00" />
      <rect x="8.00" y="8.00" width="4.00" height="8.00" />
      <rect x="28.00" y="8.00" width="2.00" height="4.00" />
      <rect x="36.00" y="8.00" width="2.00" height="4.00" />
      <rect x="44.00" y="8.00" width="8.00" height="4.00" />
      <rect x="54.00" y="8.00" width="6.00" height="4.00" />
      <rect x="64.00" y="8.00" width="8.00" height="4.00" />
      <rect x="76.00" y="8.00" width="2.00" height="4.00" />
      <rect x="80.00" y="8.00" width="6.00" height="4.00" />
      <rect x="96.00" y="8.00" width="4.00" height="8.00" />
      <rect x="0.00" y="12.00" width="4.00" height="16.00" />
      <rect x="20.00" y="12.00" width="4.00" height="4.00" />
      <rect x="30.00" y="12.00" width="4.00" height="4.00" />
      <rect x="40.00" y="12.00" width="2.00" height="4.00" />
      <rect x="44.00" y="12.00" width="2.00" height="4.00" />
      <rect x="54.00" y="12.00" width="2.00" height="4.00" />
      <rect x="60.00" y="12.00" width="2.00" height="4.00" />
      <rect x="66.00" y="12.00" width="6.00" height="4.00" />
      <rect x="76.00" y="12.00" width="6.00" height="4.00" />
      <rect x="88.00" y="12.00" width="4.00" height="16.00" />
      <rect x="6.00" y="16.00" width="6.00" height="4.00" />
      <rect x="20.00" y="16.00" width="6.00" height="4.00" />
      <rect x="28.00" y="16.00" width="2.00" height="4.00" />
      <rect x="32.00" y="16.00" width="8.00" height="4.00" />
      <rect x="46.00" y="16.00" width="6.00" height="4.00" />
      <rect x="54.00" y="16.00" width="6.00" height="4.00" />
      <rect x="62.00" y="16.00" width="4.00" height="4.00" />
      <rect x="70.00" y="16.00" width="6.00" height="4.00" />
      <rect x="82.00" y="16.00" width="2.00" height="4.00" />
      <rect x="94.00" y="16.00" width="6.00" height="4.00" />
      <rect x="6.00" y="20.00" width="8.00" height="4.00" />
      <rect x="20.00" y="20.00" width="8.00" height="4.00" />
      <rect x="32.00" y="20.00" width="2.00" height="4.00" />
      <rect x="38.00" y="20.00" width="8.00" height="4.00" />
      <rect x="48.00" y="20.00" width="2.00" height="4.00" />
      <rect x="54.00" y="20.00" width="4.00" height="8.00" />
      <rect x="62.00" y="20.00" width="2.00" height="4.00" />
      <rect x="72.00" y="20.00" width="2.00" height="4.00" />
      <rect x="76.00" y="20.00" width="10.00" height="4.00" />
      <rect x="94.00" y="20.00" width="8.00" height="4.00" />
      <rect x="8.00" y="24.00" width="6.00" height="8.00" />
      <rect x="20.00" y="24.00" width="4.00" height="4.00" />
      <rect x="26.00" y="24.00" width="2.00" height="4.00" />
      <rect x="32.00" y="24.00" width="6.00" height="4.00" />
      <rect x="42.00" y="24.00" width="8.00" height="4.00" />
      <rect x="60.00" y="24.00" width="4.00" height="4.00" />
      <rect x="66.00" y="24.00" width="2.00" height="4.00" />
      <rect x="78.00" y="24.00" width="2.00" height="4.00" />
      <rect x="96.00" y="24.00" width="6.00" height="8.00" />
      <rect x="0.00" y="28.00" width="6.00" height="4.00" />
      <rect x="20.00" y="28.00" width="10.00" height="4.00" />
      <rect x="32.00" y="28.00" width="2.00" height="4.00" />
      <rect x="38.00" y="28.00" width="2.00" height="4.00" />
      <rect x="48.00" y="28.00" width="4.00" height="4.00" />
      <rect x="54.00" y="28.00" width="6.00" height="4.00" />
      <rect x="68.00" y="28.00" width="2.00" height="4.00" />
      <rect x="78.00" y="28.00" width="4.00" height="4.00" />
      <rect x="84.00" y="28.00" width="2.00" height="4.00" />
      <rect x="88.00" y="28.00" width="6.00" height="4.00" />
   </g>
</svg>
