<?xml version="1.0" standalone="no"?>
<!DOCTYPE svg PUBLIC "-//W3C//DTD SVG 1.1//EN" "http://www.w3.org/Graphics/SVG/1.1/DTD/svg11.dtd">
<svg width="206" height="48" version="1.1" xmlns="http://www.w3.org/2000/svg">
 <desc>Zint Generated Symbol</desc>
 <g id="barcode" fill="#000000">
  <rect x="0" y="0" width="206" height="48" fill="#FFFFFF"/>
  <path d="M0 0h16v48h-16ZM18 0h2v48h-2ZM22 0h2v48h-2ZM26 0h2v48h-2ZM34 0h10v6h-10ZM46 0h2v6h-2ZM50 0h2v6h-2ZM54 0h10v6h-10ZM68 0h4v6h-4ZM74 0h2v6h-2ZM78 0h2v6h-2ZM88 0h4v6h-4ZM102 0h2v6h-2ZM114 0h2v6h-2ZM122 0h2v6h-2ZM128 0h2v6h-2ZM136 0h8v12h-8ZM146 0h2v12h-2ZM150 0h2v12h-2ZM154 0h8v6h-8ZM170 0h14v48h-14ZM186 0h2v48h-2ZM194 0h2v48h-2ZM198 0h2v48h-2ZM204 0h2v48h-2ZM34 6h12v6h-12ZM48 6h2v6h-2ZM52 6h2v6h-2ZM60 6h6v6h-6ZM68 6h2v12h-2ZM72 6h12v6h-12ZM86 6h2v6h-2ZM92 6h4v6h-4ZM102 6h12v6h-12ZM116 6h2v6h-2ZM120 6h4v6h-4ZM126 6h8v6h-8ZM156 6h2v6h-2ZM34 12h6v6h-6ZM42 12h2v6h-2ZM46 12h2v6h-2ZM50 12h12v6h-12ZM76 12h2v6h-2ZM84 12h2v6h-2ZM92 12h8v6h-8ZM102 12h6v6h-6ZM112 12h8v6h-8ZM124 12h2v6h-2ZM128 12h6v6h-6ZM136 12h6v6h-6ZM144 12h2v6h-2ZM148 12h2v6h-2ZM156 12h12v6h-12ZM34 18h4v6h-4ZM40 18h2v6h-2ZM44 18h8v6h-8ZM56 18h10v6h-10ZM68 18h4v6h-4ZM78 18h4v6h-4ZM88 18h2v6h-2ZM92 18h2v6h-2ZM102 18h2v6h-2ZM108 18h2v6h-2ZM114 18h6v6h-6ZM124 18h6v6h-6ZM136 18h2v6h-2ZM140 18h2v6h-2ZM144 18h8v6h-8ZM156 18h8v6h-8ZM34 24h6v6h-6ZM42 24h2v6h-2ZM46 24h6v6h-6ZM60 24h4v6h-4ZM68 24h6v6h-6ZM76 24h2v6h-2ZM84 24h4v6h-4ZM96 24h2v6h-2ZM102 24h6v6h-6ZM114 24h2v6h-2ZM118 24h4v6h-4ZM130 24h2v6h-2ZM136 24h8v6h-8ZM146 24h2v6h-2ZM150 24h6v6h-6ZM160 24h6v6h-6ZM34 30h8v6h-8ZM44 30h2v6h-2ZM48 30h8v6h-8ZM58 30h2v6h-2ZM68 30h2v6h-2ZM74 30h6v6h-6ZM84 30h2v12h-2ZM90 30h4v6h-4ZM102 30h4v6h-4ZM110 30h6v6h-6ZM120 30h2v6h-2ZM128 30h6v6h-6ZM136 30h6v6h-6ZM144 30h2v6h-2ZM148 30h10v6h-10ZM160 30h2v6h-2ZM34 36h6v6h-6ZM42 36h2v6h-2ZM48 36h6v6h-6ZM56 36h10v6h-10ZM68 36h6v6h-6ZM80 36h2v6h-2ZM90 36h6v6h-6ZM102 36h2v12h-2ZM106 36h2v12h-2ZM114 36h2v6h-2ZM122 36h2v6h-2ZM136 36h4v6h-4ZM142 36h2v6h-2ZM148 36h6v6h-6ZM156 36h8v6h-8ZM34 42h10v6h-10ZM46 42h2v6h-2ZM52 42h2v6h-2ZM56 42h4v6h-4ZM68 42h4v6h-4ZM76 42h2v6h-2ZM82 42h6v6h-6ZM98 42h2v6h-2ZM112 42h10v6h-10ZM130 42h4v6h-4ZM136 42h2v6h-2ZM140 42h2v6h-2ZM144 42h12v6h-12ZM158 42h6v6h-6Z"/>
 </g>
</svg>
