<?xml version="1.0" standalone="no"?>
<!DOCTYPE svg PUBLIC "-//W3C//DTD SVG 1.1//EN"
   "http://www.w3.org/Graphics/SVG/1.1/DTD/svg11.dtd">
<svg width="242" height="44" version="1.1"
   xmlns="http://www.w3.org/2000/svg">
   <desc>Zint Generated Symbol
   </desc>

   <g id="barcode" fill="#000000">
      <rect x="0" y="0" width="242" height="44" fill="#FFFFFF" />
      <rect x="20.00" y="2.00" width="4.00" height="40.00" />
      <rect x="26.00" y="2.00" width="2.00" height="40.00" />
      <rect x="36.00" y="2.00" width="2.00" height="40.00" />
      <rect x="42.00" y="2.00" width="2.00" height="40.00" />
      <rect x="46.00" y="2.00" width="8.00" height="40.00" />
      <rect x="56.00" y="2.00" width="6.00" height="40.00" />
      <rect x="64.00" y="2.00" width="2.00" height="10.00" />
      <rect x="68.00" y="2.00" width="2.00" height="10.00" />
      <rect x="78.00" y="2.00" width="4.00" height="10.00" />
      <rect x="86.00" y="2.00" width="4.00" height="10.00" />
      <rect x="96.00" y="2.00" width="2.00" height="10.00" />
      <rect x="102.00" y="2.00" width="2.00" height="10.00" />
      <rect x="108.00" y="2.00" width="2.00" height="40.00" />
      <rect x="112.00" y="2.00" width="6.00" height="40.00" />
      <rect x="120.00" y="2.00" width="8.00" height="40.00" />
      <rect x="130.00" y="2.00" width="2.00" height="10.00" />
      <rect x="134.00" y="2.00" width="4.00" height="10.00" />
      <rect x="142.00" y="2.00" width="6.00" height="10.00" />
      <rect x="152.00" y="2.00" width="2.00" height="40.00" />
      <rect x="160.00" y="2.00" width="2.00" height="10.00" />
      <rect x="164.00" y="2.00" width="4.00" height="10.00" />
      <rect x="174.00" y="2.00" width="8.00" height="10.00" />
      <rect x="184.00" y="2.00" width="2.00" height="10.00" />
      <rect x="188.00" y="2.00" width="2.00" height="10.00" />
      <rect x="196.00" y="2.00" width="4.00" height="40.00" />
      <rect x="206.00" y="2.00" width="6.00" height="40.00" />
      <rect x="214.00" y="2.00" width="2.00" height="40.00" />
      <rect x="218.00" y="2.00" width="4.00" height="40.00" />
      <rect x="64.00" y="12.00" width="4.00" height="10.00" />
      <rect x="74.00" y="12.00" width="2.00" height="10.00" />
      <rect x="80.00" y="12.00" width="2.00" height="10.00" />
      <rect x="86.00" y="12.00" width="6.00" height="10.00" />
      <rect x="94.00" y="12.00" width="2.00" height="10.00" />
      <rect x="100.00" y="12.00" width="4.00" height="10.00" />
      <rect x="130.00" y="12.00" width="6.00" height="10.00" />
      <rect x="142.00" y="12.00" width="4.00" height="10.00" />
      <rect x="148.00" y="12.00" width="2.00" height="10.00" />
      <rect x="158.00" y="12.00" width="6.00" height="10.00" />
      <rect x="166.00" y="12.00" width="4.00" height="10.00" />
      <rect x="174.00" y="12.00" width="6.00" height="10.00" />
      <rect x="182.00" y="12.00" width="2.00" height="10.00" />
      <rect x="186.00" y="12.00" width="4.00" height="10.00" />
      <rect x="64.00" y="22.00" width="2.00" height="10.00" />
      <rect x="68.00" y="22.00" width="2.00" height="10.00" />
      <rect x="78.00" y="22.00" width="4.00" height="10.00" />
      <rect x="86.00" y="22.00" width="4.00" height="10.00" />
      <rect x="96.00" y="22.00" width="2.00" height="10.00" />
      <rect x="102.00" y="22.00" width="2.00" height="10.00" />
      <rect x="130.00" y="22.00" width="2.00" height="10.00" />
      <rect x="134.00" y="22.00" width="4.00" height="10.00" />
      <rect x="142.00" y="22.00" width="6.00" height="10.00" />
      <rect x="160.00" y="22.00" width="2.00" height="10.00" />
      <rect x="164.00" y="22.00" width="4.00" height="10.00" />
      <rect x="174.00" y="22.00" width="8.00" height="10.00" />
      <rect x="184.00" y="22.00" width="2.00" height="10.00" />
      <rect x="188.00" y="22.00" width="2.00" height="10.00" />
      <rect x="64.00" y="32.00" width="4.00" height="10.00" />
      <rect x="74.00" y="32.00" width="2.00" height="10.00" />
      <rect x="80.00" y="32.00" width="2.00" height="10.00" />
      <rect x="86.00" y="32.00" width="6.00" height="10.00" />
      <rect x="94.00" y="32.00" width="2.00" height="10.00" />
      <rect x="100.00" y="32.00" width="4.00" height="10.00" />
      <rect x="130.00" y="32.00" width="6.00" height="10.00" />
      <rect x="142.00" y="32.00" width="4.00" height="10.00" />
      <rect x="148.00" y="32.00" width="2.00" height="10.00" />
      <rect x="158.00" y="32.00" width="6.00" height="10.00" />
      <rect x="166.00" y="32.00" width="4.00" height="10.00" />
      <rect x="174.00" y="32.00" width="6.00" height="10.00" />
      <rect x="182.00" y="32.00" width="2.00" height="10.00" />
      <rect x="186.00" y="32.00" width="4.00" height="10.00" />
      <rect x="42.00" y="11.00" width="154.00" height="2.00" />
      <rect x="42.00" y="21.00" width="154.00" height="2.00" />
      <rect x="42.00" y="31.00" width="154.00" height="2.00" />
      <rect x="20.00" y="0.00" width="202.00" height="2.00" />
      <rect x="20.00" y="42.00" width="202.00" height="2.00" />
   </g>
</svg>
