<?xml version="1.0" standalone="no"?>
<!DOCTYPE svg PUBLIC "-//W3C//DTD SVG 1.1//EN" "http://www.w3.org/Graphics/SVG/1.1/DTD/svg11.dtd">
<svg width="266" height="16" version="1.1" xmlns="http://www.w3.org/2000/svg">
 <desc>Zint Generated Symbol</desc>
 <g id="barcode" fill="#000000">
  <rect x="0" y="0" width="266" height="16" fill="#FFFFFF"/>
  <path d="M0 0h2v16h-2ZM8 0h2v16h-2ZM20 0h2v16h-2ZM24 0h2v16h-2ZM32 0h2v16h-2ZM40 0h2v10h-2ZM48 0h2v16h-2ZM52 0h2v10h-2ZM56 0h2v16h-2ZM60 0h2v10h-2ZM68 0h2v16h-2ZM76 0h2v16h-2ZM84 0h2v10h-2ZM88 0h2v16h-2ZM92 0h2v10h-2ZM96 0h2v16h-2ZM104 0h2v10h-2ZM112 0h2v16h-2ZM120 0h2v16h-2ZM124 0h2v16h-2ZM128 0h2v16h-2ZM132 0h2v16h-2ZM140 0h2v16h-2ZM148 0h2v10h-2ZM160 0h2v10h-2ZM172 0h2v10h-2ZM184 0h2v10h-2ZM196 0h2v10h-2ZM208 0h2v10h-2ZM220 0h2v10h-2ZM232 0h2v10h-2ZM244 0h2v10h-2ZM252 0h2v10h-2ZM264 0h2v16h-2ZM4 6h2v10h-2ZM12 6h2v4h-2ZM16 6h2v4h-2ZM28 6h2v4h-2ZM36 6h2v10h-2ZM44 6h2v10h-2ZM64 6h2v10h-2ZM72 6h2v4h-2ZM80 6h2v10h-2ZM100 6h2v10h-2ZM108 6h2v10h-2ZM116 6h2v4h-2ZM136 6h2v4h-2ZM144 6h2v10h-2ZM152 6h2v4h-2ZM156 6h2v10h-2ZM164 6h2v4h-2ZM168 6h2v10h-2ZM176 6h2v4h-2ZM180 6h2v10h-2ZM188 6h2v4h-2ZM192 6h2v10h-2ZM200 6h2v4h-2ZM204 6h2v10h-2ZM212 6h2v4h-2ZM216 6h2v10h-2ZM224 6h2v4h-2ZM228 6h2v10h-2ZM236 6h2v4h-2ZM240 6h2v10h-2ZM248 6h2v10h-2ZM256 6h2v4h-2ZM260 6h2v10h-2Z"/>
 </g>
</svg>
