<?xml version="1.0" standalone="no"?>
<!DOCTYPE svg PUBLIC "-//W3C//DTD SVG 1.1//EN" "http://www.w3.org/Graphics/SVG/1.1/DTD/svg11.dtd">
<svg width="446" height="117" version="1.1" xmlns="http://www.w3.org/2000/svg">
 <desc>Zint Generated Symbol</desc>
 <g id="barcode" fill="#000000">
  <rect x="0" y="0" width="446" height="117" fill="#FFFFFF"/>
  <path d="M0 0h2v100h-2ZM8 0h2v100h-2ZM12 0h6v100h-6ZM20 0h6v100h-6ZM28 0h2v100h-2ZM32 0h2v100h-2ZM36 0h2v100h-2ZM44 0h6v100h-6ZM52 0h6v100h-6ZM60 0h2v100h-2ZM64 0h6v100h-6ZM72 0h2v100h-2ZM80 0h2v100h-2ZM84 0h2v100h-2ZM88 0h6v100h-6ZM96 0h2v100h-2ZM100 0h6v100h-6ZM112 0h2v100h-2ZM116 0h2v100h-2ZM120 0h6v100h-6ZM128 0h6v100h-6ZM136 0h6v100h-6ZM148 0h2v100h-2ZM152 0h2v100h-2ZM156 0h2v100h-2ZM160 0h2v100h-2ZM164 0h2v100h-2ZM172 0h6v100h-6ZM180 0h2v100h-2ZM184 0h6v100h-6ZM192 0h6v100h-6ZM200 0h2v100h-2ZM208 0h6v100h-6ZM216 0h2v100h-2ZM220 0h2v100h-2ZM224 0h2v100h-2ZM228 0h6v100h-6ZM240 0h6v100h-6ZM248 0h2v100h-2ZM252 0h2v100h-2ZM256 0h2v100h-2ZM260 0h2v100h-2ZM268 0h2v100h-2ZM272 0h6v100h-6ZM280 0h6v100h-6ZM288 0h6v100h-6ZM296 0h2v100h-2ZM304 0h2v100h-2ZM308 0h6v100h-6ZM316 0h2v100h-2ZM320 0h2v100h-2ZM324 0h6v100h-6ZM336 0h2v100h-2ZM340 0h6v100h-6ZM348 0h2v100h-2ZM352 0h6v100h-6ZM360 0h2v100h-2ZM368 0h2v100h-2ZM372 0h2v100h-2ZM376 0h6v100h-6ZM384 0h2v100h-2ZM388 0h6v100h-6ZM400 0h2v100h-2ZM404 0h2v100h-2ZM408 0h6v100h-6ZM416 0h2v100h-2ZM424 0h2v100h-2ZM428 0h6v100h-6ZM436 0h6v100h-6ZM444 0h2v100h-2Z"/>
  <text x="223" y="113.34" text-anchor="middle" font-family="Arimo, Arial, sans-serif" font-size="14">
   012345678912
  </text>
 </g>
</svg>
