<?xml version="1.0" standalone="no"?>
<!DOCTYPE svg PUBLIC "-//W3C//DTD SVG 1.1//EN" "http://www.w3.org/Graphics/SVG/1.1/DTD/svg11.dtd">
<svg width="310" height="20" version="1.1" xmlns="http://www.w3.org/2000/svg">
 <desc>Zint Generated Symbol</desc>
 <g id="barcode" fill="#000000">
  <rect x="0" y="0" width="310" height="20" fill="#FFFFFF"/>
  <path d="M0 0h2v20h-2ZM4 0h2v20h-2ZM8 0h2v12h-2ZM12 0h2v12h-2ZM32 0h2v20h-2ZM48 0h2v12h-2ZM52 0h2v12h-2ZM60 0h2v20h-2ZM72 0h2v12h-2ZM88 0h2v20h-2ZM96 0h2v20h-2ZM100 0h2v12h-2ZM104 0h2v12h-2ZM116 0h2v12h-2ZM140 0h2v12h-2ZM148 0h2v20h-2ZM160 0h2v20h-2ZM168 0h2v12h-2ZM172 0h2v20h-2ZM180 0h2v20h-2ZM192 0h2v12h-2ZM196 0h2v20h-2ZM200 0h2v12h-2ZM204 0h2v12h-2ZM208 0h2v12h-2ZM224 0h2v20h-2ZM240 0h2v12h-2ZM244 0h2v12h-2ZM256 0h2v20h-2ZM260 0h2v20h-2ZM268 0h2v12h-2ZM272 0h2v20h-2ZM276 0h2v12h-2ZM284 0h2v12h-2ZM288 0h2v12h-2ZM292 0h2v20h-2ZM296 0h2v20h-2ZM304 0h2v20h-2ZM308 0h2v12h-2ZM16 8h2v12h-2ZM20 8h2v12h-2ZM24 8h2v4h-2ZM28 8h2v4h-2ZM36 8h2v4h-2ZM40 8h2v4h-2ZM44 8h2v12h-2ZM56 8h2v12h-2ZM64 8h2v4h-2ZM68 8h2v4h-2ZM76 8h2v4h-2ZM80 8h2v4h-2ZM84 8h2v4h-2ZM92 8h2v4h-2ZM108 8h2v4h-2ZM112 8h2v4h-2ZM120 8h2v4h-2ZM124 8h2v4h-2ZM128 8h2v12h-2ZM132 8h2v4h-2ZM136 8h2v4h-2ZM144 8h2v4h-2ZM152 8h2v12h-2ZM156 8h2v12h-2ZM164 8h2v12h-2ZM176 8h2v12h-2ZM184 8h2v4h-2ZM188 8h2v4h-2ZM212 8h2v12h-2ZM216 8h2v4h-2ZM220 8h2v12h-2ZM228 8h2v12h-2ZM232 8h2v4h-2ZM236 8h2v4h-2ZM248 8h2v12h-2ZM252 8h2v4h-2ZM264 8h2v12h-2ZM280 8h2v4h-2ZM300 8h2v4h-2Z"/>
 </g>
</svg>
