<?xml version="1.0" standalone="no"?>
<!DOCTYPE svg PUBLIC "-//W3C//DTD SVG 1.1//EN"
   "http://www.w3.org/Graphics/SVG/1.1/DTD/svg11.dtd">
<svg width="60" height="58" version="1.1"
   xmlns="http://www.w3.org/2000/svg">
   <desc>Zint Generated Symbol
   </desc>

   <g id="barcode" fill="#000000">
      <rect x="0" y="0" width="60" height="58" fill="#FFFFFF" />
      <path d="M 3.00 2.15 L 3.87 1.65 L 3.87 0.65 L 3.00 0.15 L 2.13 0.65 L 2.13 1.65 Z" />
      <path d="M 7.00 2.15 L 7.87 1.65 L 7.87 0.65 L 7.00 0.15 L 6.13 0.65 L 6.13 1.65 Z" />
      <path d="M 11.00 2.15 L 11.87 1.65 L 11.87 0.65 L 11.00 0.15 L 10.13 0.65 L 10.13 1.65 Z" />
      <path d="M 15.00 2.15 L 15.87 1.65 L 15.87 0.65 L 15.00 0.15 L 14.13 0.65 L 14.13 1.65 Z" />
      <path d="M 19.00 2.15 L 19.87 1.65 L 19.87 0.65 L 19.00 0.15 L 18.13 0.65 L 18.13 1.65 Z" />
      <path d="M 23.00 2.15 L 23.87 1.65 L 23.87 0.65 L 23.00 0.15 L 22.13 0.65 L 22.13 1.65 Z" />
      <path d="M 27.00 2.15 L 27.87 1.65 L 27.87 0.65 L 27.00 0.15 L 26.13 0.65 L 26.13 1.65 Z" />
      <path d="M 31.00 2.15 L 31.87 1.65 L 31.87 0.65 L 31.00 0.15 L 30.13 0.65 L 30.13 1.65 Z" />
      <path d="M 35.00 2.15 L 35.87 1.65 L 35.87 0.65 L 35.00 0.15 L 34.13 0.65 L 34.13 1.65 Z" />
      <path d="M 39.00 2.15 L 39.87 1.65 L 39.87 0.65 L 39.00 0.15 L 38.13 0.65 L 38.13 1.65 Z" />
      <path d="M 43.00 2.15 L 43.87 1.65 L 43.87 0.65 L 43.00 0.15 L 42.13 0.65 L 42.13 1.65 Z" />
      <path d="M 47.00 2.15 L 47.87 1.65 L 47.87 0.65 L 47.00 0.15 L 46.13 0.65 L 46.13 1.65 Z" />
      <path d="M 51.00 2.15 L 51.87 1.65 L 51.87 0.65 L 51.00 0.15 L 50.13 0.65 L 50.13 1.65 Z" />
      <path d="M 55.00 2.15 L 55.87 1.65 L 55.87 0.65 L 55.00 0.15 L 54.13 0.65 L 54.13 1.65 Z" />
      <path d="M 57.00 2.15 L 57.87 1.65 L 57.87 0.65 L 57.00 0.15 L 56.13 0.65 L 56.13 1.65 Z" />
      <path d="M 59.00 2.15 L 59.87 1.65 L 59.87 0.65 L 59.00 0.15 L 58.13 0.65 L 58.13 1.65 Z" />
      <path d="M 1.00 5.62 L 1.87 5.12 L 1.87 4.12 L 1.00 3.62 L 0.13 4.12 L 0.13 5.12 Z" />
      <path d="M 5.00 5.62 L 5.87 5.12 L 5.87 4.12 L 5.00 3.62 L 4.13 4.12 L 4.13 5.12 Z" />
      <path d="M 9.00 5.62 L 9.87 5.12 L 9.87 4.12 L 9.00 3.62 L 8.13 4.12 L 8.13 5.12 Z" />
      <path d="M 13.00 5.62 L 13.87 5.12 L 13.87 4.12 L 13.00 3.62 L 12.13 4.12 L 12.13 5.12 Z" />
      <path d="M 17.00 5.62 L 17.87 5.12 L 17.87 4.12 L 17.00 3.62 L 16.13 4.12 L 16.13 5.12 Z" />
      <path d="M 21.00 5.62 L 21.87 5.12 L 21.87 4.12 L 21.00 3.62 L 20.13 4.12 L 20.13 5.12 Z" />
      <path d="M 25.00 5.62 L 25.87 5.12 L 25.87 4.12 L 25.00 3.62 L 24.13 4.12 L 24.13 5.12 Z" />
      <path d="M 29.00 5.62 L 29.87 5.12 L 29.87 4.12 L 29.00 3.62 L 28.13 4.12 L 28.13 5.12 Z" />
      <path d="M 33.00 5.62 L 33.87 5.12 L 33.87 4.12 L 33.00 3.62 L 32.13 4.12 L 32.13 5.12 Z" />
      <path d="M 37.00 5.62 L 37.87 5.12 L 37.87 4.12 L 37.00 3.62 L 36.13 4.12 L 36.13 5.12 Z" />
      <path d="M 41.00 5.62 L 41.87 5.12 L 41.87 4.12 L 41.00 3.62 L 40.13 4.12 L 40.13 5.12 Z" />
      <path d="M 45.00 5.62 L 45.87 5.12 L 45.87 4.12 L 45.00 3.62 L 44.13 4.12 L 44.13 5.12 Z" />
      <path d="M 49.00 5.62 L 49.87 5.12 L 49.87 4.12 L 49.00 3.62 L 48.13 4.12 L 48.13 5.12 Z" />
      <path d="M 53.00 5.62 L 53.87 5.12 L 53.87 4.12 L 53.00 3.62 L 52.13 4.12 L 52.13 5.12 Z" />
      <path d="M 57.00 5.62 L 57.87 5.12 L 57.87 4.12 L 57.00 3.62 L 56.13 4.12 L 56.13 5.12 Z" />
      <path d="M 4.00 7.35 L 4.87 6.85 L 4.87 5.85 L 4.00 5.35 L 3.13 5.85 L 3.13 6.85 Z" />
      <path d="M 8.00 7.35 L 8.87 6.85 L 8.87 5.85 L 8.00 5.35 L 7.13 5.85 L 7.13 6.85 Z" />
      <path d="M 12.00 7.35 L 12.87 6.85 L 12.87 5.85 L 12.00 5.35 L 11.13 5.85 L 11.13 6.85 Z" />
      <path d="M 16.00 7.35 L 16.87 6.85 L 16.87 5.85 L 16.00 5.35 L 15.13 5.85 L 15.13 6.85 Z" />
      <path d="M 20.00 7.35 L 20.87 6.85 L 20.87 5.85 L 20.00 5.35 L 19.13 5.85 L 19.13 6.85 Z" />
      <path d="M 24.00 7.35 L 24.87 6.85 L 24.87 5.85 L 24.00 5.35 L 23.13 5.85 L 23.13 6.85 Z" />
      <path d="M 28.00 7.35 L 28.87 6.85 L 28.87 5.85 L 28.00 5.35 L 27.13 5.85 L 27.13 6.85 Z" />
      <path d="M 32.00 7.35 L 32.87 6.85 L 32.87 5.85 L 32.00 5.35 L 31.13 5.85 L 31.13 6.85 Z" />
      <path d="M 36.00 7.35 L 36.87 6.85 L 36.87 5.85 L 36.00 5.35 L 35.13 5.85 L 35.13 6.85 Z" />
      <path d="M 40.00 7.35 L 40.87 6.85 L 40.87 5.85 L 40.00 5.35 L 39.13 5.85 L 39.13 6.85 Z" />
      <path d="M 44.00 7.35 L 44.87 6.85 L 44.87 5.85 L 44.00 5.35 L 43.13 5.85 L 43.13 6.85 Z" />
      <path d="M 48.00 7.35 L 48.87 6.85 L 48.87 5.85 L 48.00 5.35 L 47.13 5.85 L 47.13 6.85 Z" />
      <path d="M 52.00 7.35 L 52.87 6.85 L 52.87 5.85 L 52.00 5.35 L 51.13 5.85 L 51.13 6.85 Z" />
      <path d="M 56.00 7.35 L 56.87 6.85 L 56.87 5.85 L 56.00 5.35 L 55.13 5.85 L 55.13 6.85 Z" />
      <path d="M 58.00 7.35 L 58.87 6.85 L 58.87 5.85 L 58.00 5.35 L 57.13 5.85 L 57.13 6.85 Z" />
      <path d="M 59.00 9.08 L 59.87 8.58 L 59.87 7.58 L 59.00 7.08 L 58.13 7.58 L 58.13 8.58 Z" />
      <path d="M 2.00 10.81 L 2.87 10.31 L 2.87 9.31 L 2.00 8.81 L 1.13 9.31 L 1.13 10.31 Z" />
      <path d="M 6.00 10.81 L 6.87 10.31 L 6.87 9.31 L 6.00 8.81 L 5.13 9.31 L 5.13 10.31 Z" />
      <path d="M 10.00 10.81 L 10.87 10.31 L 10.87 9.31 L 10.00 8.81 L 9.13 9.31 L 9.13 10.31 Z" />
      <path d="M 14.00 10.81 L 14.87 10.31 L 14.87 9.31 L 14.00 8.81 L 13.13 9.31 L 13.13 10.31 Z" />
      <path d="M 18.00 10.81 L 18.87 10.31 L 18.87 9.31 L 18.00 8.81 L 17.13 9.31 L 17.13 10.31 Z" />
      <path d="M 22.00 10.81 L 22.87 10.31 L 22.87 9.31 L 22.00 8.81 L 21.13 9.31 L 21.13 10.31 Z" />
      <path d="M 26.00 10.81 L 26.87 10.31 L 26.87 9.31 L 26.00 8.81 L 25.13 9.31 L 25.13 10.31 Z" />
      <path d="M 30.00 10.81 L 30.87 10.31 L 30.87 9.31 L 30.00 8.81 L 29.13 9.31 L 29.13 10.31 Z" />
      <path d="M 34.00 10.81 L 34.87 10.31 L 34.87 9.31 L 34.00 8.81 L 33.13 9.31 L 33.13 10.31 Z" />
      <path d="M 38.00 10.81 L 38.87 10.31 L 38.87 9.31 L 38.00 8.81 L 37.13 9.31 L 37.13 10.31 Z" />
      <path d="M 42.00 10.81 L 42.87 10.31 L 42.87 9.31 L 42.00 8.81 L 41.13 9.31 L 41.13 10.31 Z" />
      <path d="M 46.00 10.81 L 46.87 10.31 L 46.87 9.31 L 46.00 8.81 L 45.13 9.31 L 45.13 10.31 Z" />
      <path d="M 50.00 10.81 L 50.87 10.31 L 50.87 9.31 L 50.00 8.81 L 49.13 9.31 L 49.13 10.31 Z" />
      <path d="M 54.00 10.81 L 54.87 10.31 L 54.87 9.31 L 54.00 8.81 L 53.13 9.31 L 53.13 10.31 Z" />
      <path d="M 3.00 12.55 L 3.87 12.05 L 3.87 11.05 L 3.00 10.55 L 2.13 11.05 L 2.13 12.05 Z" />
      <path d="M 7.00 12.55 L 7.87 12.05 L 7.87 11.05 L 7.00 10.55 L 6.13 11.05 L 6.13 12.05 Z" />
      <path d="M 11.00 12.55 L 11.87 12.05 L 11.87 11.05 L 11.00 10.55 L 10.13 11.05 L 10.13 12.05 Z" />
      <path d="M 15.00 12.55 L 15.87 12.05 L 15.87 11.05 L 15.00 10.55 L 14.13 11.05 L 14.13 12.05 Z" />
      <path d="M 19.00 12.55 L 19.87 12.05 L 19.87 11.05 L 19.00 10.55 L 18.13 11.05 L 18.13 12.05 Z" />
      <path d="M 23.00 12.55 L 23.87 12.05 L 23.87 11.05 L 23.00 10.55 L 22.13 11.05 L 22.13 12.05 Z" />
      <path d="M 27.00 12.55 L 27.87 12.05 L 27.87 11.05 L 27.00 10.55 L 26.13 11.05 L 26.13 12.05 Z" />
      <path d="M 31.00 12.55 L 31.87 12.05 L 31.87 11.05 L 31.00 10.55 L 30.13 11.05 L 30.13 12.05 Z" />
      <path d="M 35.00 12.55 L 35.87 12.05 L 35.87 11.05 L 35.00 10.55 L 34.13 11.05 L 34.13 12.05 Z" />
      <path d="M 39.00 12.55 L 39.87 12.05 L 39.87 11.05 L 39.00 10.55 L 38.13 11.05 L 38.13 12.05 Z" />
      <path d="M 43.00 12.55 L 43.87 12.05 L 43.87 11.05 L 43.00 10.55 L 42.13 11.05 L 42.13 12.05 Z" />
      <path d="M 47.00 12.55 L 47.87 12.05 L 47.87 11.05 L 47.00 10.55 L 46.13 11.05 L 46.13 12.05 Z" />
      <path d="M 51.00 12.55 L 51.87 12.05 L 51.87 11.05 L 51.00 10.55 L 50.13 11.05 L 50.13 12.05 Z" />
      <path d="M 55.00 12.55 L 55.87 12.05 L 55.87 11.05 L 55.00 10.55 L 54.13 11.05 L 54.13 12.05 Z" />
      <path d="M 57.00 12.55 L 57.87 12.05 L 57.87 11.05 L 57.00 10.55 L 56.13 11.05 L 56.13 12.05 Z" />
      <path d="M 58.00 14.28 L 58.87 13.78 L 58.87 12.78 L 58.00 12.28 L 57.13 12.78 L 57.13 13.78 Z" />
      <path d="M 1.00 16.01 L 1.87 15.51 L 1.87 14.51 L 1.00 14.01 L 0.13 14.51 L 0.13 15.51 Z" />
      <path d="M 5.00 16.01 L 5.87 15.51 L 5.87 14.51 L 5.00 14.01 L 4.13 14.51 L 4.13 15.51 Z" />
      <path d="M 9.00 16.01 L 9.87 15.51 L 9.87 14.51 L 9.00 14.01 L 8.13 14.51 L 8.13 15.51 Z" />
      <path d="M 13.00 16.01 L 13.87 15.51 L 13.87 14.51 L 13.00 14.01 L 12.13 14.51 L 12.13 15.51 Z" />
      <path d="M 17.00 16.01 L 17.87 15.51 L 17.87 14.51 L 17.00 14.01 L 16.13 14.51 L 16.13 15.51 Z" />
      <path d="M 21.00 16.01 L 21.87 15.51 L 21.87 14.51 L 21.00 14.01 L 20.13 14.51 L 20.13 15.51 Z" />
      <path d="M 25.00 16.01 L 25.87 15.51 L 25.87 14.51 L 25.00 14.01 L 24.13 14.51 L 24.13 15.51 Z" />
      <path d="M 29.00 16.01 L 29.87 15.51 L 29.87 14.51 L 29.00 14.01 L 28.13 14.51 L 28.13 15.51 Z" />
      <path d="M 33.00 16.01 L 33.87 15.51 L 33.87 14.51 L 33.00 14.01 L 32.13 14.51 L 32.13 15.51 Z" />
      <path d="M 37.00 16.01 L 37.87 15.51 L 37.87 14.51 L 37.00 14.01 L 36.13 14.51 L 36.13 15.51 Z" />
      <path d="M 41.00 16.01 L 41.87 15.51 L 41.87 14.51 L 41.00 14.01 L 40.13 14.51 L 40.13 15.51 Z" />
      <path d="M 45.00 16.01 L 45.87 15.51 L 45.87 14.51 L 45.00 14.01 L 44.13 14.51 L 44.13 15.51 Z" />
      <path d="M 49.00 16.01 L 49.87 15.51 L 49.87 14.51 L 49.00 14.01 L 48.13 14.51 L 48.13 15.51 Z" />
      <path d="M 53.00 16.01 L 53.87 15.51 L 53.87 14.51 L 53.00 14.01 L 52.13 14.51 L 52.13 15.51 Z" />
      <path d="M 59.00 16.01 L 59.87 15.51 L 59.87 14.51 L 59.00 14.01 L 58.13 14.51 L 58.13 15.51 Z" />
      <path d="M 4.00 17.74 L 4.87 17.24 L 4.87 16.24 L 4.00 15.74 L 3.13 16.24 L 3.13 17.24 Z" />
      <path d="M 8.00 17.74 L 8.87 17.24 L 8.87 16.24 L 8.00 15.74 L 7.13 16.24 L 7.13 17.24 Z" />
      <path d="M 12.00 17.74 L 12.87 17.24 L 12.87 16.24 L 12.00 15.74 L 11.13 16.24 L 11.13 17.24 Z" />
      <path d="M 16.00 17.74 L 16.87 17.24 L 16.87 16.24 L 16.00 15.74 L 15.13 16.24 L 15.13 17.24 Z" />
      <path d="M 18.00 17.74 L 18.87 17.24 L 18.87 16.24 L 18.00 15.74 L 17.13 16.24 L 17.13 17.24 Z" />
      <path d="M 20.00 17.74 L 20.87 17.24 L 20.87 16.24 L 20.00 15.74 L 19.13 16.24 L 19.13 17.24 Z" />
      <path d="M 22.00 17.74 L 22.87 17.24 L 22.87 16.24 L 22.00 15.74 L 21.13 16.24 L 21.13 17.24 Z" />
      <path d="M 24.00 17.74 L 24.87 17.24 L 24.87 16.24 L 24.00 15.74 L 23.13 16.24 L 23.13 17.24 Z" />
      <path d="M 38.00 17.74 L 38.87 17.24 L 38.87 16.24 L 38.00 15.74 L 37.13 16.24 L 37.13 17.24 Z" />
      <path d="M 40.00 17.74 L 40.87 17.24 L 40.87 16.24 L 40.00 15.74 L 39.13 16.24 L 39.13 17.24 Z" />
      <path d="M 48.00 17.74 L 48.87 17.24 L 48.87 16.24 L 48.00 15.74 L 47.13 16.24 L 47.13 17.24 Z" />
      <path d="M 52.00 17.74 L 52.87 17.24 L 52.87 16.24 L 52.00 15.74 L 51.13 16.24 L 51.13 17.24 Z" />
      <path d="M 56.00 17.74 L 56.87 17.24 L 56.87 16.24 L 56.00 15.74 L 55.13 16.24 L 55.13 17.24 Z" />
      <path d="M 17.00 19.47 L 17.87 18.97 L 17.87 17.97 L 17.00 17.47 L 16.13 17.97 L 16.13 18.97 Z" />
      <path d="M 19.00 19.47 L 19.87 18.97 L 19.87 17.97 L 19.00 17.47 L 18.13 17.97 L 18.13 18.97 Z" />
      <path d="M 21.00 19.47 L 21.87 18.97 L 21.87 17.97 L 21.00 17.47 L 20.13 17.97 L 20.13 18.97 Z" />
      <path d="M 23.00 19.47 L 23.87 18.97 L 23.87 17.97 L 23.00 17.47 L 22.13 17.97 L 22.13 18.97 Z" />
      <path d="M 29.00 19.47 L 29.87 18.97 L 29.87 17.97 L 29.00 17.47 L 28.13 17.97 L 28.13 18.97 Z" />
      <path d="M 31.00 19.47 L 31.87 18.97 L 31.87 17.97 L 31.00 17.47 L 30.13 17.97 L 30.13 18.97 Z" />
      <path d="M 33.00 19.47 L 33.87 18.97 L 33.87 17.97 L 33.00 17.47 L 32.13 17.97 L 32.13 18.97 Z" />
      <path d="M 43.00 19.47 L 43.87 18.97 L 43.87 17.97 L 43.00 17.47 L 42.13 17.97 L 42.13 18.97 Z" />
      <path d="M 2.00 21.21 L 2.87 20.71 L 2.87 19.71 L 2.00 19.21 L 1.13 19.71 L 1.13 20.71 Z" />
      <path d="M 6.00 21.21 L 6.87 20.71 L 6.87 19.71 L 6.00 19.21 L 5.13 19.71 L 5.13 20.71 Z" />
      <path d="M 10.00 21.21 L 10.87 20.71 L 10.87 19.71 L 10.00 19.21 L 9.13 19.71 L 9.13 20.71 Z" />
      <path d="M 14.00 21.21 L 14.87 20.71 L 14.87 19.71 L 14.00 19.21 L 13.13 19.71 L 13.13 20.71 Z" />
      <path d="M 18.00 21.21 L 18.87 20.71 L 18.87 19.71 L 18.00 19.21 L 17.13 19.71 L 17.13 20.71 Z" />
      <path d="M 20.00 21.21 L 20.87 20.71 L 20.87 19.71 L 20.00 19.21 L 19.13 19.71 L 19.13 20.71 Z" />
      <path d="M 38.00 21.21 L 38.87 20.71 L 38.87 19.71 L 38.00 19.21 L 37.13 19.71 L 37.13 20.71 Z" />
      <path d="M 44.00 21.21 L 44.87 20.71 L 44.87 19.71 L 44.00 19.21 L 43.13 19.71 L 43.13 20.71 Z" />
      <path d="M 46.00 21.21 L 46.87 20.71 L 46.87 19.71 L 46.00 19.21 L 45.13 19.71 L 45.13 20.71 Z" />
      <path d="M 50.00 21.21 L 50.87 20.71 L 50.87 19.71 L 50.00 19.21 L 49.13 19.71 L 49.13 20.71 Z" />
      <path d="M 54.00 21.21 L 54.87 20.71 L 54.87 19.71 L 54.00 19.21 L 53.13 19.71 L 53.13 20.71 Z" />
      <path d="M 58.00 21.21 L 58.87 20.71 L 58.87 19.71 L 58.00 19.21 L 57.13 19.71 L 57.13 20.71 Z" />
      <path d="M 3.00 22.94 L 3.87 22.44 L 3.87 21.44 L 3.00 20.94 L 2.13 21.44 L 2.13 22.44 Z" />
      <path d="M 7.00 22.94 L 7.87 22.44 L 7.87 21.44 L 7.00 20.94 L 6.13 21.44 L 6.13 22.44 Z" />
      <path d="M 11.00 22.94 L 11.87 22.44 L 11.87 21.44 L 11.00 20.94 L 10.13 21.44 L 10.13 22.44 Z" />
      <path d="M 13.00 22.94 L 13.87 22.44 L 13.87 21.44 L 13.00 20.94 L 12.13 21.44 L 12.13 22.44 Z" />
      <path d="M 17.00 22.94 L 17.87 22.44 L 17.87 21.44 L 17.00 20.94 L 16.13 21.44 L 16.13 22.44 Z" />
      <path d="M 19.00 22.94 L 19.87 22.44 L 19.87 21.44 L 19.00 20.94 L 18.13 21.44 L 18.13 22.44 Z" />
      <path d="M 37.00 22.94 L 37.87 22.44 L 37.87 21.44 L 37.00 20.94 L 36.13 21.44 L 36.13 22.44 Z" />
      <path d="M 47.00 22.94 L 47.87 22.44 L 47.87 21.44 L 47.00 20.94 L 46.13 21.44 L 46.13 22.44 Z" />
      <path d="M 51.00 22.94 L 51.87 22.44 L 51.87 21.44 L 51.00 20.94 L 50.13 21.44 L 50.13 22.44 Z" />
      <path d="M 55.00 22.94 L 55.87 22.44 L 55.87 21.44 L 55.00 20.94 L 54.13 21.44 L 54.13 22.44 Z" />
      <path d="M 57.00 22.94 L 57.87 22.44 L 57.87 21.44 L 57.00 20.94 L 56.13 21.44 L 56.13 22.44 Z" />
      <path d="M 38.00 24.67 L 38.87 24.17 L 38.87 23.17 L 38.00 22.67 L 37.13 23.17 L 37.13 24.17 Z" />
      <path d="M 40.00 24.67 L 40.87 24.17 L 40.87 23.17 L 40.00 22.67 L 39.13 23.17 L 39.13 24.17 Z" />
      <path d="M 42.00 24.67 L 42.87 24.17 L 42.87 23.17 L 42.00 22.67 L 41.13 23.17 L 41.13 24.17 Z" />
      <path d="M 1.00 26.40 L 1.87 25.90 L 1.87 24.90 L 1.00 24.40 L 0.13 24.90 L 0.13 25.90 Z" />
      <path d="M 5.00 26.40 L 5.87 25.90 L 5.87 24.90 L 5.00 24.40 L 4.13 24.90 L 4.13 25.90 Z" />
      <path d="M 9.00 26.40 L 9.87 25.90 L 9.87 24.90 L 9.00 24.40 L 8.13 24.90 L 8.13 25.90 Z" />
      <path d="M 19.00 26.40 L 19.87 25.90 L 19.87 24.90 L 19.00 24.40 L 18.13 24.90 L 18.13 25.90 Z" />
      <path d="M 39.00 26.40 L 39.87 25.90 L 39.87 24.90 L 39.00 24.40 L 38.13 24.90 L 38.13 25.90 Z" />
      <path d="M 41.00 26.40 L 41.87 25.90 L 41.87 24.90 L 41.00 24.40 L 40.13 24.90 L 40.13 25.90 Z" />
      <path d="M 45.00 26.40 L 45.87 25.90 L 45.87 24.90 L 45.00 24.40 L 44.13 24.90 L 44.13 25.90 Z" />
      <path d="M 49.00 26.40 L 49.87 25.90 L 49.87 24.90 L 49.00 24.40 L 48.13 24.90 L 48.13 25.90 Z" />
      <path d="M 53.00 26.40 L 53.87 25.90 L 53.87 24.90 L 53.00 24.40 L 52.13 24.90 L 52.13 25.90 Z" />
      <path d="M 4.00 28.13 L 4.87 27.63 L 4.87 26.63 L 4.00 26.13 L 3.13 26.63 L 3.13 27.63 Z" />
      <path d="M 8.00 28.13 L 8.87 27.63 L 8.87 26.63 L 8.00 26.13 L 7.13 26.63 L 7.13 27.63 Z" />
      <path d="M 12.00 28.13 L 12.87 27.63 L 12.87 26.63 L 12.00 26.13 L 11.13 26.63 L 11.13 27.63 Z" />
      <path d="M 14.00 28.13 L 14.87 27.63 L 14.87 26.63 L 14.00 26.13 L 13.13 26.63 L 13.13 27.63 Z" />
      <path d="M 16.00 28.13 L 16.87 27.63 L 16.87 26.63 L 16.00 26.13 L 15.13 26.63 L 15.13 27.63 Z" />
      <path d="M 42.00 28.13 L 42.87 27.63 L 42.87 26.63 L 42.00 26.13 L 41.13 26.63 L 41.13 27.63 Z" />
      <path d="M 48.00 28.13 L 48.87 27.63 L 48.87 26.63 L 48.00 26.13 L 47.13 26.63 L 47.13 27.63 Z" />
      <path d="M 52.00 28.13 L 52.87 27.63 L 52.87 26.63 L 52.00 26.13 L 51.13 26.63 L 51.13 27.63 Z" />
      <path d="M 56.00 28.13 L 56.87 27.63 L 56.87 26.63 L 56.00 26.13 L 55.13 26.63 L 55.13 27.63 Z" />
      <path d="M 58.00 28.13 L 58.87 27.63 L 58.87 26.63 L 58.00 26.13 L 57.13 26.63 L 57.13 27.63 Z" />
      <path d="M 13.00 29.87 L 13.87 29.37 L 13.87 28.37 L 13.00 27.87 L 12.13 28.37 L 12.13 29.37 Z" />
      <path d="M 17.00 29.87 L 17.87 29.37 L 17.87 28.37 L 17.00 27.87 L 16.13 28.37 L 16.13 29.37 Z" />
      <path d="M 41.00 29.87 L 41.87 29.37 L 41.87 28.37 L 41.00 27.87 L 40.13 28.37 L 40.13 29.37 Z" />
      <path d="M 57.00 29.87 L 57.87 29.37 L 57.87 28.37 L 57.00 27.87 L 56.13 28.37 L 56.13 29.37 Z" />
      <path d="M 2.00 31.60 L 2.87 31.10 L 2.87 30.10 L 2.00 29.60 L 1.13 30.10 L 1.13 31.10 Z" />
      <path d="M 6.00 31.60 L 6.87 31.10 L 6.87 30.10 L 6.00 29.60 L 5.13 30.10 L 5.13 31.10 Z" />
      <path d="M 10.00 31.60 L 10.87 31.10 L 10.87 30.10 L 10.00 29.60 L 9.13 30.10 L 9.13 31.10 Z" />
      <path d="M 42.00 31.60 L 42.87 31.10 L 42.87 30.10 L 42.00 29.60 L 41.13 30.10 L 41.13 31.10 Z" />
      <path d="M 44.00 31.60 L 44.87 31.10 L 44.87 30.10 L 44.00 29.60 L 43.13 30.10 L 43.13 31.10 Z" />
      <path d="M 46.00 31.60 L 46.87 31.10 L 46.87 30.10 L 46.00 29.60 L 45.13 30.10 L 45.13 31.10 Z" />
      <path d="M 50.00 31.60 L 50.87 31.10 L 50.87 30.10 L 50.00 29.60 L 49.13 30.10 L 49.13 31.10 Z" />
      <path d="M 54.00 31.60 L 54.87 31.10 L 54.87 30.10 L 54.00 29.60 L 53.13 30.10 L 53.13 31.10 Z" />
      <path d="M 3.00 33.33 L 3.87 32.83 L 3.87 31.83 L 3.00 31.33 L 2.13 31.83 L 2.13 32.83 Z" />
      <path d="M 7.00 33.33 L 7.87 32.83 L 7.87 31.83 L 7.00 31.33 L 6.13 31.83 L 6.13 32.83 Z" />
      <path d="M 11.00 33.33 L 11.87 32.83 L 11.87 31.83 L 11.00 31.33 L 10.13 31.83 L 10.13 32.83 Z" />
      <path d="M 13.00 33.33 L 13.87 32.83 L 13.87 31.83 L 13.00 31.33 L 12.13 31.83 L 12.13 32.83 Z" />
      <path d="M 15.00 33.33 L 15.87 32.83 L 15.87 31.83 L 15.00 31.33 L 14.13 31.83 L 14.13 32.83 Z" />
      <path d="M 17.00 33.33 L 17.87 32.83 L 17.87 31.83 L 17.00 31.33 L 16.13 31.83 L 16.13 32.83 Z" />
      <path d="M 19.00 33.33 L 19.87 32.83 L 19.87 31.83 L 19.00 31.33 L 18.13 31.83 L 18.13 32.83 Z" />
      <path d="M 41.00 33.33 L 41.87 32.83 L 41.87 31.83 L 41.00 31.33 L 40.13 31.83 L 40.13 32.83 Z" />
      <path d="M 47.00 33.33 L 47.87 32.83 L 47.87 31.83 L 47.00 31.33 L 46.13 31.83 L 46.13 32.83 Z" />
      <path d="M 51.00 33.33 L 51.87 32.83 L 51.87 31.83 L 51.00 31.33 L 50.13 31.83 L 50.13 32.83 Z" />
      <path d="M 55.00 33.33 L 55.87 32.83 L 55.87 31.83 L 55.00 31.33 L 54.13 31.83 L 54.13 32.83 Z" />
      <path d="M 57.00 33.33 L 57.87 32.83 L 57.87 31.83 L 57.00 31.33 L 56.13 31.83 L 56.13 32.83 Z" />
      <path d="M 59.00 33.33 L 59.87 32.83 L 59.87 31.83 L 59.00 31.33 L 58.13 31.83 L 58.13 32.83 Z" />
      <path d="M 16.00 35.06 L 16.87 34.56 L 16.87 33.56 L 16.00 33.06 L 15.13 33.56 L 15.13 34.56 Z" />
      <path d="M 18.00 35.06 L 18.87 34.56 L 18.87 33.56 L 18.00 33.06 L 17.13 33.56 L 17.13 34.56 Z" />
      <path d="M 38.00 35.06 L 38.87 34.56 L 38.87 33.56 L 38.00 33.06 L 37.13 33.56 L 37.13 34.56 Z" />
      <path d="M 40.00 35.06 L 40.87 34.56 L 40.87 33.56 L 40.00 33.06 L 39.13 33.56 L 39.13 34.56 Z" />
      <path d="M 44.00 35.06 L 44.87 34.56 L 44.87 33.56 L 44.00 33.06 L 43.13 33.56 L 43.13 34.56 Z" />
      <path d="M 58.00 35.06 L 58.87 34.56 L 58.87 33.56 L 58.00 33.06 L 57.13 33.56 L 57.13 34.56 Z" />
      <path d="M 1.00 36.79 L 1.87 36.29 L 1.87 35.29 L 1.00 34.79 L 0.13 35.29 L 0.13 36.29 Z" />
      <path d="M 5.00 36.79 L 5.87 36.29 L 5.87 35.29 L 5.00 34.79 L 4.13 35.29 L 4.13 36.29 Z" />
      <path d="M 9.00 36.79 L 9.87 36.29 L 9.87 35.29 L 9.00 34.79 L 8.13 35.29 L 8.13 36.29 Z" />
      <path d="M 19.00 36.79 L 19.87 36.29 L 19.87 35.29 L 19.00 34.79 L 18.13 35.29 L 18.13 36.29 Z" />
      <path d="M 37.00 36.79 L 37.87 36.29 L 37.87 35.29 L 37.00 34.79 L 36.13 35.29 L 36.13 36.29 Z" />
      <path d="M 41.00 36.79 L 41.87 36.29 L 41.87 35.29 L 41.00 34.79 L 40.13 35.29 L 40.13 36.29 Z" />
      <path d="M 45.00 36.79 L 45.87 36.29 L 45.87 35.29 L 45.00 34.79 L 44.13 35.29 L 44.13 36.29 Z" />
      <path d="M 49.00 36.79 L 49.87 36.29 L 49.87 35.29 L 49.00 34.79 L 48.13 35.29 L 48.13 36.29 Z" />
      <path d="M 53.00 36.79 L 53.87 36.29 L 53.87 35.29 L 53.00 34.79 L 52.13 35.29 L 52.13 36.29 Z" />
      <path d="M 57.00 36.79 L 57.87 36.29 L 57.87 35.29 L 57.00 34.79 L 56.13 35.29 L 56.13 36.29 Z" />
      <path d="M 59.00 36.79 L 59.87 36.29 L 59.87 35.29 L 59.00 34.79 L 58.13 35.29 L 58.13 36.29 Z" />
      <path d="M 4.00 38.53 L 4.87 38.03 L 4.87 37.03 L 4.00 36.53 L 3.13 37.03 L 3.13 38.03 Z" />
      <path d="M 8.00 38.53 L 8.87 38.03 L 8.87 37.03 L 8.00 36.53 L 7.13 37.03 L 7.13 38.03 Z" />
      <path d="M 12.00 38.53 L 12.87 38.03 L 12.87 37.03 L 12.00 36.53 L 11.13 37.03 L 11.13 38.03 Z" />
      <path d="M 16.00 38.53 L 16.87 38.03 L 16.87 37.03 L 16.00 36.53 L 15.13 37.03 L 15.13 38.03 Z" />
      <path d="M 18.00 38.53 L 18.87 38.03 L 18.87 37.03 L 18.00 36.53 L 17.13 37.03 L 17.13 38.03 Z" />
      <path d="M 36.00 38.53 L 36.87 38.03 L 36.87 37.03 L 36.00 36.53 L 35.13 37.03 L 35.13 38.03 Z" />
      <path d="M 42.00 38.53 L 42.87 38.03 L 42.87 37.03 L 42.00 36.53 L 41.13 37.03 L 41.13 38.03 Z" />
      <path d="M 48.00 38.53 L 48.87 38.03 L 48.87 37.03 L 48.00 36.53 L 47.13 37.03 L 47.13 38.03 Z" />
      <path d="M 52.00 38.53 L 52.87 38.03 L 52.87 37.03 L 52.00 36.53 L 51.13 37.03 L 51.13 38.03 Z" />
      <path d="M 56.00 38.53 L 56.87 38.03 L 56.87 37.03 L 56.00 36.53 L 55.13 37.03 L 55.13 38.03 Z" />
      <path d="M 17.00 40.26 L 17.87 39.76 L 17.87 38.76 L 17.00 38.26 L 16.13 38.76 L 16.13 39.76 Z" />
      <path d="M 21.00 40.26 L 21.87 39.76 L 21.87 38.76 L 21.00 38.26 L 20.13 38.76 L 20.13 39.76 Z" />
      <path d="M 25.00 40.26 L 25.87 39.76 L 25.87 38.76 L 25.00 38.26 L 24.13 38.76 L 24.13 39.76 Z" />
      <path d="M 29.00 40.26 L 29.87 39.76 L 29.87 38.76 L 29.00 38.26 L 28.13 38.76 L 28.13 39.76 Z" />
      <path d="M 33.00 40.26 L 33.87 39.76 L 33.87 38.76 L 33.00 38.26 L 32.13 38.76 L 32.13 39.76 Z" />
      <path d="M 35.00 40.26 L 35.87 39.76 L 35.87 38.76 L 35.00 38.26 L 34.13 38.76 L 34.13 39.76 Z" />
      <path d="M 37.00 40.26 L 37.87 39.76 L 37.87 38.76 L 37.00 38.26 L 36.13 38.76 L 36.13 39.76 Z" />
      <path d="M 39.00 40.26 L 39.87 39.76 L 39.87 38.76 L 39.00 38.26 L 38.13 38.76 L 38.13 39.76 Z" />
      <path d="M 41.00 40.26 L 41.87 39.76 L 41.87 38.76 L 41.00 38.26 L 40.13 38.76 L 40.13 39.76 Z" />
      <path d="M 43.00 40.26 L 43.87 39.76 L 43.87 38.76 L 43.00 38.26 L 42.13 38.76 L 42.13 39.76 Z" />
      <path d="M 57.00 40.26 L 57.87 39.76 L 57.87 38.76 L 57.00 38.26 L 56.13 38.76 L 56.13 39.76 Z" />
      <path d="M 59.00 40.26 L 59.87 39.76 L 59.87 38.76 L 59.00 38.26 L 58.13 38.76 L 58.13 39.76 Z" />
      <path d="M 2.00 41.99 L 2.87 41.49 L 2.87 40.49 L 2.00 39.99 L 1.13 40.49 L 1.13 41.49 Z" />
      <path d="M 6.00 41.99 L 6.87 41.49 L 6.87 40.49 L 6.00 39.99 L 5.13 40.49 L 5.13 41.49 Z" />
      <path d="M 10.00 41.99 L 10.87 41.49 L 10.87 40.49 L 10.00 39.99 L 9.13 40.49 L 9.13 41.49 Z" />
      <path d="M 14.00 41.99 L 14.87 41.49 L 14.87 40.49 L 14.00 39.99 L 13.13 40.49 L 13.13 41.49 Z" />
      <path d="M 18.00 41.99 L 18.87 41.49 L 18.87 40.49 L 18.00 39.99 L 17.13 40.49 L 17.13 41.49 Z" />
      <path d="M 22.00 41.99 L 22.87 41.49 L 22.87 40.49 L 22.00 39.99 L 21.13 40.49 L 21.13 41.49 Z" />
      <path d="M 24.00 41.99 L 24.87 41.49 L 24.87 40.49 L 24.00 39.99 L 23.13 40.49 L 23.13 41.49 Z" />
      <path d="M 26.00 41.99 L 26.87 41.49 L 26.87 40.49 L 26.00 39.99 L 25.13 40.49 L 25.13 41.49 Z" />
      <path d="M 28.00 41.99 L 28.87 41.49 L 28.87 40.49 L 28.00 39.99 L 27.13 40.49 L 27.13 41.49 Z" />
      <path d="M 36.00 41.99 L 36.87 41.49 L 36.87 40.49 L 36.00 39.99 L 35.13 40.49 L 35.13 41.49 Z" />
      <path d="M 40.00 41.99 L 40.87 41.49 L 40.87 40.49 L 40.00 39.99 L 39.13 40.49 L 39.13 41.49 Z" />
      <path d="M 44.00 41.99 L 44.87 41.49 L 44.87 40.49 L 44.00 39.99 L 43.13 40.49 L 43.13 41.49 Z" />
      <path d="M 46.00 41.99 L 46.87 41.49 L 46.87 40.49 L 46.00 39.99 L 45.13 40.49 L 45.13 41.49 Z" />
      <path d="M 50.00 41.99 L 50.87 41.49 L 50.87 40.49 L 50.00 39.99 L 49.13 40.49 L 49.13 41.49 Z" />
      <path d="M 54.00 41.99 L 54.87 41.49 L 54.87 40.49 L 54.00 39.99 L 53.13 40.49 L 53.13 41.49 Z" />
      <path d="M 58.00 41.99 L 58.87 41.49 L 58.87 40.49 L 58.00 39.99 L 57.13 40.49 L 57.13 41.49 Z" />
      <path d="M 3.00 43.72 L 3.87 43.22 L 3.87 42.22 L 3.00 41.72 L 2.13 42.22 L 2.13 43.22 Z" />
      <path d="M 7.00 43.72 L 7.87 43.22 L 7.87 42.22 L 7.00 41.72 L 6.13 42.22 L 6.13 43.22 Z" />
      <path d="M 11.00 43.72 L 11.87 43.22 L 11.87 42.22 L 11.00 41.72 L 10.13 42.22 L 10.13 43.22 Z" />
      <path d="M 15.00 43.72 L 15.87 43.22 L 15.87 42.22 L 15.00 41.72 L 14.13 42.22 L 14.13 43.22 Z" />
      <path d="M 19.00 43.72 L 19.87 43.22 L 19.87 42.22 L 19.00 41.72 L 18.13 42.22 L 18.13 43.22 Z" />
      <path d="M 23.00 43.72 L 23.87 43.22 L 23.87 42.22 L 23.00 41.72 L 22.13 42.22 L 22.13 43.22 Z" />
      <path d="M 27.00 43.72 L 27.87 43.22 L 27.87 42.22 L 27.00 41.72 L 26.13 42.22 L 26.13 43.22 Z" />
      <path d="M 31.00 43.72 L 31.87 43.22 L 31.87 42.22 L 31.00 41.72 L 30.13 42.22 L 30.13 43.22 Z" />
      <path d="M 35.00 43.72 L 35.87 43.22 L 35.87 42.22 L 35.00 41.72 L 34.13 42.22 L 34.13 43.22 Z" />
      <path d="M 39.00 43.72 L 39.87 43.22 L 39.87 42.22 L 39.00 41.72 L 38.13 42.22 L 38.13 43.22 Z" />
      <path d="M 41.00 43.72 L 41.87 43.22 L 41.87 42.22 L 41.00 41.72 L 40.13 42.22 L 40.13 43.22 Z" />
      <path d="M 43.00 43.72 L 43.87 43.22 L 43.87 42.22 L 43.00 41.72 L 42.13 42.22 L 42.13 43.22 Z" />
      <path d="M 45.00 43.72 L 45.87 43.22 L 45.87 42.22 L 45.00 41.72 L 44.13 42.22 L 44.13 43.22 Z" />
      <path d="M 47.00 43.72 L 47.87 43.22 L 47.87 42.22 L 47.00 41.72 L 46.13 42.22 L 46.13 43.22 Z" />
      <path d="M 51.00 43.72 L 51.87 43.22 L 51.87 42.22 L 51.00 41.72 L 50.13 42.22 L 50.13 43.22 Z" />
      <path d="M 55.00 43.72 L 55.87 43.22 L 55.87 42.22 L 55.00 41.72 L 54.13 42.22 L 54.13 43.22 Z" />
      <path d="M 57.00 43.72 L 57.87 43.22 L 57.87 42.22 L 57.00 41.72 L 56.13 42.22 L 56.13 43.22 Z" />
      <path d="M 59.00 43.72 L 59.87 43.22 L 59.87 42.22 L 59.00 41.72 L 58.13 42.22 L 58.13 43.22 Z" />
      <path d="M 42.00 45.45 L 42.87 44.95 L 42.87 43.95 L 42.00 43.45 L 41.13 43.95 L 41.13 44.95 Z" />
      <path d="M 44.00 45.45 L 44.87 44.95 L 44.87 43.95 L 44.00 43.45 L 43.13 43.95 L 43.13 44.95 Z" />
      <path d="M 46.00 45.45 L 46.87 44.95 L 46.87 43.95 L 46.00 43.45 L 45.13 43.95 L 45.13 44.95 Z" />
      <path d="M 48.00 45.45 L 48.87 44.95 L 48.87 43.95 L 48.00 43.45 L 47.13 43.95 L 47.13 44.95 Z" />
      <path d="M 52.00 45.45 L 52.87 44.95 L 52.87 43.95 L 52.00 43.45 L 51.13 43.95 L 51.13 44.95 Z" />
      <path d="M 56.00 45.45 L 56.87 44.95 L 56.87 43.95 L 56.00 43.45 L 55.13 43.95 L 55.13 44.95 Z" />
      <path d="M 58.00 45.45 L 58.87 44.95 L 58.87 43.95 L 58.00 43.45 L 57.13 43.95 L 57.13 44.95 Z" />
      <path d="M 1.00 47.19 L 1.87 46.69 L 1.87 45.69 L 1.00 45.19 L 0.13 45.69 L 0.13 46.69 Z" />
      <path d="M 5.00 47.19 L 5.87 46.69 L 5.87 45.69 L 5.00 45.19 L 4.13 45.69 L 4.13 46.69 Z" />
      <path d="M 9.00 47.19 L 9.87 46.69 L 9.87 45.69 L 9.00 45.19 L 8.13 45.69 L 8.13 46.69 Z" />
      <path d="M 13.00 47.19 L 13.87 46.69 L 13.87 45.69 L 13.00 45.19 L 12.13 45.69 L 12.13 46.69 Z" />
      <path d="M 17.00 47.19 L 17.87 46.69 L 17.87 45.69 L 17.00 45.19 L 16.13 45.69 L 16.13 46.69 Z" />
      <path d="M 21.00 47.19 L 21.87 46.69 L 21.87 45.69 L 21.00 45.19 L 20.13 45.69 L 20.13 46.69 Z" />
      <path d="M 25.00 47.19 L 25.87 46.69 L 25.87 45.69 L 25.00 45.19 L 24.13 45.69 L 24.13 46.69 Z" />
      <path d="M 29.00 47.19 L 29.87 46.69 L 29.87 45.69 L 29.00 45.19 L 28.13 45.69 L 28.13 46.69 Z" />
      <path d="M 33.00 47.19 L 33.87 46.69 L 33.87 45.69 L 33.00 45.19 L 32.13 45.69 L 32.13 46.69 Z" />
      <path d="M 37.00 47.19 L 37.87 46.69 L 37.87 45.69 L 37.00 45.19 L 36.13 45.69 L 36.13 46.69 Z" />
      <path d="M 57.00 47.19 L 57.87 46.69 L 57.87 45.69 L 57.00 45.19 L 56.13 45.69 L 56.13 46.69 Z" />
      <path d="M 2.00 48.92 L 2.87 48.42 L 2.87 47.42 L 2.00 46.92 L 1.13 47.42 L 1.13 48.42 Z" />
      <path d="M 4.00 48.92 L 4.87 48.42 L 4.87 47.42 L 4.00 46.92 L 3.13 47.42 L 3.13 48.42 Z" />
      <path d="M 6.00 48.92 L 6.87 48.42 L 6.87 47.42 L 6.00 46.92 L 5.13 47.42 L 5.13 48.42 Z" />
      <path d="M 8.00 48.92 L 8.87 48.42 L 8.87 47.42 L 8.00 46.92 L 7.13 47.42 L 7.13 48.42 Z" />
      <path d="M 10.00 48.92 L 10.87 48.42 L 10.87 47.42 L 10.00 46.92 L 9.13 47.42 L 9.13 48.42 Z" />
      <path d="M 12.00 48.92 L 12.87 48.42 L 12.87 47.42 L 12.00 46.92 L 11.13 47.42 L 11.13 48.42 Z" />
      <path d="M 14.00 48.92 L 14.87 48.42 L 14.87 47.42 L 14.00 46.92 L 13.13 47.42 L 13.13 48.42 Z" />
      <path d="M 16.00 48.92 L 16.87 48.42 L 16.87 47.42 L 16.00 46.92 L 15.13 47.42 L 15.13 48.42 Z" />
      <path d="M 26.00 48.92 L 26.87 48.42 L 26.87 47.42 L 26.00 46.92 L 25.13 47.42 L 25.13 48.42 Z" />
      <path d="M 28.00 48.92 L 28.87 48.42 L 28.87 47.42 L 28.00 46.92 L 27.13 47.42 L 27.13 48.42 Z" />
      <path d="M 30.00 48.92 L 30.87 48.42 L 30.87 47.42 L 30.00 46.92 L 29.13 47.42 L 29.13 48.42 Z" />
      <path d="M 32.00 48.92 L 32.87 48.42 L 32.87 47.42 L 32.00 46.92 L 31.13 47.42 L 31.13 48.42 Z" />
      <path d="M 44.00 48.92 L 44.87 48.42 L 44.87 47.42 L 44.00 46.92 L 43.13 47.42 L 43.13 48.42 Z" />
      <path d="M 48.00 48.92 L 48.87 48.42 L 48.87 47.42 L 48.00 46.92 L 47.13 47.42 L 47.13 48.42 Z" />
      <path d="M 3.00 50.65 L 3.87 50.15 L 3.87 49.15 L 3.00 48.65 L 2.13 49.15 L 2.13 50.15 Z" />
      <path d="M 7.00 50.65 L 7.87 50.15 L 7.87 49.15 L 7.00 48.65 L 6.13 49.15 L 6.13 50.15 Z" />
      <path d="M 9.00 50.65 L 9.87 50.15 L 9.87 49.15 L 9.00 48.65 L 8.13 49.15 L 8.13 50.15 Z" />
      <path d="M 13.00 50.65 L 13.87 50.15 L 13.87 49.15 L 13.00 48.65 L 12.13 49.15 L 12.13 50.15 Z" />
      <path d="M 17.00 50.65 L 17.87 50.15 L 17.87 49.15 L 17.00 48.65 L 16.13 49.15 L 16.13 50.15 Z" />
      <path d="M 19.00 50.65 L 19.87 50.15 L 19.87 49.15 L 19.00 48.65 L 18.13 49.15 L 18.13 50.15 Z" />
      <path d="M 21.00 50.65 L 21.87 50.15 L 21.87 49.15 L 21.00 48.65 L 20.13 49.15 L 20.13 50.15 Z" />
      <path d="M 23.00 50.65 L 23.87 50.15 L 23.87 49.15 L 23.00 48.65 L 22.13 49.15 L 22.13 50.15 Z" />
      <path d="M 33.00 50.65 L 33.87 50.15 L 33.87 49.15 L 33.00 48.65 L 32.13 49.15 L 32.13 50.15 Z" />
      <path d="M 35.00 50.65 L 35.87 50.15 L 35.87 49.15 L 35.00 48.65 L 34.13 49.15 L 34.13 50.15 Z" />
      <path d="M 37.00 50.65 L 37.87 50.15 L 37.87 49.15 L 37.00 48.65 L 36.13 49.15 L 36.13 50.15 Z" />
      <path d="M 39.00 50.65 L 39.87 50.15 L 39.87 49.15 L 39.00 48.65 L 38.13 49.15 L 38.13 50.15 Z" />
      <path d="M 43.00 50.65 L 43.87 50.15 L 43.87 49.15 L 43.00 48.65 L 42.13 49.15 L 42.13 50.15 Z" />
      <path d="M 47.00 50.65 L 47.87 50.15 L 47.87 49.15 L 47.00 48.65 L 46.13 49.15 L 46.13 50.15 Z" />
      <path d="M 51.00 50.65 L 51.87 50.15 L 51.87 49.15 L 51.00 48.65 L 50.13 49.15 L 50.13 50.15 Z" />
      <path d="M 55.00 50.65 L 55.87 50.15 L 55.87 49.15 L 55.00 48.65 L 54.13 49.15 L 54.13 50.15 Z" />
      <path d="M 2.00 52.38 L 2.87 51.88 L 2.87 50.88 L 2.00 50.38 L 1.13 50.88 L 1.13 51.88 Z" />
      <path d="M 6.00 52.38 L 6.87 51.88 L 6.87 50.88 L 6.00 50.38 L 5.13 50.88 L 5.13 51.88 Z" />
      <path d="M 10.00 52.38 L 10.87 51.88 L 10.87 50.88 L 10.00 50.38 L 9.13 50.88 L 9.13 51.88 Z" />
      <path d="M 14.00 52.38 L 14.87 51.88 L 14.87 50.88 L 14.00 50.38 L 13.13 50.88 L 13.13 51.88 Z" />
      <path d="M 28.00 52.38 L 28.87 51.88 L 28.87 50.88 L 28.00 50.38 L 27.13 50.88 L 27.13 51.88 Z" />
      <path d="M 32.00 52.38 L 32.87 51.88 L 32.87 50.88 L 32.00 50.38 L 31.13 50.88 L 31.13 51.88 Z" />
      <path d="M 36.00 52.38 L 36.87 51.88 L 36.87 50.88 L 36.00 50.38 L 35.13 50.88 L 35.13 51.88 Z" />
      <path d="M 40.00 52.38 L 40.87 51.88 L 40.87 50.88 L 40.00 50.38 L 39.13 50.88 L 39.13 51.88 Z" />
      <path d="M 42.00 52.38 L 42.87 51.88 L 42.87 50.88 L 42.00 50.38 L 41.13 50.88 L 41.13 51.88 Z" />
      <path d="M 44.00 52.38 L 44.87 51.88 L 44.87 50.88 L 44.00 50.38 L 43.13 50.88 L 43.13 51.88 Z" />
      <path d="M 46.00 52.38 L 46.87 51.88 L 46.87 50.88 L 46.00 50.38 L 45.13 50.88 L 45.13 51.88 Z" />
      <path d="M 48.00 52.38 L 48.87 51.88 L 48.87 50.88 L 48.00 50.38 L 47.13 50.88 L 47.13 51.88 Z" />
      <path d="M 50.00 52.38 L 50.87 51.88 L 50.87 50.88 L 50.00 50.38 L 49.13 50.88 L 49.13 51.88 Z" />
      <path d="M 54.00 52.38 L 54.87 51.88 L 54.87 50.88 L 54.00 50.38 L 53.13 50.88 L 53.13 51.88 Z" />
      <path d="M 58.00 52.38 L 58.87 51.88 L 58.87 50.88 L 58.00 50.38 L 57.13 50.88 L 57.13 51.88 Z" />
      <path d="M 1.00 54.11 L 1.87 53.61 L 1.87 52.61 L 1.00 52.11 L 0.13 52.61 L 0.13 53.61 Z" />
      <path d="M 3.00 54.11 L 3.87 53.61 L 3.87 52.61 L 3.00 52.11 L 2.13 52.61 L 2.13 53.61 Z" />
      <path d="M 5.00 54.11 L 5.87 53.61 L 5.87 52.61 L 5.00 52.11 L 4.13 52.61 L 4.13 53.61 Z" />
      <path d="M 7.00 54.11 L 7.87 53.61 L 7.87 52.61 L 7.00 52.11 L 6.13 52.61 L 6.13 53.61 Z" />
      <path d="M 11.00 54.11 L 11.87 53.61 L 11.87 52.61 L 11.00 52.11 L 10.13 52.61 L 10.13 53.61 Z" />
      <path d="M 15.00 54.11 L 15.87 53.61 L 15.87 52.61 L 15.00 52.11 L 14.13 52.61 L 14.13 53.61 Z" />
      <path d="M 17.00 54.11 L 17.87 53.61 L 17.87 52.61 L 17.00 52.11 L 16.13 52.61 L 16.13 53.61 Z" />
      <path d="M 21.00 54.11 L 21.87 53.61 L 21.87 52.61 L 21.00 52.11 L 20.13 52.61 L 20.13 53.61 Z" />
      <path d="M 33.00 54.11 L 33.87 53.61 L 33.87 52.61 L 33.00 52.11 L 32.13 52.61 L 32.13 53.61 Z" />
      <path d="M 35.00 54.11 L 35.87 53.61 L 35.87 52.61 L 35.00 52.11 L 34.13 52.61 L 34.13 53.61 Z" />
      <path d="M 37.00 54.11 L 37.87 53.61 L 37.87 52.61 L 37.00 52.11 L 36.13 52.61 L 36.13 53.61 Z" />
      <path d="M 39.00 54.11 L 39.87 53.61 L 39.87 52.61 L 39.00 52.11 L 38.13 52.61 L 38.13 53.61 Z" />
      <path d="M 43.00 54.11 L 43.87 53.61 L 43.87 52.61 L 43.00 52.11 L 42.13 52.61 L 42.13 53.61 Z" />
      <path d="M 47.00 54.11 L 47.87 53.61 L 47.87 52.61 L 47.00 52.11 L 46.13 52.61 L 46.13 53.61 Z" />
      <path d="M 49.00 54.11 L 49.87 53.61 L 49.87 52.61 L 49.00 52.11 L 48.13 52.61 L 48.13 53.61 Z" />
      <path d="M 53.00 54.11 L 53.87 53.61 L 53.87 52.61 L 53.00 52.11 L 52.13 52.61 L 52.13 53.61 Z" />
      <path d="M 57.00 54.11 L 57.87 53.61 L 57.87 52.61 L 57.00 52.11 L 56.13 52.61 L 56.13 53.61 Z" />
      <path d="M 4.00 55.85 L 4.87 55.35 L 4.87 54.35 L 4.00 53.85 L 3.13 54.35 L 3.13 55.35 Z" />
      <path d="M 8.00 55.85 L 8.87 55.35 L 8.87 54.35 L 8.00 53.85 L 7.13 54.35 L 7.13 55.35 Z" />
      <path d="M 10.00 55.85 L 10.87 55.35 L 10.87 54.35 L 10.00 53.85 L 9.13 54.35 L 9.13 55.35 Z" />
      <path d="M 14.00 55.85 L 14.87 55.35 L 14.87 54.35 L 14.00 53.85 L 13.13 54.35 L 13.13 55.35 Z" />
      <path d="M 18.00 55.85 L 18.87 55.35 L 18.87 54.35 L 18.00 53.85 L 17.13 54.35 L 17.13 55.35 Z" />
      <path d="M 20.00 55.85 L 20.87 55.35 L 20.87 54.35 L 20.00 53.85 L 19.13 54.35 L 19.13 55.35 Z" />
      <path d="M 22.00 55.85 L 22.87 55.35 L 22.87 54.35 L 22.00 53.85 L 21.13 54.35 L 21.13 55.35 Z" />
      <path d="M 24.00 55.85 L 24.87 55.35 L 24.87 54.35 L 24.00 53.85 L 23.13 54.35 L 23.13 55.35 Z" />
      <path d="M 28.00 55.85 L 28.87 55.35 L 28.87 54.35 L 28.00 53.85 L 27.13 54.35 L 27.13 55.35 Z" />
      <path d="M 32.00 55.85 L 32.87 55.35 L 32.87 54.35 L 32.00 53.85 L 31.13 54.35 L 31.13 55.35 Z" />
      <path d="M 34.00 55.85 L 34.87 55.35 L 34.87 54.35 L 34.00 53.85 L 33.13 54.35 L 33.13 55.35 Z" />
      <path d="M 38.00 55.85 L 38.87 55.35 L 38.87 54.35 L 38.00 53.85 L 37.13 54.35 L 37.13 55.35 Z" />
      <path d="M 42.00 55.85 L 42.87 55.35 L 42.87 54.35 L 42.00 53.85 L 41.13 54.35 L 41.13 55.35 Z" />
      <path d="M 46.00 55.85 L 46.87 55.35 L 46.87 54.35 L 46.00 53.85 L 45.13 54.35 L 45.13 55.35 Z" />
      <path d="M 50.00 55.85 L 50.87 55.35 L 50.87 54.35 L 50.00 53.85 L 49.13 54.35 L 49.13 55.35 Z" />
      <path d="M 52.00 55.85 L 52.87 55.35 L 52.87 54.35 L 52.00 53.85 L 51.13 54.35 L 51.13 55.35 Z" />
      <path d="M 54.00 55.85 L 54.87 55.35 L 54.87 54.35 L 54.00 53.85 L 53.13 54.35 L 53.13 55.35 Z" />
      <path d="M 56.00 55.85 L 56.87 55.35 L 56.87 54.35 L 56.00 53.85 L 55.13 54.35 L 55.13 55.35 Z" />
      <path d="M 3.00 57.58 L 3.87 57.08 L 3.87 56.08 L 3.00 55.58 L 2.13 56.08 L 2.13 57.08 Z" />
      <path d="M 7.00 57.58 L 7.87 57.08 L 7.87 56.08 L 7.00 55.58 L 6.13 56.08 L 6.13 57.08 Z" />
      <path d="M 27.00 57.58 L 27.87 57.08 L 27.87 56.08 L 27.00 55.58 L 26.13 56.08 L 26.13 57.08 Z" />
      <path d="M 31.00 57.58 L 31.87 57.08 L 31.87 56.08 L 31.00 55.58 L 30.13 56.08 L 30.13 57.08 Z" />
      <path d="M 33.00 57.58 L 33.87 57.08 L 33.87 56.08 L 33.00 55.58 L 32.13 56.08 L 32.13 57.08 Z" />
      <path d="M 37.00 57.58 L 37.87 57.08 L 37.87 56.08 L 37.00 55.58 L 36.13 56.08 L 36.13 57.08 Z" />
      <path d="M 41.00 57.58 L 41.87 57.08 L 41.87 56.08 L 41.00 55.58 L 40.13 56.08 L 40.13 57.08 Z" />
      <path d="M 45.00 57.58 L 45.87 57.08 L 45.87 56.08 L 45.00 55.58 L 44.13 56.08 L 44.13 57.08 Z" />
      <path d="M 51.00 57.58 L 51.87 57.08 L 51.87 56.08 L 51.00 55.58 L 50.13 56.08 L 50.13 57.08 Z" />
      <path d="M 55.00 57.58 L 55.87 57.08 L 55.87 56.08 L 55.00 55.58 L 54.13 56.08 L 54.13 57.08 Z" />
      <circle cx="29.00" cy="28.87" r="9.00" />
      <circle cx="29.00" cy="28.87" r="7.43" fill="#FFFFFF" />
      <circle cx="29.00" cy="28.87" r="5.86" />
      <circle cx="29.00" cy="28.87" r="4.29" fill="#FFFFFF" />
      <circle cx="29.00" cy="28.87" r="2.72" />
      <circle cx="29.00" cy="28.87" r="1.15" fill="#FFFFFF" />
   </g>
</svg>
