<?xml version="1.0" standalone="no"?>
<!DOCTYPE svg PUBLIC "-//W3C//DTD SVG 1.1//EN" "http://www.w3.org/Graphics/SVG/1.1/DTD/svg11.dtd">
<svg width="60" height="58" version="1.1" xmlns="http://www.w3.org/2000/svg">
 <desc>Zint Generated Symbol</desc>
 <g id="barcode" fill="#000000">
  <rect x="0" y="0" width="60" height="58" fill="#FFFFFF"/>
  <path d="M3 2.15L3.87 1.65L3.87 0.65L3 0.15L2.13 0.65L2.13 1.65ZM7 2.15L7.87 1.65L7.87 0.65L7 0.15L6.13 0.65L6.13 1.65ZM11 2.15L11.87 1.65L11.87 0.65L11 0.15L10.13 0.65L10.13 1.65ZM15 2.15L15.87 1.65L15.87 0.65L15 0.15L14.13 0.65L14.13 1.65ZM19 2.15L19.87 1.65L19.87 0.65L19 0.15L18.13 0.65L18.13 1.65ZM23 2.15L23.87 1.65L23.87 0.65L23 0.15L22.13 0.65L22.13 1.65ZM27 2.15L27.87 1.65L27.87 0.65L27 0.15L26.13 0.65L26.13 1.65ZM31 2.15L31.87 1.65L31.87 0.65L31 0.15L30.13 0.65L30.13 1.65ZM35 2.15L35.87 1.65L35.87 0.65L35 0.15L34.13 0.65L34.13 1.65ZM39 2.15L39.87 1.65L39.87 0.65L39 0.15L38.13 0.65L38.13 1.65ZM43 2.15L43.87 1.65L43.87 0.65L43 0.15L42.13 0.65L42.13 1.65ZM47 2.15L47.87 1.65L47.87 0.65L47 0.15L46.13 0.65L46.13 1.65ZM51 2.15L51.87 1.65L51.87 0.65L51 0.15L50.13 0.65L50.13 1.65ZM55 2.15L55.87 1.65L55.87 0.65L55 0.15L54.13 0.65L54.13 1.65ZM57 2.15L57.87 1.65L57.87 0.65L57 0.15L56.13 0.65L56.13 1.65ZM59 2.15L59.87 1.65L59.87 0.65L59 0.15L58.13 0.65L58.13 1.65ZM1 5.62L1.87 5.12L1.87 4.12L1 3.62L0.13 4.12L0.13 5.12ZM5 5.62L5.87 5.12L5.87 4.12L5 3.62L4.13 4.12L4.13 5.12ZM9 5.62L9.87 5.12L9.87 4.12L9 3.62L8.13 4.12L8.13 5.12ZM13 5.62L13.87 5.12L13.87 4.12L13 3.62L12.13 4.12L12.13 5.12ZM17 5.62L17.87 5.12L17.87 4.12L17 3.62L16.13 4.12L16.13 5.12ZM21 5.62L21.87 5.12L21.87 4.12L21 3.62L20.13 4.12L20.13 5.12ZM25 5.62L25.87 5.12L25.87 4.12L25 3.62L24.13 4.12L24.13 5.12ZM29 5.62L29.87 5.12L29.87 4.12L29 3.62L28.13 4.12L28.13 5.12ZM33 5.62L33.87 5.12L33.87 4.12L33 3.62L32.13 4.12L32.13 5.12ZM37 5.62L37.87 5.12L37.87 4.12L37 3.62L36.13 4.12L36.13 5.12ZM41 5.62L41.87 5.12L41.87 4.12L41 3.62L40.13 4.12L40.13 5.12ZM45 5.62L45.87 5.12L45.87 4.12L45 3.62L44.13 4.12L44.13 5.12ZM49 5.62L49.87 5.12L49.87 4.12L49 3.62L48.13 4.12L48.13 5.12ZM53 5.62L53.87 5.12L53.87 4.12L53 3.62L52.13 4.12L52.13 5.12ZM57 5.62L57.87 5.12L57.87 4.12L57 3.62L56.13 4.12L56.13 5.12ZM4 7.35L4.87 6.85L4.87 5.85L4 5.35L3.13 5.85L3.13 6.85ZM8 7.35L8.87 6.85L8.87 5.85L8 5.35L7.13 5.85L7.13 6.85ZM12 7.35L12.87 6.85L12.87 5.85L12 5.35L11.13 5.85L11.13 6.85ZM16 7.35L16.87 6.85L16.87 5.85L16 5.35L15.13 5.85L15.13 6.85ZM20 7.35L20.87 6.85L20.87 5.85L20 5.35L19.13 5.85L19.13 6.85ZM24 7.35L24.87 6.85L24.87 5.85L24 5.35L23.13 5.85L23.13 6.85ZM28 7.35L28.87 6.85L28.87 5.85L28 5.35L27.13 5.85L27.13 6.85ZM32 7.35L32.87 6.85L32.87 5.85L32 5.35L31.13 5.85L31.13 6.85ZM36 7.35L36.87 6.85L36.87 5.85L36 5.35L35.13 5.85L35.13 6.85ZM40 7.35L40.87 6.85L40.87 5.85L40 5.35L39.13 5.85L39.13 6.85ZM44 7.35L44.87 6.85L44.87 5.85L44 5.35L43.13 5.85L43.13 6.85ZM48 7.35L48.87 6.85L48.87 5.85L48 5.35L47.13 5.85L47.13 6.85ZM52 7.35L52.87 6.85L52.87 5.85L52 5.35L51.13 5.85L51.13 6.85ZM56 7.35L56.87 6.85L56.87 5.85L56 5.35L55.13 5.85L55.13 6.85ZM58 7.35L58.87 6.85L58.87 5.85L58 5.35L57.13 5.85L57.13 6.85ZM59 9.08L59.87 8.58L59.87 7.58L59 7.08L58.13 7.58L58.13 8.58ZM2 10.81L2.87 10.31L2.87 9.31L2 8.81L1.13 9.31L1.13 10.31ZM6 10.81L6.87 10.31L6.87 9.31L6 8.81L5.13 9.31L5.13 10.31ZM10 10.81L10.87 10.31L10.87 9.31L10 8.81L9.13 9.31L9.13 10.31ZM14 10.81L14.87 10.31L14.87 9.31L14 8.81L13.13 9.31L13.13 10.31ZM18 10.81L18.87 10.31L18.87 9.31L18 8.81L17.13 9.31L17.13 10.31ZM22 10.81L22.87 10.31L22.87 9.31L22 8.81L21.13 9.31L21.13 10.31ZM26 10.81L26.87 10.31L26.87 9.31L26 8.81L25.13 9.31L25.13 10.31ZM30 10.81L30.87 10.31L30.87 9.31L30 8.81L29.13 9.31L29.13 10.31ZM34 10.81L34.87 10.31L34.87 9.31L34 8.81L33.13 9.31L33.13 10.31ZM38 10.81L38.87 10.31L38.87 9.31L38 8.81L37.13 9.31L37.13 10.31ZM42 10.81L42.87 10.31L42.87 9.31L42 8.81L41.13 9.31L41.13 10.31ZM46 10.81L46.87 10.31L46.87 9.31L46 8.81L45.13 9.31L45.13 10.31ZM50 10.81L50.87 10.31L50.87 9.31L50 8.81L49.13 9.31L49.13 10.31ZM54 10.81L54.87 10.31L54.87 9.31L54 8.81L53.13 9.31L53.13 10.31ZM3 12.55L3.87 12.05L3.87 11.05L3 10.55L2.13 11.05L2.13 12.05ZM7 12.55L7.87 12.05L7.87 11.05L7 10.55L6.13 11.05L6.13 12.05ZM11 12.55L11.87 12.05L11.87 11.05L11 10.55L10.13 11.05L10.13 12.05ZM15 12.55L15.87 12.05L15.87 11.05L15 10.55L14.13 11.05L14.13 12.05ZM19 12.55L19.87 12.05L19.87 11.05L19 10.55L18.13 11.05L18.13 12.05ZM23 12.55L23.87 12.05L23.87 11.05L23 10.55L22.13 11.05L22.13 12.05ZM27 12.55L27.87 12.05L27.87 11.05L27 10.55L26.13 11.05L26.13 12.05ZM31 12.55L31.87 12.05L31.87 11.05L31 10.55L30.13 11.05L30.13 12.05ZM35 12.55L35.87 12.05L35.87 11.05L35 10.55L34.13 11.05L34.13 12.05ZM39 12.55L39.87 12.05L39.87 11.05L39 10.55L38.13 11.05L38.13 12.05ZM43 12.55L43.87 12.05L43.87 11.05L43 10.55L42.13 11.05L42.13 12.05ZM47 12.55L47.87 12.05L47.87 11.05L47 10.55L46.13 11.05L46.13 12.05ZM51 12.55L51.87 12.05L51.87 11.05L51 10.55L50.13 11.05L50.13 12.05ZM55 12.55L55.87 12.05L55.87 11.05L55 10.55L54.13 11.05L54.13 12.05ZM57 12.55L57.87 12.05L57.87 11.05L57 10.55L56.13 11.05L56.13 12.05ZM58 14.28L58.87 13.78L58.87 12.78L58 12.28L57.13 12.78L57.13 13.78ZM1 16.01L1.87 15.51L1.87 14.51L1 14.01L0.13 14.51L0.13 15.51ZM5 16.01L5.87 15.51L5.87 14.51L5 14.01L4.13 14.51L4.13 15.51ZM9 16.01L9.87 15.51L9.87 14.51L9 14.01L8.13 14.51L8.13 15.51ZM13 16.01L13.87 15.51L13.87 14.51L13 14.01L12.13 14.51L12.13 15.51ZM17 16.01L17.87 15.51L17.87 14.51L17 14.01L16.13 14.51L16.13 15.51ZM21 16.01L21.87 15.51L21.87 14.51L21 14.01L20.13 14.51L20.13 15.51ZM25 16.01L25.87 15.51L25.87 14.51L25 14.01L24.13 14.51L24.13 15.51ZM29 16.01L29.87 15.51L29.87 14.51L29 14.01L28.13 14.51L28.13 15.51ZM33 16.01L33.87 15.51L33.87 14.51L33 14.01L32.13 14.51L32.13 15.51ZM37 16.01L37.87 15.51L37.87 14.51L37 14.01L36.13 14.51L36.13 15.51ZM41 16.01L41.87 15.51L41.87 14.51L41 14.01L40.13 14.51L40.13 15.51ZM45 16.01L45.87 15.51L45.87 14.51L45 14.01L44.13 14.51L44.13 15.51ZM49 16.01L49.87 15.51L49.87 14.51L49 14.01L48.13 14.51L48.13 15.51ZM53 16.01L53.87 15.51L53.87 14.51L53 14.01L52.13 14.51L52.13 15.51ZM59 16.01L59.87 15.51L59.87 14.51L59 14.01L58.13 14.51L58.13 15.51ZM4 17.74L4.87 17.24L4.87 16.24L4 15.74L3.13 16.24L3.13 17.24ZM8 17.74L8.87 17.24L8.87 16.24L8 15.74L7.13 16.24L7.13 17.24ZM12 17.74L12.87 17.24L12.87 16.24L12 15.74L11.13 16.24L11.13 17.24ZM16 17.74L16.87 17.24L16.87 16.24L16 15.74L15.13 16.24L15.13 17.24ZM18 17.74L18.87 17.24L18.87 16.24L18 15.74L17.13 16.24L17.13 17.24ZM22 17.74L22.87 17.24L22.87 16.24L22 15.74L21.13 16.24L21.13 17.24ZM24 17.74L24.87 17.24L24.87 16.24L24 15.74L23.13 16.24L23.13 17.24ZM26 17.74L26.87 17.24L26.87 16.24L26 15.74L25.13 16.24L25.13 17.24ZM28 17.74L28.87 17.24L28.87 16.24L28 15.74L27.13 16.24L27.13 17.24ZM32 17.74L32.87 17.24L32.87 16.24L32 15.74L31.13 16.24L31.13 17.24ZM38 17.74L38.87 17.24L38.87 16.24L38 15.74L37.13 16.24L37.13 17.24ZM42 17.74L42.87 17.24L42.87 16.24L42 15.74L41.13 16.24L41.13 17.24ZM44 17.74L44.87 17.24L44.87 16.24L44 15.74L43.13 16.24L43.13 17.24ZM48 17.74L48.87 17.24L48.87 16.24L48 15.74L47.13 16.24L47.13 17.24ZM52 17.74L52.87 17.24L52.87 16.24L52 15.74L51.13 16.24L51.13 17.24ZM56 17.74L56.87 17.24L56.87 16.24L56 15.74L55.13 16.24L55.13 17.24ZM21 19.47L21.87 18.97L21.87 17.97L21 17.47L20.13 17.97L20.13 18.97ZM23 19.47L23.87 18.97L23.87 17.97L23 17.47L22.13 17.97L22.13 18.97ZM29 19.47L29.87 18.97L29.87 17.97L29 17.47L28.13 17.97L28.13 18.97ZM33 19.47L33.87 18.97L33.87 17.97L33 17.47L32.13 17.97L32.13 18.97ZM43 19.47L43.87 18.97L43.87 17.97L43 17.47L42.13 17.97L42.13 18.97ZM2 21.21L2.87 20.71L2.87 19.71L2 19.21L1.13 19.71L1.13 20.71ZM6 21.21L6.87 20.71L6.87 19.71L6 19.21L5.13 19.71L5.13 20.71ZM10 21.21L10.87 20.71L10.87 19.71L10 19.21L9.13 19.71L9.13 20.71ZM14 21.21L14.87 20.71L14.87 19.71L14 19.21L13.13 19.71L13.13 20.71ZM20 21.21L20.87 20.71L20.87 19.71L20 19.21L19.13 19.71L19.13 20.71ZM40 21.21L40.87 20.71L40.87 19.71L40 19.21L39.13 19.71L39.13 20.71ZM42 21.21L42.87 20.71L42.87 19.71L42 19.21L41.13 19.71L41.13 20.71ZM44 21.21L44.87 20.71L44.87 19.71L44 19.21L43.13 19.71L43.13 20.71ZM46 21.21L46.87 20.71L46.87 19.71L46 19.21L45.13 19.71L45.13 20.71ZM50 21.21L50.87 20.71L50.87 19.71L50 19.21L49.13 19.71L49.13 20.71ZM54 21.21L54.87 20.71L54.87 19.71L54 19.21L53.13 19.71L53.13 20.71ZM58 21.21L58.87 20.71L58.87 19.71L58 19.21L57.13 19.71L57.13 20.71ZM3 22.94L3.87 22.44L3.87 21.44L3 20.94L2.13 21.44L2.13 22.44ZM7 22.94L7.87 22.44L7.87 21.44L7 20.94L6.13 21.44L6.13 22.44ZM11 22.94L11.87 22.44L11.87 21.44L11 20.94L10.13 21.44L10.13 22.44ZM13 22.94L13.87 22.44L13.87 21.44L13 20.94L12.13 21.44L12.13 22.44ZM15 22.94L15.87 22.44L15.87 21.44L15 20.94L14.13 21.44L14.13 22.44ZM39 22.94L39.87 22.44L39.87 21.44L39 20.94L38.13 21.44L38.13 22.44ZM41 22.94L41.87 22.44L41.87 21.44L41 20.94L40.13 21.44L40.13 22.44ZM47 22.94L47.87 22.44L47.87 21.44L47 20.94L46.13 21.44L46.13 22.44ZM51 22.94L51.87 22.44L51.87 21.44L51 20.94L50.13 21.44L50.13 22.44ZM55 22.94L55.87 22.44L55.87 21.44L55 20.94L54.13 21.44L54.13 22.44ZM57 22.94L57.87 22.44L57.87 21.44L57 20.94L56.13 21.44L56.13 22.44ZM14 24.67L14.87 24.17L14.87 23.17L14 22.67L13.13 23.17L13.13 24.17ZM38 24.67L38.87 24.17L38.87 23.17L38 22.67L37.13 23.17L37.13 24.17ZM42 24.67L42.87 24.17L42.87 23.17L42 22.67L41.13 23.17L41.13 24.17ZM1 26.4L1.87 25.9L1.87 24.9L1 24.4L0.13 24.9L0.13 25.9ZM5 26.4L5.87 25.9L5.87 24.9L5 24.4L4.13 24.9L4.13 25.9ZM9 26.4L9.87 25.9L9.87 24.9L9 24.4L8.13 24.9L8.13 25.9ZM13 26.4L13.87 25.9L13.87 24.9L13 24.4L12.13 24.9L12.13 25.9ZM15 26.4L15.87 25.9L15.87 24.9L15 24.4L14.13 24.9L14.13 25.9ZM41 26.4L41.87 25.9L41.87 24.9L41 24.4L40.13 24.9L40.13 25.9ZM45 26.4L45.87 25.9L45.87 24.9L45 24.4L44.13 24.9L44.13 25.9ZM49 26.4L49.87 25.9L49.87 24.9L49 24.4L48.13 24.9L48.13 25.9ZM53 26.4L53.87 25.9L53.87 24.9L53 24.4L52.13 24.9L52.13 25.9ZM4 28.13L4.87 27.63L4.87 26.63L4 26.13L3.13 26.63L3.13 27.63ZM8 28.13L8.87 27.63L8.87 26.63L8 26.13L7.13 26.63L7.13 27.63ZM12 28.13L12.87 27.63L12.87 26.63L12 26.13L11.13 26.63L11.13 27.63ZM16 28.13L16.87 27.63L16.87 26.63L16 26.13L15.13 26.63L15.13 27.63ZM42 28.13L42.87 27.63L42.87 26.63L42 26.13L41.13 26.63L41.13 27.63ZM48 28.13L48.87 27.63L48.87 26.63L48 26.13L47.13 26.63L47.13 27.63ZM52 28.13L52.87 27.63L52.87 26.63L52 26.13L51.13 26.63L51.13 27.63ZM56 28.13L56.87 27.63L56.87 26.63L56 26.13L55.13 26.63L55.13 27.63ZM58 28.13L58.87 27.63L58.87 26.63L58 26.13L57.13 26.63L57.13 27.63ZM13 29.87L13.87 29.37L13.87 28.37L13 27.87L12.13 28.37L12.13 29.37ZM17 29.87L17.87 29.37L17.87 28.37L17 27.87L16.13 28.37L16.13 29.37ZM41 29.87L41.87 29.37L41.87 28.37L41 27.87L40.13 28.37L40.13 29.37ZM57 29.87L57.87 29.37L57.87 28.37L57 27.87L56.13 28.37L56.13 29.37ZM2 31.6L2.87 31.1L2.87 30.1L2 29.6L1.13 30.1L1.13 31.1ZM6 31.6L6.87 31.1L6.87 30.1L6 29.6L5.13 30.1L5.13 31.1ZM10 31.6L10.87 31.1L10.87 30.1L10 29.6L9.13 30.1L9.13 31.1ZM18 31.6L18.87 31.1L18.87 30.1L18 29.6L17.13 30.1L17.13 31.1ZM42 31.6L42.87 31.1L42.87 30.1L42 29.6L41.13 30.1L41.13 31.1ZM44 31.6L44.87 31.1L44.87 30.1L44 29.6L43.13 30.1L43.13 31.1ZM46 31.6L46.87 31.1L46.87 30.1L46 29.6L45.13 30.1L45.13 31.1ZM50 31.6L50.87 31.1L50.87 30.1L50 29.6L49.13 30.1L49.13 31.1ZM54 31.6L54.87 31.1L54.87 30.1L54 29.6L53.13 30.1L53.13 31.1ZM3 33.33L3.87 32.83L3.87 31.83L3 31.33L2.13 31.83L2.13 32.83ZM7 33.33L7.87 32.83L7.87 31.83L7 31.33L6.13 31.83L6.13 32.83ZM11 33.33L11.87 32.83L11.87 31.83L11 31.33L10.13 31.83L10.13 32.83ZM17 33.33L17.87 32.83L17.87 31.83L17 31.33L16.13 31.83L16.13 32.83ZM19 33.33L19.87 32.83L19.87 31.83L19 31.33L18.13 31.83L18.13 32.83ZM39 33.33L39.87 32.83L39.87 31.83L39 31.33L38.13 31.83L38.13 32.83ZM43 33.33L43.87 32.83L43.87 31.83L43 31.33L42.13 31.83L42.13 32.83ZM47 33.33L47.87 32.83L47.87 31.83L47 31.33L46.13 31.83L46.13 32.83ZM51 33.33L51.87 32.83L51.87 31.83L51 31.33L50.13 31.83L50.13 32.83ZM55 33.33L55.87 32.83L55.87 31.83L55 31.33L54.13 31.83L54.13 32.83ZM57 33.33L57.87 32.83L57.87 31.83L57 31.33L56.13 31.83L56.13 32.83ZM59 33.33L59.87 32.83L59.87 31.83L59 31.33L58.13 31.83L58.13 32.83ZM14 35.06L14.87 34.56L14.87 33.56L14 33.06L13.13 33.56L13.13 34.56ZM38 35.06L38.87 34.56L38.87 33.56L38 33.06L37.13 33.56L37.13 34.56ZM40 35.06L40.87 34.56L40.87 33.56L40 33.06L39.13 33.56L39.13 34.56ZM42 35.06L42.87 34.56L42.87 33.56L42 33.06L41.13 33.56L41.13 34.56ZM58 35.06L58.87 34.56L58.87 33.56L58 33.06L57.13 33.56L57.13 34.56ZM1 36.79L1.87 36.29L1.87 35.29L1 34.79L0.13 35.29L0.13 36.29ZM5 36.79L5.87 36.29L5.87 35.29L5 34.79L4.13 35.29L4.13 36.29ZM9 36.79L9.87 36.29L9.87 35.29L9 34.79L8.13 35.29L8.13 36.29ZM13 36.79L13.87 36.29L13.87 35.29L13 34.79L12.13 35.29L12.13 36.29ZM21 36.79L21.87 36.29L21.87 35.29L21 34.79L20.13 35.29L20.13 36.29ZM37 36.79L37.87 36.29L37.87 35.29L37 34.79L36.13 35.29L36.13 36.29ZM39 36.79L39.87 36.29L39.87 35.29L39 34.79L38.13 35.29L38.13 36.29ZM41 36.79L41.87 36.29L41.87 35.29L41 34.79L40.13 35.29L40.13 36.29ZM45 36.79L45.87 36.29L45.87 35.29L45 34.79L44.13 35.29L44.13 36.29ZM49 36.79L49.87 36.29L49.87 35.29L49 34.79L48.13 35.29L48.13 36.29ZM53 36.79L53.87 36.29L53.87 35.29L53 34.79L52.13 35.29L52.13 36.29ZM57 36.79L57.87 36.29L57.87 35.29L57 34.79L56.13 35.29L56.13 36.29ZM59 36.79L59.87 36.29L59.87 35.29L59 34.79L58.13 35.29L58.13 36.29ZM4 38.53L4.87 38.03L4.87 37.03L4 36.53L3.13 37.03L3.13 38.03ZM8 38.53L8.87 38.03L8.87 37.03L8 36.53L7.13 37.03L7.13 38.03ZM12 38.53L12.87 38.03L12.87 37.03L12 36.53L11.13 37.03L11.13 38.03ZM16 38.53L16.87 38.03L16.87 37.03L16 36.53L15.13 37.03L15.13 38.03ZM18 38.53L18.87 38.03L18.87 37.03L18 36.53L17.13 37.03L17.13 38.03ZM20 38.53L20.87 38.03L20.87 37.03L20 36.53L19.13 37.03L19.13 38.03ZM38 38.53L38.87 38.03L38.87 37.03L38 36.53L37.13 37.03L37.13 38.03ZM48 38.53L48.87 38.03L48.87 37.03L48 36.53L47.13 37.03L47.13 38.03ZM52 38.53L52.87 38.03L52.87 37.03L52 36.53L51.13 37.03L51.13 38.03ZM56 38.53L56.87 38.03L56.87 37.03L56 36.53L55.13 37.03L55.13 38.03ZM21 40.26L21.87 39.76L21.87 38.76L21 38.26L20.13 38.76L20.13 39.76ZM25 40.26L25.87 39.76L25.87 38.76L25 38.26L24.13 38.76L24.13 39.76ZM27 40.26L27.87 39.76L27.87 38.76L27 38.26L26.13 38.76L26.13 39.76ZM35 40.26L35.87 39.76L35.87 38.76L35 38.26L34.13 38.76L34.13 39.76ZM39 40.26L39.87 39.76L39.87 38.76L39 38.26L38.13 38.76L38.13 39.76ZM57 40.26L57.87 39.76L57.87 38.76L57 38.26L56.13 38.76L56.13 39.76ZM59 40.26L59.87 39.76L59.87 38.76L59 38.26L58.13 38.76L58.13 39.76ZM2 41.99L2.87 41.49L2.87 40.49L2 39.99L1.13 40.49L1.13 41.49ZM6 41.99L6.87 41.49L6.87 40.49L6 39.99L5.13 40.49L5.13 41.49ZM10 41.99L10.87 41.49L10.87 40.49L10 39.99L9.13 40.49L9.13 41.49ZM14 41.99L14.87 41.49L14.87 40.49L14 39.99L13.13 40.49L13.13 41.49ZM20 41.99L20.87 41.49L20.87 40.49L20 39.99L19.13 40.49L19.13 41.49ZM22 41.99L22.87 41.49L22.87 40.49L22 39.99L21.13 40.49L21.13 41.49ZM24 41.99L24.87 41.49L24.87 40.49L24 39.99L23.13 40.49L23.13 41.49ZM30 41.99L30.87 41.49L30.87 40.49L30 39.99L29.13 40.49L29.13 41.49ZM36 41.99L36.87 41.49L36.87 40.49L36 39.99L35.13 40.49L35.13 41.49ZM38 41.99L38.87 41.49L38.87 40.49L38 39.99L37.13 40.49L37.13 41.49ZM40 41.99L40.87 41.49L40.87 40.49L40 39.99L39.13 40.49L39.13 41.49ZM42 41.99L42.87 41.49L42.87 40.49L42 39.99L41.13 40.49L41.13 41.49ZM44 41.99L44.87 41.49L44.87 40.49L44 39.99L43.13 40.49L43.13 41.49ZM46 41.99L46.87 41.49L46.87 40.49L46 39.99L45.13 40.49L45.13 41.49ZM50 41.99L50.87 41.49L50.87 40.49L50 39.99L49.13 40.49L49.13 41.49ZM54 41.99L54.87 41.49L54.87 40.49L54 39.99L53.13 40.49L53.13 41.49ZM58 41.99L58.87 41.49L58.87 40.49L58 39.99L57.13 40.49L57.13 41.49ZM3 43.72L3.87 43.22L3.87 42.22L3 41.72L2.13 42.22L2.13 43.22ZM7 43.72L7.87 43.22L7.87 42.22L7 41.72L6.13 42.22L6.13 43.22ZM11 43.72L11.87 43.22L11.87 42.22L11 41.72L10.13 42.22L10.13 43.22ZM15 43.72L15.87 43.22L15.87 42.22L15 41.72L14.13 42.22L14.13 43.22ZM19 43.72L19.87 43.22L19.87 42.22L19 41.72L18.13 42.22L18.13 43.22ZM23 43.72L23.87 43.22L23.87 42.22L23 41.72L22.13 42.22L22.13 43.22ZM27 43.72L27.87 43.22L27.87 42.22L27 41.72L26.13 42.22L26.13 43.22ZM31 43.72L31.87 43.22L31.87 42.22L31 41.72L30.13 42.22L30.13 43.22ZM35 43.72L35.87 43.22L35.87 42.22L35 41.72L34.13 42.22L34.13 43.22ZM39 43.72L39.87 43.22L39.87 42.22L39 41.72L38.13 42.22L38.13 43.22ZM41 43.72L41.87 43.22L41.87 42.22L41 41.72L40.13 42.22L40.13 43.22ZM43 43.72L43.87 43.22L43.87 42.22L43 41.72L42.13 42.22L42.13 43.22ZM45 43.72L45.87 43.22L45.87 42.22L45 41.72L44.13 42.22L44.13 43.22ZM47 43.72L47.87 43.22L47.87 42.22L47 41.72L46.13 42.22L46.13 43.22ZM51 43.72L51.87 43.22L51.87 42.22L51 41.72L50.13 42.22L50.13 43.22ZM55 43.72L55.87 43.22L55.87 42.22L55 41.72L54.13 42.22L54.13 43.22ZM57 43.72L57.87 43.22L57.87 42.22L57 41.72L56.13 42.22L56.13 43.22ZM59 43.72L59.87 43.22L59.87 42.22L59 41.72L58.13 42.22L58.13 43.22ZM42 45.45L42.87 44.95L42.87 43.95L42 43.45L41.13 43.95L41.13 44.95ZM44 45.45L44.87 44.95L44.87 43.95L44 43.45L43.13 43.95L43.13 44.95ZM46 45.45L46.87 44.95L46.87 43.95L46 43.45L45.13 43.95L45.13 44.95ZM48 45.45L48.87 44.95L48.87 43.95L48 43.45L47.13 43.95L47.13 44.95ZM52 45.45L52.87 44.95L52.87 43.95L52 43.45L51.13 43.95L51.13 44.95ZM56 45.45L56.87 44.95L56.87 43.95L56 43.45L55.13 43.95L55.13 44.95ZM58 45.45L58.87 44.95L58.87 43.95L58 43.45L57.13 43.95L57.13 44.95ZM1 47.19L1.87 46.69L1.87 45.69L1 45.19L0.13 45.69L0.13 46.69ZM5 47.19L5.87 46.69L5.87 45.69L5 45.19L4.13 45.69L4.13 46.69ZM9 47.19L9.87 46.69L9.87 45.69L9 45.19L8.13 45.69L8.13 46.69ZM13 47.19L13.87 46.69L13.87 45.69L13 45.19L12.13 45.69L12.13 46.69ZM17 47.19L17.87 46.69L17.87 45.69L17 45.19L16.13 45.69L16.13 46.69ZM21 47.19L21.87 46.69L21.87 45.69L21 45.19L20.13 45.69L20.13 46.69ZM25 47.19L25.87 46.69L25.87 45.69L25 45.19L24.13 45.69L24.13 46.69ZM29 47.19L29.87 46.69L29.87 45.69L29 45.19L28.13 45.69L28.13 46.69ZM33 47.19L33.87 46.69L33.87 45.69L33 45.19L32.13 45.69L32.13 46.69ZM37 47.19L37.87 46.69L37.87 45.69L37 45.19L36.13 45.69L36.13 46.69ZM57 47.19L57.87 46.69L57.87 45.69L57 45.19L56.13 45.69L56.13 46.69ZM2 48.92L2.87 48.42L2.87 47.42L2 46.92L1.13 47.42L1.13 48.42ZM4 48.92L4.87 48.42L4.87 47.42L4 46.92L3.13 47.42L3.13 48.42ZM6 48.92L6.87 48.42L6.87 47.42L6 46.92L5.13 47.42L5.13 48.42ZM8 48.92L8.87 48.42L8.87 47.42L8 46.92L7.13 47.42L7.13 48.42ZM10 48.92L10.87 48.42L10.87 47.42L10 46.92L9.13 47.42L9.13 48.42ZM12 48.92L12.87 48.42L12.87 47.42L12 46.92L11.13 47.42L11.13 48.42ZM14 48.92L14.87 48.42L14.87 47.42L14 46.92L13.13 47.42L13.13 48.42ZM16 48.92L16.87 48.42L16.87 47.42L16 46.92L15.13 47.42L15.13 48.42ZM26 48.92L26.87 48.42L26.87 47.42L26 46.92L25.13 47.42L25.13 48.42ZM28 48.92L28.87 48.42L28.87 47.42L28 46.92L27.13 47.42L27.13 48.42ZM30 48.92L30.87 48.42L30.87 47.42L30 46.92L29.13 47.42L29.13 48.42ZM32 48.92L32.87 48.42L32.87 47.42L32 46.92L31.13 47.42L31.13 48.42ZM44 48.92L44.87 48.42L44.87 47.42L44 46.92L43.13 47.42L43.13 48.42ZM48 48.92L48.87 48.42L48.87 47.42L48 46.92L47.13 47.42L47.13 48.42ZM3 50.65L3.87 50.15L3.87 49.15L3 48.65L2.13 49.15L2.13 50.15ZM7 50.65L7.87 50.15L7.87 49.15L7 48.65L6.13 49.15L6.13 50.15ZM9 50.65L9.87 50.15L9.87 49.15L9 48.65L8.13 49.15L8.13 50.15ZM13 50.65L13.87 50.15L13.87 49.15L13 48.65L12.13 49.15L12.13 50.15ZM17 50.65L17.87 50.15L17.87 49.15L17 48.65L16.13 49.15L16.13 50.15ZM19 50.65L19.87 50.15L19.87 49.15L19 48.65L18.13 49.15L18.13 50.15ZM21 50.65L21.87 50.15L21.87 49.15L21 48.65L20.13 49.15L20.13 50.15ZM23 50.65L23.87 50.15L23.87 49.15L23 48.65L22.13 49.15L22.13 50.15ZM33 50.65L33.87 50.15L33.87 49.15L33 48.65L32.13 49.15L32.13 50.15ZM35 50.65L35.87 50.15L35.87 49.15L35 48.65L34.13 49.15L34.13 50.15ZM37 50.65L37.87 50.15L37.87 49.15L37 48.65L36.13 49.15L36.13 50.15ZM39 50.65L39.87 50.15L39.87 49.15L39 48.65L38.13 49.15L38.13 50.15ZM43 50.65L43.87 50.15L43.87 49.15L43 48.65L42.13 49.15L42.13 50.15ZM47 50.65L47.87 50.15L47.87 49.15L47 48.65L46.13 49.15L46.13 50.15ZM51 50.65L51.87 50.15L51.87 49.15L51 48.65L50.13 49.15L50.13 50.15ZM55 50.65L55.87 50.15L55.87 49.15L55 48.65L54.13 49.15L54.13 50.15ZM2 52.38L2.87 51.88L2.87 50.88L2 50.38L1.13 50.88L1.13 51.88ZM6 52.38L6.87 51.88L6.87 50.88L6 50.38L5.13 50.88L5.13 51.88ZM10 52.38L10.87 51.88L10.87 50.88L10 50.38L9.13 50.88L9.13 51.88ZM14 52.38L14.87 51.88L14.87 50.88L14 50.38L13.13 50.88L13.13 51.88ZM28 52.38L28.87 51.88L28.87 50.88L28 50.38L27.13 50.88L27.13 51.88ZM32 52.38L32.87 51.88L32.87 50.88L32 50.38L31.13 50.88L31.13 51.88ZM36 52.38L36.87 51.88L36.87 50.88L36 50.38L35.13 50.88L35.13 51.88ZM40 52.38L40.87 51.88L40.87 50.88L40 50.38L39.13 50.88L39.13 51.88ZM42 52.38L42.87 51.88L42.87 50.88L42 50.38L41.13 50.88L41.13 51.88ZM44 52.38L44.87 51.88L44.87 50.88L44 50.38L43.13 50.88L43.13 51.88ZM46 52.38L46.87 51.88L46.87 50.88L46 50.38L45.13 50.88L45.13 51.88ZM48 52.38L48.87 51.88L48.87 50.88L48 50.38L47.13 50.88L47.13 51.88ZM50 52.38L50.87 51.88L50.87 50.88L50 50.38L49.13 50.88L49.13 51.88ZM54 52.38L54.87 51.88L54.87 50.88L54 50.38L53.13 50.88L53.13 51.88ZM58 52.38L58.87 51.88L58.87 50.88L58 50.38L57.13 50.88L57.13 51.88ZM1 54.11L1.87 53.61L1.87 52.61L1 52.11L0.13 52.61L0.13 53.61ZM3 54.11L3.87 53.61L3.87 52.61L3 52.11L2.13 52.61L2.13 53.61ZM5 54.11L5.87 53.61L5.87 52.61L5 52.11L4.13 52.61L4.13 53.61ZM7 54.11L7.87 53.61L7.87 52.61L7 52.11L6.13 52.61L6.13 53.61ZM11 54.11L11.87 53.61L11.87 52.61L11 52.11L10.13 52.61L10.13 53.61ZM15 54.11L15.87 53.61L15.87 52.61L15 52.11L14.13 52.61L14.13 53.61ZM17 54.11L17.87 53.61L17.87 52.61L17 52.11L16.13 52.61L16.13 53.61ZM21 54.11L21.87 53.61L21.87 52.61L21 52.11L20.13 52.61L20.13 53.61ZM33 54.11L33.87 53.61L33.87 52.61L33 52.11L32.13 52.61L32.13 53.61ZM35 54.11L35.87 53.61L35.87 52.61L35 52.11L34.13 52.61L34.13 53.61ZM37 54.11L37.87 53.61L37.87 52.61L37 52.11L36.13 52.61L36.13 53.61ZM39 54.11L39.87 53.61L39.87 52.61L39 52.11L38.13 52.61L38.13 53.61ZM43 54.11L43.87 53.61L43.87 52.61L43 52.11L42.13 52.61L42.13 53.61ZM47 54.11L47.87 53.61L47.87 52.61L47 52.11L46.13 52.61L46.13 53.61ZM49 54.11L49.87 53.61L49.87 52.61L49 52.11L48.13 52.61L48.13 53.61ZM53 54.11L53.87 53.61L53.87 52.61L53 52.11L52.13 52.61L52.13 53.61ZM57 54.11L57.87 53.61L57.87 52.61L57 52.11L56.13 52.61L56.13 53.61ZM4 55.85L4.87 55.35L4.87 54.35L4 53.85L3.13 54.35L3.13 55.35ZM8 55.85L8.87 55.35L8.87 54.35L8 53.85L7.13 54.35L7.13 55.35ZM10 55.85L10.87 55.35L10.87 54.35L10 53.85L9.13 54.35L9.13 55.35ZM14 55.85L14.87 55.35L14.87 54.35L14 53.85L13.13 54.35L13.13 55.35ZM18 55.85L18.87 55.35L18.87 54.35L18 53.85L17.13 54.35L17.13 55.35ZM20 55.85L20.87 55.35L20.87 54.35L20 53.85L19.13 54.35L19.13 55.35ZM22 55.85L22.87 55.35L22.87 54.35L22 53.85L21.13 54.35L21.13 55.35ZM24 55.85L24.87 55.35L24.87 54.35L24 53.85L23.13 54.35L23.13 55.35ZM28 55.85L28.87 55.35L28.87 54.35L28 53.85L27.13 54.35L27.13 55.35ZM32 55.85L32.87 55.35L32.87 54.35L32 53.85L31.13 54.35L31.13 55.35ZM34 55.85L34.87 55.35L34.87 54.35L34 53.85L33.13 54.35L33.13 55.35ZM38 55.85L38.87 55.35L38.87 54.35L38 53.85L37.13 54.35L37.13 55.35ZM42 55.85L42.87 55.35L42.87 54.35L42 53.85L41.13 54.35L41.13 55.35ZM46 55.85L46.87 55.35L46.87 54.35L46 53.85L45.13 54.35L45.13 55.35ZM50 55.85L50.87 55.35L50.87 54.35L50 53.85L49.13 54.35L49.13 55.35ZM52 55.85L52.87 55.35L52.87 54.35L52 53.85L51.13 54.35L51.13 55.35ZM54 55.85L54.87 55.35L54.87 54.35L54 53.85L53.13 54.35L53.13 55.35ZM56 55.85L56.87 55.35L56.87 54.35L56 53.85L55.13 54.35L55.13 55.35ZM3 57.58L3.87 57.08L3.87 56.08L3 55.58L2.13 56.08L2.13 57.08ZM7 57.58L7.87 57.08L7.87 56.08L7 55.58L6.13 56.08L6.13 57.08ZM27 57.58L27.87 57.08L27.87 56.08L27 55.58L26.13 56.08L26.13 57.08ZM31 57.58L31.87 57.08L31.87 56.08L31 55.58L30.13 56.08L30.13 57.08ZM33 57.58L33.87 57.08L33.87 56.08L33 55.58L32.13 56.08L32.13 57.08ZM37 57.58L37.87 57.08L37.87 56.08L37 55.58L36.13 56.08L36.13 57.08ZM41 57.58L41.87 57.08L41.87 56.08L41 55.58L40.13 56.08L40.13 57.08ZM45 57.58L45.87 57.08L45.87 56.08L45 55.58L44.13 56.08L44.13 57.08ZM51 57.58L51.87 57.08L51.87 56.08L51 55.58L50.13 56.08L50.13 57.08ZM55 57.58L55.87 57.08L55.87 56.08L55 55.58L54.13 56.08L54.13 57.08Z"/>
  <circle cx="29" cy="28.87" r="8.215" stroke="#000000" stroke-width="1.569" fill="none"/>
  <circle cx="29" cy="28.87" r="5.077" stroke="#000000" stroke-width="1.569" fill="none"/>
  <circle cx="29" cy="28.87" r="1.939" stroke="#000000" stroke-width="1.569" fill="none"/>
 </g>
</svg>
