<?xml version="1.0" standalone="no"?>
<!DOCTYPE svg PUBLIC "-//W3C//DTD SVG 1.1//EN" "http://www.w3.org/Graphics/SVG/1.1/DTD/svg11.dtd">
<svg width="164" height="24" version="1.1" xmlns="http://www.w3.org/2000/svg">
 <desc>Zint Generated Symbol</desc>
 <g id="barcode" fill="#000000">
  <rect x="0" y="0" width="164" height="24" fill="#FFFFFF"/>
  <path d="M0 0h4v4h-4ZM8 0h2v8h-2ZM16 0h2v24h-2ZM20 0h2v20h-2ZM26 0h8v4h-8ZM36 0h8v4h-8ZM46 0h2v4h-2ZM54 0h2v24h-2ZM58 0h4v4h-4ZM66 0h6v16h-6ZM74 0h8v8h-8ZM84 0h2v4h-2ZM88 0h2v4h-2ZM92 0h8v4h-8ZM108 0h4v4h-4ZM116 0h4v4h-4ZM124 0h6v4h-6ZM134 0h6v4h-6ZM142 0h4v4h-4ZM150 0h2v8h-2ZM158 0h2v24h-2ZM162 0h2v24h-2ZM0 4h6v8h-6ZM26 4h4v4h-4ZM34 4h12v4h-12ZM48 4h4v4h-4ZM60 4h2v4h-2ZM84 4h4v4h-4ZM96 4h4v4h-4ZM102 4h2v4h-2ZM108 4h2v8h-2ZM112 4h2v4h-2ZM118 4h8v4h-8ZM136 4h2v4h-2ZM142 4h6v8h-6ZM8 8h4v8h-4ZM32 8h4v4h-4ZM38 8h2v4h-2ZM46 8h6v4h-6ZM60 8h4v4h-4ZM74 8h2v4h-2ZM80 8h4v8h-4ZM90 8h2v4h-2ZM96 8h6v4h-6ZM120 8h6v4h-6ZM130 8h2v4h-2ZM136 8h4v4h-4ZM150 8h4v8h-4ZM0 12h4v12h-4ZM26 12h2v4h-2ZM34 12h6v4h-6ZM44 12h6v4h-6ZM62 12h2v8h-2ZM74 12h4v8h-4ZM92 12h4v4h-4ZM100 12h4v4h-4ZM108 12h4v4h-4ZM116 12h2v4h-2ZM124 12h2v4h-2ZM130 12h4v4h-4ZM142 12h4v12h-4ZM6 16h6v4h-6ZM24 16h12v4h-12ZM42 16h2v4h-2ZM48 16h4v4h-4ZM68 16h4v8h-4ZM86 16h2v4h-2ZM90 16h6v4h-6ZM104 16h2v4h-2ZM108 16h6v4h-6ZM118 16h4v4h-4ZM124 16h8v4h-8ZM136 16h4v4h-4ZM148 16h6v4h-6ZM6 20h8v4h-8ZM20 20h6v4h-6ZM32 20h2v4h-2ZM36 20h10v4h-10ZM50 20h2v4h-2ZM62 20h4v4h-4ZM74 20h2v4h-2ZM80 20h6v4h-6ZM88 20h6v4h-6ZM98 20h8v4h-8ZM108 20h4v4h-4ZM116 20h2v4h-2ZM122 20h12v4h-12ZM138 20h2v4h-2ZM148 20h8v4h-8Z"/>
 </g>
</svg>
