<?xml version="1.0" standalone="no"?>
<!DOCTYPE svg PUBLIC "-//W3C//DTD SVG 1.1//EN" "http://www.w3.org/Graphics/SVG/1.1/DTD/svg11.dtd">
<svg width="30" height="30" version="1.1" xmlns="http://www.w3.org/2000/svg">
 <desc>Zint Generated Symbol</desc>
 <g id="barcode" fill="#000000">
  <rect x="0" y="0" width="30" height="30" fill="#FFFFFF"/>
  <path d="M0 0h14v2h-14ZM16 0h2v2h-2ZM20 0h2v2h-2ZM24 0h2v2h-2ZM28 0h2v2h-2ZM0 2h2v10h-2ZM12 2h2v10h-2ZM22 2h2v2h-2ZM26 2h4v2h-4ZM4 4h6v6h-6ZM16 4h2v4h-2ZM24 4h6v2h-6ZM20 6h2v2h-2ZM26 6h4v2h-4ZM16 8h4v2h-4ZM26 8h2v2h-2ZM16 10h8v2h-8ZM28 10h2v2h-2ZM0 12h14v2h-14ZM20 12h2v4h-2ZM26 12h4v2h-4ZM16 14h2v6h-2ZM28 14h2v4h-2ZM0 16h2v2h-2ZM10 16h4v2h-4ZM20 16h4v2h-4ZM2 18h10v2h-10ZM0 20h2v2h-2ZM4 20h2v2h-2ZM16 20h14v2h-14ZM2 22h2v2h-2ZM6 22h4v2h-4ZM0 24h2v2h-2ZM4 24h2v4h-2ZM10 24h2v4h-2ZM14 24h2v2h-2ZM22 24h6v2h-6ZM16 26h2v2h-2ZM20 26h2v2h-2ZM26 26h2v2h-2ZM0 28h8v2h-8ZM12 28h4v2h-4ZM22 28h8v2h-8Z"/>
 </g>
</svg>
