<?xml version="1.0" standalone="no"?>
<!DOCTYPE svg PUBLIC "-//W3C//DTD SVG 1.1//EN"
   "http://www.w3.org/Graphics/SVG/1.1/DTD/svg11.dtd">
<svg width="164" height="24" version="1.1"
   xmlns="http://www.w3.org/2000/svg">
   <desc>Zint Generated Symbol
   </desc>

   <g id="barcode" fill="#000000">
      <rect x="0" y="0" width="164" height="24" fill="#FFFFFF" />
      <rect x="0.00" y="0.00" width="4.00" height="4.00" />
      <rect x="8.00" y="0.00" width="2.00" height="8.00" />
      <rect x="16.00" y="0.00" width="2.00" height="24.00" />
      <rect x="20.00" y="0.00" width="2.00" height="20.00" />
      <rect x="26.00" y="0.00" width="8.00" height="4.00" />
      <rect x="36.00" y="0.00" width="8.00" height="4.00" />
      <rect x="46.00" y="0.00" width="2.00" height="4.00" />
      <rect x="54.00" y="0.00" width="2.00" height="24.00" />
      <rect x="58.00" y="0.00" width="4.00" height="4.00" />
      <rect x="66.00" y="0.00" width="6.00" height="16.00" />
      <rect x="74.00" y="0.00" width="8.00" height="8.00" />
      <rect x="84.00" y="0.00" width="2.00" height="4.00" />
      <rect x="88.00" y="0.00" width="2.00" height="4.00" />
      <rect x="92.00" y="0.00" width="8.00" height="4.00" />
      <rect x="108.00" y="0.00" width="4.00" height="4.00" />
      <rect x="116.00" y="0.00" width="4.00" height="4.00" />
      <rect x="124.00" y="0.00" width="6.00" height="4.00" />
      <rect x="134.00" y="0.00" width="6.00" height="4.00" />
      <rect x="142.00" y="0.00" width="4.00" height="4.00" />
      <rect x="150.00" y="0.00" width="2.00" height="8.00" />
      <rect x="158.00" y="0.00" width="2.00" height="24.00" />
      <rect x="162.00" y="0.00" width="2.00" height="24.00" />
      <rect x="0.00" y="4.00" width="6.00" height="8.00" />
      <rect x="26.00" y="4.00" width="4.00" height="4.00" />
      <rect x="34.00" y="4.00" width="12.00" height="4.00" />
      <rect x="48.00" y="4.00" width="4.00" height="4.00" />
      <rect x="60.00" y="4.00" width="2.00" height="4.00" />
      <rect x="84.00" y="4.00" width="4.00" height="4.00" />
      <rect x="96.00" y="4.00" width="4.00" height="4.00" />
      <rect x="102.00" y="4.00" width="2.00" height="4.00" />
      <rect x="108.00" y="4.00" width="2.00" height="8.00" />
      <rect x="112.00" y="4.00" width="2.00" height="4.00" />
      <rect x="118.00" y="4.00" width="8.00" height="4.00" />
      <rect x="136.00" y="4.00" width="2.00" height="4.00" />
      <rect x="142.00" y="4.00" width="6.00" height="8.00" />
      <rect x="8.00" y="8.00" width="4.00" height="8.00" />
      <rect x="32.00" y="8.00" width="4.00" height="4.00" />
      <rect x="38.00" y="8.00" width="2.00" height="4.00" />
      <rect x="46.00" y="8.00" width="6.00" height="4.00" />
      <rect x="60.00" y="8.00" width="4.00" height="4.00" />
      <rect x="74.00" y="8.00" width="2.00" height="4.00" />
      <rect x="80.00" y="8.00" width="4.00" height="8.00" />
      <rect x="90.00" y="8.00" width="2.00" height="4.00" />
      <rect x="96.00" y="8.00" width="6.00" height="4.00" />
      <rect x="120.00" y="8.00" width="6.00" height="4.00" />
      <rect x="130.00" y="8.00" width="2.00" height="4.00" />
      <rect x="136.00" y="8.00" width="4.00" height="4.00" />
      <rect x="150.00" y="8.00" width="4.00" height="8.00" />
      <rect x="0.00" y="12.00" width="4.00" height="12.00" />
      <rect x="26.00" y="12.00" width="2.00" height="4.00" />
      <rect x="34.00" y="12.00" width="6.00" height="4.00" />
      <rect x="44.00" y="12.00" width="6.00" height="4.00" />
      <rect x="62.00" y="12.00" width="2.00" height="8.00" />
      <rect x="74.00" y="12.00" width="4.00" height="8.00" />
      <rect x="92.00" y="12.00" width="4.00" height="4.00" />
      <rect x="100.00" y="12.00" width="4.00" height="4.00" />
      <rect x="108.00" y="12.00" width="4.00" height="4.00" />
      <rect x="116.00" y="12.00" width="2.00" height="4.00" />
      <rect x="124.00" y="12.00" width="2.00" height="4.00" />
      <rect x="130.00" y="12.00" width="4.00" height="4.00" />
      <rect x="142.00" y="12.00" width="4.00" height="12.00" />
      <rect x="6.00" y="16.00" width="6.00" height="4.00" />
      <rect x="24.00" y="16.00" width="12.00" height="4.00" />
      <rect x="42.00" y="16.00" width="2.00" height="4.00" />
      <rect x="48.00" y="16.00" width="4.00" height="4.00" />
      <rect x="68.00" y="16.00" width="4.00" height="8.00" />
      <rect x="86.00" y="16.00" width="2.00" height="4.00" />
      <rect x="90.00" y="16.00" width="6.00" height="4.00" />
      <rect x="104.00" y="16.00" width="2.00" height="4.00" />
      <rect x="108.00" y="16.00" width="6.00" height="4.00" />
      <rect x="118.00" y="16.00" width="4.00" height="4.00" />
      <rect x="124.00" y="16.00" width="8.00" height="4.00" />
      <rect x="136.00" y="16.00" width="4.00" height="4.00" />
      <rect x="148.00" y="16.00" width="6.00" height="4.00" />
      <rect x="6.00" y="20.00" width="8.00" height="4.00" />
      <rect x="20.00" y="20.00" width="6.00" height="4.00" />
      <rect x="32.00" y="20.00" width="2.00" height="4.00" />
      <rect x="36.00" y="20.00" width="10.00" height="4.00" />
      <rect x="50.00" y="20.00" width="2.00" height="4.00" />
      <rect x="62.00" y="20.00" width="4.00" height="4.00" />
      <rect x="74.00" y="20.00" width="2.00" height="4.00" />
      <rect x="80.00" y="20.00" width="6.00" height="4.00" />
      <rect x="88.00" y="20.00" width="6.00" height="4.00" />
      <rect x="98.00" y="20.00" width="8.00" height="4.00" />
      <rect x="108.00" y="20.00" width="4.00" height="4.00" />
      <rect x="116.00" y="20.00" width="2.00" height="4.00" />
      <rect x="122.00" y="20.00" width="12.00" height="4.00" />
      <rect x="138.00" y="20.00" width="2.00" height="4.00" />
      <rect x="148.00" y="20.00" width="8.00" height="4.00" />
   </g>
</svg>
