<?xml version="1.0" standalone="no"?>
<!DOCTYPE svg PUBLIC "-//W3C//DTD SVG 1.1//EN" "http://www.w3.org/Graphics/SVG/1.1/DTD/svg11.dtd">
<svg width="312" height="117" version="1.1" xmlns="http://www.w3.org/2000/svg">
 <desc>Zint Generated Symbol</desc>
 <g id="barcode" fill="#000000">
  <rect x="0" y="0" width="312" height="117" fill="#FFFFFF"/>
  <path d="M0 0h4v100h-4ZM6 0h2v100h-2ZM12 0h6v100h-6ZM22 0h8v100h-8ZM32 0h2v100h-2ZM36 0h6v100h-6ZM44 0h4v100h-4ZM50 0h4v100h-4ZM58 0h4v100h-4ZM66 0h2v100h-2ZM70 0h4v100h-4ZM78 0h6v100h-6ZM88 0h2v100h-2ZM96 0h2v100h-2ZM100 0h4v100h-4ZM110 0h6v100h-6ZM122 0h2v100h-2ZM126 0h4v100h-4ZM132 0h4v100h-4ZM144 0h2v100h-2ZM148 0h2v100h-2ZM154 0h4v100h-4ZM160 0h8v100h-8ZM170 0h4v100h-4ZM176 0h2v100h-2ZM180 0h4v100h-4ZM188 0h6v100h-6ZM198 0h2v100h-2ZM206 0h2v100h-2ZM210 0h4v100h-4ZM220 0h6v100h-6ZM232 0h2v100h-2ZM236 0h4v100h-4ZM242 0h4v100h-4ZM254 0h2v100h-2ZM260 0h2v100h-2ZM264 0h2v100h-2ZM268 0h4v100h-4ZM274 0h6v100h-6ZM286 0h4v100h-4ZM296 0h6v100h-6ZM304 0h2v100h-2ZM308 0h4v100h-4Z"/>
  <text x="156" y="113.34" text-anchor="middle" font-family="Arimo, Arial, sans-serif" font-size="14">
   (00)123456789012345675
  </text>
 </g>
</svg>
