<?xml version="1.0" standalone="no"?>
<!DOCTYPE svg PUBLIC "-//W3C//DTD SVG 1.1//EN" "http://www.w3.org/Graphics/SVG/1.1/DTD/svg11.dtd">
<svg width="206" height="48" version="1.1" xmlns="http://www.w3.org/2000/svg">
 <desc>Zint Generated Symbol</desc>
 <g id="barcode" fill="#000000">
  <rect x="0" y="0" width="206" height="48" fill="#FFFFFF"/>
  <path d="M0 0h16v48h-16ZM18 0h2v48h-2ZM22 0h2v48h-2ZM26 0h2v48h-2ZM34 0h10v6h-10ZM46 0h2v6h-2ZM50 0h2v6h-2ZM54 0h10v6h-10ZM68 0h4v6h-4ZM74 0h2v6h-2ZM78 0h2v6h-2ZM88 0h4v6h-4ZM102 0h2v24h-2ZM108 0h8v6h-8ZM118 0h8v6h-8ZM128 0h2v6h-2ZM136 0h8v12h-8ZM146 0h2v12h-2ZM150 0h2v12h-2ZM154 0h8v6h-8ZM170 0h14v48h-14ZM186 0h2v48h-2ZM194 0h2v48h-2ZM198 0h2v48h-2ZM204 0h2v48h-2ZM34 6h12v6h-12ZM48 6h2v6h-2ZM52 6h2v6h-2ZM60 6h6v6h-6ZM68 6h12v6h-12ZM82 6h2v6h-2ZM86 6h2v6h-2ZM90 6h6v6h-6ZM110 6h2v6h-2ZM114 6h8v6h-8ZM130 6h2v6h-2ZM156 6h2v6h-2ZM34 12h6v6h-6ZM42 12h2v6h-2ZM46 12h2v6h-2ZM50 12h12v6h-12ZM68 12h2v6h-2ZM72 12h8v6h-8ZM88 12h2v6h-2ZM96 12h2v6h-2ZM106 12h6v6h-6ZM118 12h4v6h-4ZM124 12h6v6h-6ZM136 12h6v6h-6ZM144 12h2v6h-2ZM148 12h2v6h-2ZM156 12h12v6h-12ZM34 18h4v6h-4ZM40 18h2v6h-2ZM44 18h8v6h-8ZM56 18h10v6h-10ZM68 18h4v6h-4ZM74 18h2v6h-2ZM84 18h2v6h-2ZM96 18h4v6h-4ZM112 18h4v6h-4ZM122 18h4v6h-4ZM130 18h2v12h-2ZM136 18h2v6h-2ZM140 18h2v6h-2ZM144 18h8v6h-8ZM156 18h8v6h-8ZM34 24h6v6h-6ZM42 24h2v6h-2ZM46 24h6v6h-6ZM60 24h4v6h-4ZM68 24h10v6h-10ZM80 24h4v6h-4ZM86 24h2v6h-2ZM98 24h2v6h-2ZM102 24h8v6h-8ZM114 24h4v12h-4ZM120 24h4v6h-4ZM136 24h8v6h-8ZM146 24h2v6h-2ZM150 24h6v6h-6ZM160 24h6v6h-6ZM34 30h8v6h-8ZM44 30h2v6h-2ZM48 30h8v6h-8ZM58 30h2v6h-2ZM68 30h6v12h-6ZM80 30h2v6h-2ZM84 30h10v6h-10ZM96 30h2v6h-2ZM102 30h2v6h-2ZM120 30h2v6h-2ZM124 30h6v12h-6ZM136 30h6v6h-6ZM144 30h2v6h-2ZM148 30h10v6h-10ZM160 30h2v6h-2ZM34 36h6v6h-6ZM42 36h2v6h-2ZM48 36h6v6h-6ZM56 36h10v6h-10ZM80 36h4v6h-4ZM86 36h2v6h-2ZM96 36h4v6h-4ZM102 36h6v6h-6ZM112 36h2v6h-2ZM118 36h2v6h-2ZM136 36h4v6h-4ZM142 36h2v6h-2ZM148 36h6v6h-6ZM156 36h8v6h-8ZM34 42h10v6h-10ZM46 42h2v6h-2ZM52 42h2v6h-2ZM56 42h4v6h-4ZM68 42h2v6h-2ZM80 42h2v6h-2ZM86 42h8v6h-8ZM98 42h2v6h-2ZM102 42h2v6h-2ZM106 42h4v6h-4ZM116 42h12v6h-12ZM130 42h4v6h-4ZM136 42h2v6h-2ZM140 42h2v6h-2ZM144 42h12v6h-12ZM158 42h6v6h-6Z"/>
 </g>
</svg>
