<?xml version="1.0" standalone="no"?>
<!DOCTYPE svg PUBLIC "-//W3C//DTD SVG 1.1//EN" "http://www.w3.org/Graphics/SVG/1.1/DTD/svg11.dtd">
<svg width="266" height="24" version="1.1" xmlns="http://www.w3.org/2000/svg">
 <desc>Zint Generated Symbol</desc>
 <g id="barcode" fill="#000000">
  <rect x="0" y="0" width="266" height="24" fill="#FFFFFF"/>
  <path d="M0 0h2v24h-2ZM12 0h2v24h-2ZM16 0h2v24h-2ZM20 0h2v24h-2ZM24 0h2v24h-2ZM28 0h2v24h-2ZM32 0h2v24h-2ZM44 0h2v24h-2ZM48 0h2v24h-2ZM56 0h2v24h-2ZM64 0h2v24h-2ZM68 0h2v24h-2ZM80 0h2v24h-2ZM84 0h2v24h-2ZM92 0h2v24h-2ZM96 0h2v24h-2ZM104 0h2v24h-2ZM112 0h2v24h-2ZM120 0h2v24h-2ZM124 0h2v24h-2ZM136 0h2v24h-2ZM140 0h2v24h-2ZM148 0h2v24h-2ZM152 0h2v24h-2ZM156 0h2v24h-2ZM168 0h2v24h-2ZM172 0h2v24h-2ZM180 0h2v24h-2ZM188 0h2v24h-2ZM196 0h2v24h-2ZM200 0h2v24h-2ZM204 0h2v24h-2ZM208 0h2v24h-2ZM212 0h2v24h-2ZM224 0h2v24h-2ZM228 0h2v24h-2ZM236 0h2v24h-2ZM244 0h2v24h-2ZM248 0h2v24h-2ZM256 0h2v24h-2ZM264 0h2v24h-2ZM4 12h2v12h-2ZM8 12h2v12h-2ZM36 12h2v12h-2ZM40 12h2v12h-2ZM52 12h2v12h-2ZM60 12h2v12h-2ZM72 12h2v12h-2ZM76 12h2v12h-2ZM88 12h2v12h-2ZM100 12h2v12h-2ZM108 12h2v12h-2ZM116 12h2v12h-2ZM128 12h2v12h-2ZM132 12h2v12h-2ZM144 12h2v12h-2ZM160 12h2v12h-2ZM164 12h2v12h-2ZM176 12h2v12h-2ZM184 12h2v12h-2ZM192 12h2v12h-2ZM216 12h2v12h-2ZM220 12h2v12h-2ZM232 12h2v12h-2ZM240 12h2v12h-2ZM252 12h2v12h-2ZM260 12h2v12h-2Z"/>
 </g>
</svg>
