<?xml version="1.0" standalone="no"?>
<!DOCTYPE svg PUBLIC "-//W3C//DTD SVG 1.1//EN" "http://www.w3.org/Graphics/SVG/1.1/DTD/svg11.dtd">
<svg width="266" height="24" version="1.1" xmlns="http://www.w3.org/2000/svg">
 <desc>Zint Generated Symbol</desc>
 <g id="barcode" fill="#000000">
  <rect x="0" y="0" width="266" height="24" fill="#FFFFFF"/>
  <path d="M0 0h2v24h-2ZM4 0h2v24h-2ZM8 0h2v24h-2ZM36 0h2v24h-2ZM40 0h2v24h-2ZM52 0h2v24h-2ZM60 0h2v24h-2ZM72 0h2v24h-2ZM76 0h2v24h-2ZM88 0h2v24h-2ZM100 0h2v24h-2ZM108 0h2v24h-2ZM116 0h2v24h-2ZM128 0h2v24h-2ZM132 0h2v24h-2ZM144 0h2v24h-2ZM160 0h2v24h-2ZM164 0h2v24h-2ZM176 0h2v24h-2ZM184 0h2v24h-2ZM192 0h2v24h-2ZM216 0h2v24h-2ZM220 0h2v24h-2ZM232 0h2v24h-2ZM240 0h2v24h-2ZM252 0h2v24h-2ZM260 0h2v24h-2ZM264 0h2v24h-2ZM12 12h2v12h-2ZM16 12h2v12h-2ZM20 12h2v12h-2ZM24 12h2v12h-2ZM28 12h2v12h-2ZM32 12h2v12h-2ZM44 12h2v12h-2ZM48 12h2v12h-2ZM56 12h2v12h-2ZM64 12h2v12h-2ZM68 12h2v12h-2ZM80 12h2v12h-2ZM84 12h2v12h-2ZM92 12h2v12h-2ZM96 12h2v12h-2ZM104 12h2v12h-2ZM112 12h2v12h-2ZM120 12h2v12h-2ZM124 12h2v12h-2ZM136 12h2v12h-2ZM140 12h2v12h-2ZM148 12h2v12h-2ZM152 12h2v12h-2ZM156 12h2v12h-2ZM168 12h2v12h-2ZM172 12h2v12h-2ZM180 12h2v12h-2ZM188 12h2v12h-2ZM196 12h2v12h-2ZM200 12h2v12h-2ZM204 12h2v12h-2ZM208 12h2v12h-2ZM212 12h2v12h-2ZM224 12h2v12h-2ZM228 12h2v12h-2ZM236 12h2v12h-2ZM244 12h2v12h-2ZM248 12h2v12h-2ZM256 12h2v12h-2Z"/>
 </g>
</svg>
