<?xml version="1.0" standalone="no"?>
<!DOCTYPE svg PUBLIC "-//W3C//DTD SVG 1.1//EN" "http://www.w3.org/Graphics/SVG/1.1/DTD/svg11.dtd">
<svg width="284" height="117" version="1.1" xmlns="http://www.w3.org/2000/svg">
 <desc>Zint Generated Symbol</desc>
 <g id="barcode" fill="#000000">
  <rect x="0" y="0" width="284" height="117" fill="#FFFFFF"/>
  <path d="M0 0h2v100h-2ZM6 0h2v100h-2ZM10 0h4v100h-4ZM16 0h4v100h-4ZM22 0h2v100h-2ZM26 0h2v100h-2ZM32 0h2v100h-2ZM36 0h2v100h-2ZM40 0h4v100h-4ZM46 0h4v100h-4ZM52 0h2v100h-2ZM56 0h2v100h-2ZM62 0h4v100h-4ZM68 0h4v100h-4ZM74 0h2v100h-2ZM78 0h4v100h-4ZM84 0h2v100h-2ZM90 0h2v100h-2ZM94 0h2v100h-2ZM98 0h4v100h-4ZM104 0h2v100h-2ZM108 0h4v100h-4ZM116 0h2v100h-2ZM120 0h2v100h-2ZM124 0h4v100h-4ZM130 0h4v100h-4ZM136 0h4v100h-4ZM144 0h2v100h-2ZM148 0h2v100h-2ZM152 0h2v100h-2ZM156 0h2v100h-2ZM160 0h2v100h-2ZM166 0h4v100h-4ZM172 0h2v100h-2ZM176 0h4v100h-4ZM182 0h4v100h-4ZM188 0h2v100h-2ZM194 0h4v100h-4ZM200 0h2v100h-2ZM204 0h2v100h-2ZM208 0h2v100h-2ZM212 0h4v100h-4ZM220 0h4v100h-4ZM226 0h2v100h-2ZM230 0h2v100h-2ZM234 0h2v100h-2ZM238 0h4v100h-4ZM246 0h2v100h-2ZM250 0h2v100h-2ZM254 0h4v100h-4ZM260 0h2v100h-2ZM266 0h2v100h-2ZM270 0h4v100h-4ZM276 0h4v100h-4ZM282 0h2v100h-2Z"/>
  <text x="142" y="113.34" text-anchor="middle" font-family="Arimo, Arial, sans-serif" font-size="14">
   PZN - 01234562
  </text>
 </g>
</svg>
