<?xml version="1.0" standalone="no"?>
<!DOCTYPE svg PUBLIC "-//W3C//DTD SVG 1.1//EN"
   "http://www.w3.org/Graphics/SVG/1.1/DTD/svg11.dtd">
<svg width="284" height="119" version="1.1"
   xmlns="http://www.w3.org/2000/svg">
   <desc>Zint Generated Symbol
   </desc>

   <g id="barcode" fill="#000000">
      <rect x="0" y="0" width="284" height="119" fill="#FFFFFF" />
      <rect x="0.00" y="0.00" width="2.00" height="100.00" />
      <rect x="6.00" y="0.00" width="2.00" height="100.00" />
      <rect x="10.00" y="0.00" width="4.00" height="100.00" />
      <rect x="16.00" y="0.00" width="4.00" height="100.00" />
      <rect x="22.00" y="0.00" width="2.00" height="100.00" />
      <rect x="26.00" y="0.00" width="2.00" height="100.00" />
      <rect x="32.00" y="0.00" width="2.00" height="100.00" />
      <rect x="36.00" y="0.00" width="2.00" height="100.00" />
      <rect x="40.00" y="0.00" width="4.00" height="100.00" />
      <rect x="46.00" y="0.00" width="4.00" height="100.00" />
      <rect x="52.00" y="0.00" width="2.00" height="100.00" />
      <rect x="56.00" y="0.00" width="2.00" height="100.00" />
      <rect x="62.00" y="0.00" width="4.00" height="100.00" />
      <rect x="68.00" y="0.00" width="4.00" height="100.00" />
      <rect x="74.00" y="0.00" width="2.00" height="100.00" />
      <rect x="78.00" y="0.00" width="4.00" height="100.00" />
      <rect x="84.00" y="0.00" width="2.00" height="100.00" />
      <rect x="90.00" y="0.00" width="2.00" height="100.00" />
      <rect x="94.00" y="0.00" width="2.00" height="100.00" />
      <rect x="98.00" y="0.00" width="4.00" height="100.00" />
      <rect x="104.00" y="0.00" width="2.00" height="100.00" />
      <rect x="108.00" y="0.00" width="4.00" height="100.00" />
      <rect x="116.00" y="0.00" width="2.00" height="100.00" />
      <rect x="120.00" y="0.00" width="2.00" height="100.00" />
      <rect x="124.00" y="0.00" width="4.00" height="100.00" />
      <rect x="130.00" y="0.00" width="4.00" height="100.00" />
      <rect x="136.00" y="0.00" width="4.00" height="100.00" />
      <rect x="144.00" y="0.00" width="2.00" height="100.00" />
      <rect x="148.00" y="0.00" width="2.00" height="100.00" />
      <rect x="152.00" y="0.00" width="2.00" height="100.00" />
      <rect x="156.00" y="0.00" width="2.00" height="100.00" />
      <rect x="160.00" y="0.00" width="2.00" height="100.00" />
      <rect x="166.00" y="0.00" width="4.00" height="100.00" />
      <rect x="172.00" y="0.00" width="2.00" height="100.00" />
      <rect x="176.00" y="0.00" width="4.00" height="100.00" />
      <rect x="182.00" y="0.00" width="4.00" height="100.00" />
      <rect x="188.00" y="0.00" width="2.00" height="100.00" />
      <rect x="194.00" y="0.00" width="4.00" height="100.00" />
      <rect x="200.00" y="0.00" width="2.00" height="100.00" />
      <rect x="204.00" y="0.00" width="2.00" height="100.00" />
      <rect x="208.00" y="0.00" width="2.00" height="100.00" />
      <rect x="212.00" y="0.00" width="4.00" height="100.00" />
      <rect x="220.00" y="0.00" width="4.00" height="100.00" />
      <rect x="226.00" y="0.00" width="2.00" height="100.00" />
      <rect x="230.00" y="0.00" width="2.00" height="100.00" />
      <rect x="234.00" y="0.00" width="2.00" height="100.00" />
      <rect x="238.00" y="0.00" width="4.00" height="100.00" />
      <rect x="246.00" y="0.00" width="2.00" height="100.00" />
      <rect x="250.00" y="0.00" width="2.00" height="100.00" />
      <rect x="254.00" y="0.00" width="4.00" height="100.00" />
      <rect x="260.00" y="0.00" width="2.00" height="100.00" />
      <rect x="266.00" y="0.00" width="2.00" height="100.00" />
      <rect x="270.00" y="0.00" width="4.00" height="100.00" />
      <rect x="276.00" y="0.00" width="4.00" height="100.00" />
      <rect x="282.00" y="0.00" width="2.00" height="100.00" />
      <text x="142.00" y="115.40" text-anchor="middle"
         font-family="Helvetica, sans-serif" font-size="14.0" >
         PZN -01234562
      </text>
   </g>
</svg>
