<?xml version="1.0" standalone="no"?>
<!DOCTYPE svg PUBLIC "-//W3C//DTD SVG 1.1//EN" "http://www.w3.org/Graphics/SVG/1.1/DTD/svg11.dtd">
<svg width="50" height="50" version="1.1" xmlns="http://www.w3.org/2000/svg">
 <desc>Zint Generated Symbol</desc>
 <g id="barcode" fill="#000000">
  <rect x="0" y="0" width="50" height="50" fill="#FFFFFF"/>
  <path d="M0 0h14v2h-14ZM18 0h2v2h-2ZM24 0h4v2h-4ZM30 0h4v2h-4ZM36 0h14v2h-14ZM0 2h2v10h-2ZM12 2h2v10h-2ZM16 2h2v2h-2ZM22 2h2v2h-2ZM28 2h2v2h-2ZM32 2h2v2h-2ZM36 2h2v10h-2ZM48 2h2v10h-2ZM4 4h6v6h-6ZM28 4h6v2h-6ZM40 4h6v6h-6ZM16 6h2v2h-2ZM20 6h6v2h-6ZM28 6h2v2h-2ZM18 8h2v2h-2ZM24 8h8v2h-8ZM16 10h4v2h-4ZM24 10h2v4h-2ZM28 10h4v2h-4ZM0 12h14v2h-14ZM16 12h2v2h-2ZM20 12h2v2h-2ZM28 12h2v2h-2ZM32 12h2v2h-2ZM36 12h14v2h-14ZM18 14h2v2h-2ZM22 14h2v2h-2ZM26 14h4v2h-4ZM0 16h10v2h-10ZM12 16h8v2h-8ZM22 16h4v2h-4ZM28 16h4v2h-4ZM34 16h2v2h-2ZM38 16h2v2h-2ZM42 16h2v2h-2ZM46 16h2v2h-2ZM2 18h6v2h-6ZM10 18h2v2h-2ZM14 18h2v2h-2ZM22 18h2v2h-2ZM26 18h12v2h-12ZM44 18h6v2h-6ZM2 20h2v4h-2ZM12 20h2v2h-2ZM20 20h4v2h-4ZM26 20h4v2h-4ZM34 20h2v2h-2ZM40 20h2v2h-2ZM48 20h2v2h-2ZM8 22h4v2h-4ZM14 22h4v2h-4ZM26 22h2v2h-2ZM34 22h8v2h-8ZM44 22h4v2h-4ZM2 24h6v2h-6ZM10 24h16v2h-16ZM28 24h6v2h-6ZM42 24h4v2h-4ZM0 26h2v8h-2ZM4 26h2v2h-2ZM8 26h4v2h-4ZM14 26h6v2h-6ZM22 26h6v2h-6ZM30 26h2v2h-2ZM34 26h2v2h-2ZM44 26h6v2h-6ZM8 28h2v2h-2ZM12 28h4v2h-4ZM26 28h4v2h-4ZM32 28h4v2h-4ZM40 28h2v2h-2ZM46 28h2v2h-2ZM6 30h4v2h-4ZM14 30h4v2h-4ZM20 30h2v2h-2ZM26 30h2v2h-2ZM30 30h4v2h-4ZM42 30h8v2h-8ZM4 32h4v2h-4ZM12 32h2v2h-2ZM16 32h4v2h-4ZM22 32h4v2h-4ZM32 32h10v2h-10ZM44 32h2v4h-2ZM48 32h2v4h-2ZM16 34h2v2h-2ZM22 34h2v4h-2ZM26 34h2v2h-2ZM30 34h4v2h-4ZM40 34h2v2h-2ZM0 36h14v2h-14ZM16 36h4v2h-4ZM28 36h6v4h-6ZM36 36h2v2h-2ZM40 36h10v2h-10ZM0 38h2v10h-2ZM12 38h2v10h-2ZM40 38h2v2h-2ZM44 38h4v2h-4ZM4 40h6v6h-6ZM16 40h8v2h-8ZM28 40h16v2h-16ZM46 40h4v2h-4ZM16 42h2v2h-2ZM20 42h6v2h-6ZM28 42h2v2h-2ZM36 42h4v2h-4ZM44 42h2v2h-2ZM48 42h2v4h-2ZM16 44h4v6h-4ZM26 44h2v2h-2ZM32 44h4v2h-4ZM38 44h2v4h-2ZM42 44h4v2h-4ZM30 46h2v2h-2ZM34 46h2v2h-2ZM42 46h6v2h-6ZM0 48h14v2h-14ZM22 48h4v2h-4ZM30 48h4v2h-4ZM38 48h6v2h-6ZM46 48h4v2h-4Z"/>
 </g>
</svg>
