<?xml version="1.0" standalone="no"?>
<!DOCTYPE svg PUBLIC "-//W3C//DTD SVG 1.1//EN" "http://www.w3.org/Graphics/SVG/1.1/DTD/svg11.dtd">
<svg width="50" height="50" version="1.1" xmlns="http://www.w3.org/2000/svg">
 <desc>Zint Generated Symbol</desc>
 <g id="barcode" fill="#000000">
  <rect x="0" y="0" width="50" height="50" fill="#FFFFFF"/>
  <path d="M0 0h14v2h-14ZM16 0h2v4h-2ZM24 0h2v2h-2ZM28 0h4v2h-4ZM36 0h14v2h-14ZM0 2h2v10h-2ZM12 2h2v10h-2ZM20 2h2v4h-2ZM32 2h2v2h-2ZM36 2h2v10h-2ZM48 2h2v10h-2ZM4 4h6v6h-6ZM24 4h4v2h-4ZM30 4h2v2h-2ZM40 4h6v6h-6ZM16 6h8v2h-8ZM28 6h4v4h-4ZM22 8h4v2h-4ZM24 10h4v2h-4ZM32 10h2v4h-2ZM0 12h14v2h-14ZM16 12h2v4h-2ZM20 12h2v4h-2ZM24 12h2v4h-2ZM28 12h2v2h-2ZM36 12h14v2h-14ZM28 14h6v2h-6ZM0 16h2v4h-2ZM4 16h4v2h-4ZM10 16h6v2h-6ZM18 16h2v2h-2ZM22 16h2v2h-2ZM26 16h6v2h-6ZM36 16h2v4h-2ZM42 16h2v2h-2ZM46 16h4v2h-4ZM16 18h6v2h-6ZM26 18h2v2h-2ZM30 18h2v2h-2ZM44 18h2v2h-2ZM8 20h2v2h-2ZM12 20h2v2h-2ZM22 20h4v2h-4ZM28 20h2v2h-2ZM38 20h2v2h-2ZM44 20h6v2h-6ZM2 22h6v2h-6ZM16 22h2v2h-2ZM20 22h12v2h-12ZM34 22h4v2h-4ZM42 22h4v2h-4ZM2 24h8v2h-8ZM12 24h4v2h-4ZM28 24h2v2h-2ZM34 24h8v2h-8ZM46 24h2v2h-2ZM4 26h2v2h-2ZM8 26h4v2h-4ZM16 26h2v2h-2ZM20 26h4v2h-4ZM26 26h2v2h-2ZM30 26h2v4h-2ZM34 26h2v2h-2ZM38 26h2v2h-2ZM42 26h4v2h-4ZM48 26h2v2h-2ZM2 28h2v2h-2ZM12 28h4v2h-4ZM20 28h2v2h-2ZM24 28h2v4h-2ZM38 28h10v2h-10ZM0 30h2v2h-2ZM4 30h6v2h-6ZM14 30h6v2h-6ZM28 30h6v2h-6ZM36 30h6v2h-6ZM44 30h2v2h-2ZM48 30h2v2h-2ZM4 32h2v2h-2ZM8 32h2v2h-2ZM12 32h4v2h-4ZM22 32h2v2h-2ZM26 32h2v2h-2ZM30 32h18v2h-18ZM16 34h2v6h-2ZM20 34h2v2h-2ZM24 34h2v2h-2ZM30 34h4v4h-4ZM40 34h4v2h-4ZM0 36h14v2h-14ZM20 36h6v2h-6ZM36 36h2v2h-2ZM40 36h10v2h-10ZM0 38h2v10h-2ZM12 38h2v10h-2ZM24 38h10v2h-10ZM40 38h6v2h-6ZM4 40h6v6h-6ZM18 40h2v2h-2ZM22 40h2v2h-2ZM28 40h2v2h-2ZM32 40h10v2h-10ZM44 40h2v4h-2ZM48 40h2v4h-2ZM16 42h2v4h-2ZM24 42h6v2h-6ZM34 42h6v2h-6ZM20 44h4v2h-4ZM30 44h4v2h-4ZM38 44h2v2h-2ZM44 44h4v2h-4ZM18 46h2v2h-2ZM34 46h16v2h-16ZM0 48h14v2h-14ZM16 48h2v2h-2ZM20 48h2v2h-2ZM28 48h4v2h-4ZM36 48h6v2h-6ZM46 48h4v2h-4Z"/>
 </g>
</svg>
