<?xml version="1.0" standalone="no"?>
<!DOCTYPE svg PUBLIC "-//W3C//DTD SVG 1.1//EN"
   "http://www.w3.org/Graphics/SVG/1.1/DTD/svg11.dtd">
<svg width="192" height="119" version="1.1"
   xmlns="http://www.w3.org/2000/svg">
   <desc>Zint Generated Symbol
   </desc>

   <g id="barcode" fill="#000000">
      <rect x="0" y="0" width="192" height="119" fill="#FFFFFF" />
      <rect x="2.00" y="0.00" width="2.00" height="100.00" />
      <rect x="6.00" y="0.00" width="2.00" height="100.00" />
      <rect x="10.00" y="0.00" width="2.00" height="100.00" />
      <rect x="18.00" y="0.00" width="2.00" height="100.00" />
      <rect x="34.00" y="0.00" width="2.00" height="100.00" />
      <rect x="42.00" y="0.00" width="2.00" height="100.00" />
      <rect x="62.00" y="0.00" width="2.00" height="100.00" />
      <rect x="66.00" y="0.00" width="4.00" height="100.00" />
      <rect x="72.00" y="0.00" width="4.00" height="100.00" />
      <rect x="80.00" y="0.00" width="2.00" height="100.00" />
      <rect x="88.00" y="0.00" width="2.00" height="100.00" />
      <rect x="96.00" y="0.00" width="2.00" height="100.00" />
      <rect x="102.00" y="0.00" width="2.00" height="100.00" />
      <rect x="108.00" y="0.00" width="2.00" height="100.00" />
      <rect x="116.00" y="0.00" width="4.00" height="100.00" />
      <rect x="126.00" y="0.00" width="2.00" height="100.00" />
      <rect x="130.00" y="0.00" width="18.00" height="100.00" />
      <rect x="150.00" y="0.00" width="6.00" height="100.00" />
      <rect x="158.00" y="0.00" width="8.00" height="100.00" />
      <rect x="172.00" y="0.00" width="8.00" height="100.00" />
      <rect x="182.00" y="0.00" width="2.00" height="100.00" />
      <rect x="186.00" y="0.00" width="2.00" height="100.00" />
      <rect x="190.00" y="0.00" width="2.00" height="100.00" />
      <text x="96.00" y="115.40" text-anchor="middle"
         font-family="Helvetica, sans-serif" font-size="14.0" >
         (01)00123456789128
      </text>
   </g>
</svg>
