<?xml version="1.0" standalone="no"?>
<!DOCTYPE svg PUBLIC "-//W3C//DTD SVG 1.1//EN" "http://www.w3.org/Graphics/SVG/1.1/DTD/svg11.dtd">
<svg width="192" height="117" version="1.1" xmlns="http://www.w3.org/2000/svg">
 <desc>Zint Generated Symbol</desc>
 <g id="barcode" fill="#000000">
  <rect x="0" y="0" width="192" height="117" fill="#FFFFFF"/>
  <path d="M2 0h2v100h-2ZM6 0h2v100h-2ZM10 0h2v100h-2ZM18 0h2v100h-2ZM34 0h2v100h-2ZM42 0h2v100h-2ZM62 0h2v100h-2ZM66 0h4v100h-4ZM72 0h4v100h-4ZM80 0h2v100h-2ZM88 0h2v100h-2ZM96 0h2v100h-2ZM102 0h2v100h-2ZM108 0h2v100h-2ZM116 0h4v100h-4ZM126 0h2v100h-2ZM130 0h18v100h-18ZM150 0h6v100h-6ZM158 0h8v100h-8ZM172 0h8v100h-8ZM182 0h2v100h-2ZM186 0h2v100h-2ZM190 0h2v100h-2Z"/>
  <text x="96" y="113.34" text-anchor="middle" font-family="Arimo, Arial, sans-serif" font-size="14">
   (01)00123456789128
  </text>
 </g>
</svg>
