<?xml version="1.0" standalone="no"?>
<!DOCTYPE svg PUBLIC "-//W3C//DTD SVG 1.1//EN" "http://www.w3.org/Graphics/SVG/1.1/DTD/svg11.dtd">
<svg width="480" height="117" version="1.1" xmlns="http://www.w3.org/2000/svg">
 <desc>Zint Generated Symbol</desc>
 <g id="barcode" fill="#000000">
  <rect x="0" y="0" width="480" height="117" fill="#FFFFFF"/>
  <path d="M0 0h2v100h-2ZM4 0h2v100h-2ZM8 0h2v100h-2ZM12 0h2v100h-2ZM16 0h2v100h-2ZM20 0h6v100h-6ZM32 0h6v100h-6ZM40 0h6v100h-6ZM48 0h2v100h-2ZM52 0h2v100h-2ZM56 0h6v100h-6ZM64 0h2v100h-2ZM68 0h6v100h-6ZM76 0h2v100h-2ZM84 0h2v100h-2ZM92 0h2v100h-2ZM96 0h6v100h-6ZM108 0h2v100h-2ZM116 0h2v100h-2ZM124 0h2v100h-2ZM128 0h2v100h-2ZM132 0h2v100h-2ZM136 0h6v100h-6ZM144 0h2v100h-2ZM148 0h2v100h-2ZM152 0h6v100h-6ZM160 0h6v100h-6ZM168 0h2v100h-2ZM172 0h2v100h-2ZM180 0h2v100h-2ZM188 0h2v100h-2ZM192 0h2v100h-2ZM196 0h6v100h-6ZM208 0h2v100h-2ZM212 0h2v100h-2ZM216 0h6v100h-6ZM224 0h2v100h-2ZM232 0h2v100h-2ZM240 0h2v100h-2ZM244 0h2v100h-2ZM248 0h6v100h-6ZM256 0h2v100h-2ZM260 0h2v100h-2ZM264 0h2v100h-2ZM268 0h2v100h-2ZM276 0h2v100h-2ZM284 0h2v100h-2ZM288 0h6v100h-6ZM296 0h2v100h-2ZM304 0h2v100h-2ZM308 0h2v100h-2ZM316 0h2v100h-2ZM320 0h2v100h-2ZM324 0h6v100h-6ZM332 0h2v100h-2ZM336 0h2v100h-2ZM340 0h2v100h-2ZM344 0h6v100h-6ZM352 0h2v100h-2ZM356 0h6v100h-6ZM364 0h2v100h-2ZM372 0h2v100h-2ZM380 0h2v100h-2ZM384 0h6v100h-6ZM396 0h2v100h-2ZM404 0h2v100h-2ZM412 0h2v100h-2ZM416 0h2v100h-2ZM420 0h2v100h-2ZM424 0h6v100h-6ZM436 0h6v100h-6ZM444 0h2v100h-2ZM448 0h6v100h-6ZM460 0h2v100h-2ZM464 0h2v100h-2ZM468 0h2v100h-2ZM472 0h2v100h-2ZM476 0h2v100h-2Z"/>
  <text x="240" y="113.34" text-anchor="middle" font-family="Arimo, Arial, sans-serif" font-size="14">
   012345678912
  </text>
 </g>
</svg>
