<?xml version="1.0" standalone="no"?>
<!DOCTYPE svg PUBLIC "-//W3C//DTD SVG 1.1//EN" "http://www.w3.org/Graphics/SVG/1.1/DTD/svg11.dtd">
<svg width="288" height="117" version="1.1" xmlns="http://www.w3.org/2000/svg">
 <desc>Zint Generated Symbol</desc>
 <g id="barcode" fill="#000000">
  <rect x="0" y="0" width="288" height="117" fill="#FFFFFF"/>
  <path d="M0 0h2v100h-2ZM4 0h2v100h-2ZM8 0h2v100h-2ZM12 0h2v100h-2ZM16 0h2v100h-2ZM20 0h6v100h-6ZM32 0h6v100h-6ZM40 0h2v100h-2ZM44 0h2v100h-2ZM48 0h2v100h-2ZM52 0h6v100h-6ZM60 0h2v100h-2ZM64 0h6v100h-6ZM76 0h2v100h-2ZM84 0h2v100h-2ZM92 0h2v100h-2ZM96 0h6v100h-6ZM104 0h6v100h-6ZM116 0h6v100h-6ZM128 0h2v100h-2ZM136 0h2v100h-2ZM140 0h2v100h-2ZM144 0h2v100h-2ZM152 0h2v100h-2ZM156 0h2v100h-2ZM160 0h6v100h-6ZM168 0h2v100h-2ZM172 0h2v100h-2ZM180 0h2v100h-2ZM184 0h2v100h-2ZM192 0h2v100h-2ZM196 0h2v100h-2ZM200 0h2v100h-2ZM204 0h6v100h-6ZM212 0h2v100h-2ZM216 0h6v100h-6ZM224 0h2v100h-2ZM228 0h2v100h-2ZM236 0h2v100h-2ZM244 0h2v100h-2ZM248 0h2v100h-2ZM252 0h2v100h-2ZM256 0h6v100h-6ZM268 0h2v100h-2ZM272 0h2v100h-2ZM276 0h2v100h-2ZM280 0h2v100h-2ZM284 0h2v100h-2Z"/>
  <text x="144" y="113.34" text-anchor="middle" font-family="Arimo, Arial, sans-serif" font-size="14">
   012345678912
  </text>
 </g>
</svg>
