<?xml version="1.0" standalone="no"?>
<!DOCTYPE svg PUBLIC "-//W3C//DTD SVG 1.1//EN" "http://www.w3.org/Graphics/SVG/1.1/DTD/svg11.dtd">
<svg width="312" height="117" version="1.1" xmlns="http://www.w3.org/2000/svg">
 <desc>Zint Generated Symbol</desc>
 <g id="barcode" fill="#000000">
  <rect x="0" y="0" width="312" height="117" fill="#FFFFFF"/>
  <path d="M0 0h4v100h-4ZM6 0h2v100h-2ZM12 0h2v100h-2ZM22 0h4v100h-4ZM28 0h2v100h-2ZM36 0h6v100h-6ZM44 0h2v100h-2ZM48 0h2v100h-2ZM56 0h4v100h-4ZM66 0h2v100h-2ZM70 0h6v100h-6ZM78 0h8v100h-8ZM88 0h2v100h-2ZM96 0h6v100h-6ZM104 0h4v100h-4ZM110 0h4v100h-4ZM116 0h4v100h-4ZM126 0h4v100h-4ZM132 0h6v100h-6ZM140 0h2v100h-2ZM146 0h4v100h-4ZM154 0h2v100h-2ZM160 0h2v100h-2ZM166 0h8v100h-8ZM176 0h2v100h-2ZM180 0h8v100h-8ZM190 0h6v100h-6ZM198 0h6v100h-6ZM208 0h2v100h-2ZM212 0h4v100h-4ZM220 0h6v100h-6ZM228 0h6v100h-6ZM236 0h4v100h-4ZM242 0h4v100h-4ZM248 0h6v100h-6ZM256 0h2v100h-2ZM264 0h2v100h-2ZM272 0h4v100h-4ZM282 0h2v100h-2ZM286 0h4v100h-4ZM296 0h6v100h-6ZM304 0h2v100h-2ZM308 0h4v100h-4Z"/>
  <text x="156" y="113.34" text-anchor="middle" font-family="Arimo, Arial, sans-serif" font-size="14">
   QA 473 124 829 PS
  </text>
 </g>
</svg>
