<?xml version="1.0" standalone="no"?>
<!DOCTYPE svg PUBLIC "-//W3C//DTD SVG 1.1//EN"
   "http://www.w3.org/Graphics/SVG/1.1/DTD/svg11.dtd">
<svg width="312" height="119" version="1.1"
   xmlns="http://www.w3.org/2000/svg">
   <desc>Zint Generated Symbol
   </desc>

   <g id="barcode" fill="#000000">
      <rect x="0" y="0" width="312" height="119" fill="#FFFFFF" />
      <rect x="0.00" y="0.00" width="4.00" height="100.00" />
      <rect x="6.00" y="0.00" width="2.00" height="100.00" />
      <rect x="12.00" y="0.00" width="2.00" height="100.00" />
      <rect x="22.00" y="0.00" width="4.00" height="100.00" />
      <rect x="28.00" y="0.00" width="2.00" height="100.00" />
      <rect x="36.00" y="0.00" width="6.00" height="100.00" />
      <rect x="44.00" y="0.00" width="2.00" height="100.00" />
      <rect x="48.00" y="0.00" width="2.00" height="100.00" />
      <rect x="56.00" y="0.00" width="4.00" height="100.00" />
      <rect x="66.00" y="0.00" width="4.00" height="100.00" />
      <rect x="74.00" y="0.00" width="2.00" height="100.00" />
      <rect x="80.00" y="0.00" width="6.00" height="100.00" />
      <rect x="88.00" y="0.00" width="2.00" height="100.00" />
      <rect x="92.00" y="0.00" width="6.00" height="100.00" />
      <rect x="100.00" y="0.00" width="8.00" height="100.00" />
      <rect x="110.00" y="0.00" width="2.00" height="100.00" />
      <rect x="120.00" y="0.00" width="4.00" height="100.00" />
      <rect x="126.00" y="0.00" width="2.00" height="100.00" />
      <rect x="132.00" y="0.00" width="2.00" height="100.00" />
      <rect x="136.00" y="0.00" width="4.00" height="100.00" />
      <rect x="144.00" y="0.00" width="6.00" height="100.00" />
      <rect x="154.00" y="0.00" width="6.00" height="100.00" />
      <rect x="162.00" y="0.00" width="6.00" height="100.00" />
      <rect x="170.00" y="0.00" width="4.00" height="100.00" />
      <rect x="176.00" y="0.00" width="6.00" height="100.00" />
      <rect x="186.00" y="0.00" width="4.00" height="100.00" />
      <rect x="194.00" y="0.00" width="2.00" height="100.00" />
      <rect x="198.00" y="0.00" width="2.00" height="100.00" />
      <rect x="202.00" y="0.00" width="8.00" height="100.00" />
      <rect x="212.00" y="0.00" width="6.00" height="100.00" />
      <rect x="220.00" y="0.00" width="6.00" height="100.00" />
      <rect x="228.00" y="0.00" width="6.00" height="100.00" />
      <rect x="236.00" y="0.00" width="4.00" height="100.00" />
      <rect x="242.00" y="0.00" width="4.00" height="100.00" />
      <rect x="248.00" y="0.00" width="6.00" height="100.00" />
      <rect x="256.00" y="0.00" width="2.00" height="100.00" />
      <rect x="264.00" y="0.00" width="2.00" height="100.00" />
      <rect x="270.00" y="0.00" width="6.00" height="100.00" />
      <rect x="278.00" y="0.00" width="4.00" height="100.00" />
      <rect x="286.00" y="0.00" width="4.00" height="100.00" />
      <rect x="296.00" y="0.00" width="6.00" height="100.00" />
      <rect x="304.00" y="0.00" width="2.00" height="100.00" />
      <rect x="308.00" y="0.00" width="4.00" height="100.00" />
      <text x="156.00" y="115.40" text-anchor="middle"
         font-family="Helvetica, sans-serif" font-size="14.0" >
         QA 473 124 829 PS
      </text>
   </g>
</svg>
