<?xml version="1.0" standalone="no"?>
<!DOCTYPE svg PUBLIC "-//W3C//DTD SVG 1.1//EN" "http://www.w3.org/Graphics/SVG/1.1/DTD/svg11.dtd">
<svg width="42" height="42" version="1.1" xmlns="http://www.w3.org/2000/svg">
 <desc>Zint Generated Symbol</desc>
 <g id="barcode" fill="#000000">
  <rect x="0" y="0" width="42" height="42" fill="#FFFFFF"/>
  <path d="M0 0h14v2h-14ZM20 0h2v4h-2ZM24 0h2v4h-2ZM28 0h14v2h-14ZM0 2h2v10h-2ZM12 2h2v10h-2ZM16 2h2v4h-2ZM28 2h2v10h-2ZM40 2h2v10h-2ZM4 4h6v6h-6ZM20 4h4v2h-4ZM32 4h6v6h-6ZM24 6h2v2h-2ZM16 8h10v2h-10ZM16 10h6v2h-6ZM0 12h14v2h-14ZM16 12h2v4h-2ZM20 12h2v2h-2ZM24 12h2v2h-2ZM28 12h14v2h-14ZM0 16h4v4h-4ZM6 16h2v2h-2ZM12 16h4v2h-4ZM20 16h6v2h-6ZM28 16h6v2h-6ZM36 16h4v2h-4ZM10 18h2v2h-2ZM14 18h4v2h-4ZM22 18h2v2h-2ZM26 18h2v2h-2ZM30 18h2v2h-2ZM38 18h4v2h-4ZM4 20h10v2h-10ZM16 20h2v2h-2ZM20 20h4v2h-4ZM28 20h10v2h-10ZM40 20h2v2h-2ZM10 22h2v2h-2ZM14 22h8v2h-8ZM24 22h12v2h-12ZM38 22h4v4h-4ZM0 24h2v2h-2ZM4 24h2v2h-2ZM8 24h2v2h-2ZM12 24h4v2h-4ZM22 24h2v2h-2ZM26 24h6v2h-6ZM34 24h2v2h-2ZM16 26h2v4h-2ZM26 26h4v2h-4ZM32 26h4v2h-4ZM38 26h2v6h-2ZM0 28h14v2h-14ZM22 28h4v2h-4ZM28 28h2v4h-2ZM32 28h2v2h-2ZM0 30h2v10h-2ZM12 30h2v10h-2ZM18 30h2v2h-2ZM4 32h6v6h-6ZM24 32h6v2h-6ZM34 32h2v4h-2ZM40 32h2v2h-2ZM16 34h6v2h-6ZM26 34h6v4h-6ZM38 34h4v2h-4ZM18 36h2v2h-2ZM22 36h2v2h-2ZM36 36h2v2h-2ZM40 36h2v2h-2ZM16 38h4v2h-4ZM22 38h4v2h-4ZM30 38h2v4h-2ZM34 38h2v2h-2ZM0 40h14v2h-14ZM16 40h6v2h-6ZM26 40h2v2h-2ZM34 40h6v2h-6Z"/>
 </g>
</svg>
