<?xml version="1.0" standalone="no"?>
<!DOCTYPE svg PUBLIC "-//W3C//DTD SVG 1.1//EN" "http://www.w3.org/Graphics/SVG/1.1/DTD/svg11.dtd">
<svg width="42" height="42" version="1.1" xmlns="http://www.w3.org/2000/svg">
 <desc>Zint Generated Symbol</desc>
 <g id="barcode" fill="#000000">
  <rect x="0" y="0" width="42" height="42" fill="#FFFFFF"/>
  <path d="M0 0h14v2h-14ZM16 0h2v2h-2ZM24 0h2v2h-2ZM28 0h14v2h-14ZM0 2h2v10h-2ZM12 2h2v10h-2ZM18 2h8v2h-8ZM28 2h2v10h-2ZM40 2h2v10h-2ZM4 4h6v6h-6ZM16 4h4v2h-4ZM22 4h4v2h-4ZM32 4h6v6h-6ZM20 6h4v2h-4ZM16 8h4v2h-4ZM22 8h2v2h-2ZM18 10h2v2h-2ZM24 10h2v8h-2ZM0 12h14v2h-14ZM16 12h2v2h-2ZM20 12h2v2h-2ZM28 12h14v2h-14ZM16 14h6v2h-6ZM10 16h4v2h-4ZM28 16h2v2h-2ZM32 16h2v2h-2ZM36 16h2v2h-2ZM40 16h2v2h-2ZM0 18h8v2h-8ZM16 18h8v2h-8ZM26 18h4v2h-4ZM32 18h6v2h-6ZM4 20h6v2h-6ZM12 20h2v2h-2ZM16 20h4v2h-4ZM22 20h6v2h-6ZM32 20h8v2h-8ZM6 22h2v2h-2ZM10 22h2v2h-2ZM22 22h2v2h-2ZM32 22h6v2h-6ZM4 24h2v2h-2ZM12 24h2v2h-2ZM16 24h2v4h-2ZM20 24h4v2h-4ZM26 24h4v2h-4ZM40 24h2v2h-2ZM20 26h2v4h-2ZM28 26h4v4h-4ZM36 26h4v2h-4ZM0 28h14v2h-14ZM34 28h2v2h-2ZM38 28h2v2h-2ZM0 30h2v10h-2ZM12 30h2v10h-2ZM16 30h4v2h-4ZM22 30h6v2h-6ZM30 30h8v2h-8ZM40 30h2v2h-2ZM4 32h6v6h-6ZM20 32h2v2h-2ZM26 32h2v2h-2ZM30 32h2v2h-2ZM34 32h2v2h-2ZM38 32h2v2h-2ZM18 34h6v2h-6ZM26 34h4v2h-4ZM34 34h4v2h-4ZM18 36h2v2h-2ZM24 36h4v2h-4ZM34 36h8v2h-8ZM18 38h4v2h-4ZM24 38h6v2h-6ZM32 38h2v4h-2ZM36 38h2v2h-2ZM0 40h14v2h-14ZM18 40h2v2h-2ZM22 40h4v2h-4ZM28 40h2v2h-2ZM36 40h4v2h-4Z"/>
 </g>
</svg>
