<?xml version="1.0" standalone="no"?>
<!DOCTYPE svg PUBLIC "-//W3C//DTD SVG 1.1//EN" "http://www.w3.org/Graphics/SVG/1.1/DTD/svg11.dtd">
<svg width="42" height="42" version="1.1" xmlns="http://www.w3.org/2000/svg">
 <desc>Zint Generated Symbol</desc>
 <g id="barcode" fill="#000000">
  <rect x="0" y="0" width="42" height="42" fill="#FFFFFF"/>
  <path d="M0 0h14v2h-14ZM20 0h6v2h-6ZM28 0h14v2h-14ZM0 2h2v10h-2ZM12 2h2v10h-2ZM18 2h4v2h-4ZM28 2h2v10h-2ZM40 2h2v10h-2ZM4 4h6v6h-6ZM16 4h6v2h-6ZM32 4h6v6h-6ZM16 6h8v2h-8ZM16 8h4v2h-4ZM22 8h4v2h-4ZM16 10h2v4h-2ZM24 10h2v4h-2ZM0 12h14v2h-14ZM20 12h2v2h-2ZM28 12h14v2h-14ZM16 14h10v2h-10ZM0 16h2v2h-2ZM4 16h10v2h-10ZM20 16h2v2h-2ZM24 16h2v4h-2ZM28 16h10v2h-10ZM14 18h4v2h-4ZM30 18h2v2h-2ZM34 18h4v2h-4ZM40 18h2v2h-2ZM0 20h4v2h-4ZM8 20h8v2h-8ZM18 20h6v2h-6ZM26 20h2v2h-2ZM32 20h8v2h-8ZM0 22h8v2h-8ZM14 22h2v2h-2ZM18 22h2v2h-2ZM30 22h8v2h-8ZM0 24h2v2h-2ZM4 24h4v2h-4ZM12 24h2v2h-2ZM16 24h2v2h-2ZM20 24h4v2h-4ZM26 24h2v2h-2ZM32 24h4v2h-4ZM38 24h2v2h-2ZM16 26h14v2h-14ZM36 26h4v2h-4ZM0 28h14v2h-14ZM20 28h2v2h-2ZM24 28h2v2h-2ZM28 28h4v2h-4ZM34 28h2v2h-2ZM38 28h2v2h-2ZM0 30h2v10h-2ZM12 30h2v10h-2ZM16 30h2v2h-2ZM20 30h10v2h-10ZM34 30h4v2h-4ZM4 32h6v6h-6ZM16 32h4v2h-4ZM24 32h2v4h-2ZM30 32h2v4h-2ZM34 32h2v2h-2ZM38 32h2v2h-2ZM16 34h2v2h-2ZM20 34h2v2h-2ZM34 34h4v2h-4ZM16 36h4v2h-4ZM22 36h2v2h-2ZM26 36h2v2h-2ZM32 36h2v2h-2ZM36 36h2v4h-2ZM20 38h2v2h-2ZM30 38h4v2h-4ZM0 40h14v2h-14ZM16 40h4v2h-4ZM22 40h2v2h-2ZM26 40h2v2h-2ZM32 40h2v2h-2ZM36 40h4v2h-4Z"/>
 </g>
</svg>
